<?xml version="1.0" encoding="utf-8"?>
<!-- Generator: Adobe Illustrator 25.4.1, SVG Export Plug-In . SVG Version: 6.00 Build 0)  -->
<svg version="1.1" id="Capa_1" xmlns="http://www.w3.org/2000/svg" xmlns:xlink="http://www.w3.org/1999/xlink" x="0px" y="0px"
	 viewBox="0 0 1612.6 925.1" style="enable-background:new 0 0 1612.6 925.1;" xml:space="preserve">
<style type="text/css">
	.st0{fill:url(#SVGID_1_);}
	.st1{fill:#0A020C;}
	.st2{enable-background:new    ;}
	.st3{fill:none;stroke:#000000;stroke-miterlimit:10;}
</style>
<g>
	<g id="Capa_2_00000054970451019848875300000014628822918419690372_">
		<g id="Base">
			<rect y="0.7" width="1612.5" height="921.7"/>
			
				<linearGradient id="SVGID_1_" gradientUnits="userSpaceOnUse" x1="1019.535" y1="923.89" x2="1019.535" y2="1.41" gradientTransform="matrix(1 0 0 -1 0 923.89)">
				<stop  offset="0" style="stop-color:#E5E00F"/>
				<stop  offset="0.49" style="stop-color:#E6D214"/>
				<stop  offset="0.96" style="stop-color:#E5A800"/>
			</linearGradient>
			<polygon class="st0" points="629.6,0 426.4,922.5 1612.6,919.7 1612.5,0.7 			"/>
			<polygon class="st1" points="1359.6,732.6 1233.5,732.6 1246,680.1 1372,679.7 			"/>
			<g id="KOtIl9">
				
					<image style="overflow:visible;opacity:0.82;enable-background:new    ;" width="831" height="872" xlink:href="4E6731E023498706.png"  transform="matrix(1 0 0 1 745.67 23.98)">
				</image>
				
					<image style="overflow:visible;enable-background:new    ;" width="1075" height="1257" id="KOtIl9-2" xlink:href="4E6731E023498701.png"  transform="matrix(-0.63 -0.11 -0.11 0.63 1603.9 127.23)">
				</image>
			</g>
			<g class="st2">
				<path d="M757.9,151.6h15.4c2.4,0,4.2,0.6,5.6,1.7c1.3,1.1,2,2.6,2,4.5c0,0.5,0,0.9-0.1,1.4l-0.6,3.3c-0.3,1.6-1,3-2.1,4.2
					c-1.1,1.2-2.7,2-4.6,2.6v0c1.6,1,2.6,3,3,5.8l1,8.4H773l-1-8.2c-0.2-1.4-0.7-2.5-1.4-3.4c-0.8-0.8-1.7-1.2-2.9-1.2h-8.7
					l-2.3,12.8h-4.3L757.9,151.6z M770,166.8c1.5,0,2.8-0.4,3.9-1.2s1.7-1.9,2-3.2l0.5-3.3c0-0.2,0-0.4,0-0.7c0-0.9-0.3-1.6-0.9-2.2
					c-0.6-0.5-1.4-0.8-2.5-0.8h-11.5l-2,11.4H770z"/>
				<path d="M783.5,182.7c-0.5-0.5-0.8-1.1-0.8-1.9c0-0.2,0-0.4,0.1-0.8l5-28.4h13.6c3.1,0,5.6,0.8,7.4,2.3c1.8,1.5,2.7,3.6,2.7,6.3
					c0,0.8-0.1,1.4-0.2,2l-1.7,9.6c-0.7,3.8-2.1,6.7-4.2,8.6c-2.2,1.9-5,2.9-8.7,2.9h-11.1C784.8,183.4,784,183.2,783.5,182.7z
					 M796.8,179.6c2.4,0,4.3-0.7,5.7-2c1.5-1.3,2.4-3.2,2.9-5.8l1.6-9.4c0.1-0.5,0.1-1.1,0.1-1.6c0-1.7-0.5-3-1.6-3.9
					c-1-0.9-2.5-1.4-4.4-1.4h-9.7l-4.2,24.1H796.8z"/>
				<path d="M816,181.7c-1.6-1.4-2.3-3.3-2.3-5.6c0-0.7,0.1-1.4,0.2-2h4.2c-0.1,0.5-0.1,0.9-0.1,1.3c0,1.4,0.4,2.5,1.2,3.3
					c0.8,0.8,2,1.2,3.4,1.2h5c1.7,0,3.1-0.3,4.2-1s1.7-1.6,2-2.9l0.5-2.5c0-0.1,0-0.3,0-0.5c0-0.8-0.3-1.4-0.9-2s-1.5-0.9-2.5-1.1
					l-7.9-1.4c-2.1-0.3-3.7-1-4.8-2.1c-1.1-1.1-1.7-2.4-1.7-3.9c0-0.4,0-0.8,0.1-1.2l0.5-2.5c0.4-2.4,1.5-4.2,3.3-5.6
					c1.8-1.3,4.1-2,6.9-2h5.1c2.5,0,4.6,0.6,6,1.9c1.5,1.3,2.2,3,2.2,5.2c0,0.3-0.1,0.9-0.2,1.8h-4.3c0.1-0.3,0.1-0.7,0.1-1.2
					c0-1.2-0.4-2.1-1.1-2.8c-0.7-0.7-1.7-1-2.9-1H827c-1.6,0-2.9,0.3-3.9,1c-1,0.7-1.7,1.6-1.9,2.8l-0.4,2.1c0,0.1,0,0.3,0,0.5
					c0,0.8,0.3,1.5,0.9,2c0.6,0.6,1.4,0.9,2.5,1.1l7.9,1.4c2.1,0.4,3.7,1.1,4.8,2.2c1.2,1.1,1.7,2.3,1.7,3.8c0,0.2,0,0.6-0.1,1.1
					l-0.5,3c-0.4,2.5-1.5,4.3-3.3,5.7c-1.8,1.3-4.1,2-7,2h-5.2C819.7,183.8,817.6,183.1,816,181.7z"/>
			</g>
			<g class="st2">
				<path d="M874.3,175.1H861l-4.6,8.4h-4.7l17.9-31.8h2c1.3,0,2.1,0.7,2.4,2.1l6.2,29.7h-4.3L874.3,175.1z M862.9,171.4h10.7
					l-2.8-14.3h0L862.9,171.4z"/>
			</g>
			<g class="st2">
				<path d="M885.9,181.9c-1.5-1.2-2.2-2.9-2.2-4.9c0-0.5,0-1,0.1-1.5l1.1-6.3c0.5-2.8,1.6-4.9,3.3-6.5c1.7-1.6,3.9-2.3,6.5-2.3h3.7
					c2.3,0,4.2,0.6,5.6,1.9c1.4,1.3,2.1,3,2.1,5.1c0,0.5,0,1-0.1,1.6l-0.8,4.3h-16.9l-0.4,2.2c-0.1,0.5-0.1,0.8-0.1,1
					c0,1.1,0.3,2,1,2.7c0.7,0.7,1.6,1,2.8,1h3.5c1.5,0,2.6-0.3,3.6-1c0.9-0.7,1.5-1.6,1.7-2.9h4.2c-0.4,2.4-1.5,4.3-3.1,5.6
					c-1.7,1.3-3.8,2-6.4,2h-3.5C889.3,183.8,887.4,183.2,885.9,181.9z M901.8,169.9l0.2-0.9c0.1-0.4,0.1-0.8,0.1-1.2
					c0-1.2-0.3-2.1-1-2.8c-0.7-0.7-1.5-1-2.6-1h-3.7c-1.4,0-2.6,0.5-3.6,1.4c-1,0.9-1.6,2.2-2,3.8l-0.1,0.7H901.8z"/>
				<path d="M912.9,160.8h4l-0.5,3.3c0.8-1.1,1.9-1.9,3-2.5c1.2-0.6,2.4-0.9,3.6-0.9h2.7l-0.6,3.8h-2.3c-1.8,0-3.4,0.6-4.8,1.7
					c-1.3,1.1-2.2,2.6-2.5,4.5l-2.3,12.8h-4.2L912.9,160.8z"/>
				<path d="M930.2,160.8h4.2l-4,22.7h-4.2L930.2,160.8z M931.1,157.1c-0.5-0.4-0.7-1-0.7-1.6c0-1.1,0.3-1.9,1-2.5
					c0.6-0.6,1.5-0.9,2.5-0.9c0.8,0,1.4,0.2,1.8,0.6c0.5,0.4,0.7,1,0.7,1.7c0,1-0.3,1.9-1,2.5s-1.5,1-2.5,1
					C932.1,157.8,931.5,157.5,931.1,157.1z"/>
				<path d="M940.2,181.9c-1.5-1.3-2.2-3-2.2-5c0-0.4,0.1-1,0.2-1.8l1-5.9c0.5-2.8,1.6-4.9,3.3-6.4c1.7-1.5,3.9-2.3,6.6-2.3h3.8
					c2.5,0,4.5,0.6,5.9,1.9c1.5,1.3,2.2,3,2.2,5.1c0,0.3-0.1,0.9-0.2,1.8l-1,5.9c-0.5,2.8-1.6,4.9-3.4,6.4s-4,2.3-6.6,2.3H946
					C943.6,183.8,941.6,183.1,940.2,181.9z M950,180.1c1.5,0,2.7-0.5,3.7-1.4s1.7-2.2,2-3.8l1-5.6c0.1-0.3,0.1-0.7,0.1-1.2
					c0-1.2-0.3-2.2-1-2.9c-0.7-0.7-1.7-1.1-2.9-1.1H949c-1.5,0-2.7,0.5-3.7,1.4c-1,0.9-1.6,2.2-1.9,3.8l-1,5.6
					c-0.1,0.3-0.1,0.7-0.1,1.2c0,1.2,0.3,2.2,1,2.9c0.7,0.7,1.6,1.1,2.8,1.1H950z"/>
				<path d="M991.2,181.7c-1.6-1.4-2.3-3.3-2.3-5.6c0-0.7,0.1-1.4,0.2-2h4.2c-0.1,0.5-0.1,0.9-0.1,1.3c0,1.4,0.4,2.5,1.2,3.3
					s2,1.2,3.4,1.2h5c1.7,0,3.1-0.3,4.2-1s1.7-1.6,2-2.9l0.5-2.5c0-0.1,0-0.3,0-0.5c0-0.8-0.3-1.4-0.9-2c-0.6-0.5-1.5-0.9-2.5-1.1
					l-7.9-1.4c-2.1-0.3-3.7-1-4.8-2.1c-1.1-1.1-1.7-2.4-1.7-3.9c0-0.4,0-0.8,0.1-1.2l0.5-2.5c0.4-2.4,1.5-4.2,3.3-5.6
					c1.8-1.3,4.1-2,6.9-2h5.1c2.5,0,4.6,0.6,6,1.9c1.5,1.3,2.2,3,2.2,5.2c0,0.3-0.1,0.9-0.2,1.8h-4.3c0.1-0.3,0.1-0.7,0.1-1.2
					c0-1.2-0.4-2.1-1.1-2.8c-0.7-0.7-1.7-1-2.9-1h-5.1c-1.6,0-2.9,0.3-3.9,1c-1,0.7-1.7,1.6-1.9,2.8L996,161c0,0.1,0,0.3,0,0.5
					c0,0.8,0.3,1.5,0.9,2c0.6,0.6,1.4,0.9,2.5,1.1l7.9,1.4c2.1,0.4,3.7,1.1,4.8,2.2c1.2,1.1,1.7,2.3,1.7,3.8c0,0.2,0,0.6-0.1,1.1
					l-0.5,3c-0.4,2.5-1.5,4.3-3.3,5.7c-1.8,1.3-4.1,2-7,2h-5.2C994.9,183.8,992.8,183.1,991.2,181.7z"/>
			</g>
			<g class="st2">
				<path d="M1029.5,170.5l8.1,12.9h-4.7l-6.6-10.3l-3.6,3l-1.3,7.3h-4.2l5.6-31.8h4.2l-3.4,19.3l12-10.2h5.3L1029.5,170.5z"/>
			</g>
			<g class="st2">
				<path d="M1042.2,182.3c-1.3-1-1.9-2.3-1.9-3.9c0-0.2,0-0.6,0.1-1.1l0.3-1.6c0.4-2,1.3-3.5,2.7-4.6c1.5-1.1,3.3-1.7,5.5-1.7h2.8
					c1,0,2,0.1,3.2,0.4c1.1,0.3,2,0.7,2.7,1.1l0.6-3.3c0-0.2,0-0.4,0-0.7c0-0.9-0.3-1.6-0.8-2.2s-1.3-0.8-2.3-0.8h-3.7
					c-1.2,0-2.1,0.3-2.9,0.8c-0.8,0.5-1.3,1.2-1.4,2.2h-4.2c0.4-2,1.3-3.6,2.9-4.8s3.5-1.8,5.7-1.8h3.7c2.3,0,4.1,0.5,5.4,1.6
					c1.3,1.1,2,2.5,2,4.4c0,0.4,0,0.8-0.1,1.4l-2.8,15.7h-4l0.5-3c-0.9,1.1-1.9,1.9-3,2.5c-1.1,0.6-2.2,0.9-3.2,0.9h-2.7
					C1045.2,183.8,1043.5,183.3,1042.2,182.3z M1050.3,180.3c1.3,0,2.6-0.4,3.8-1.2s2.1-1.8,2.7-3.1l0.2-1.4
					c-0.5-0.5-1.2-0.9-2.1-1.2c-0.9-0.3-2-0.5-3-0.5h-2.9c-1.1,0-2,0.3-2.8,0.8c-0.7,0.5-1.2,1.3-1.4,2.2l-0.2,1.4
					c0,0.2,0,0.3,0,0.6c0,0.8,0.3,1.3,0.8,1.7c0.5,0.4,1.3,0.6,2.2,0.6H1050.3z"/>
			</g>
			<g class="st2">
				<path d="M1070.4,182.3c-1-0.8-1.5-2-1.5-3.6c0-0.6,0.1-1.3,0.2-2.1l2.1-12.1h-4l0.6-3.7h4l1.2-6.9h4.2l-1.2,6.9h5.9l-0.6,3.7
					h-5.9l-2.1,12c-0.1,0.3-0.1,0.7-0.1,1.2c0,0.8,0.2,1.3,0.6,1.6c0.4,0.3,1,0.5,1.9,0.5h2.9l-0.7,3.7h-3
					C1072.9,183.4,1071.3,183,1070.4,182.3z"/>
			</g>
			<g class="st2">
				<path d="M1085.3,181.9c-1.5-1.2-2.2-2.9-2.2-4.9c0-0.5,0-1,0.1-1.5l1.1-6.3c0.5-2.8,1.6-4.9,3.3-6.5c1.7-1.6,3.9-2.3,6.5-2.3
					h3.7c2.3,0,4.2,0.6,5.6,1.9c1.4,1.3,2.1,3,2.1,5.1c0,0.5,0,1-0.1,1.6l-0.8,4.3h-16.9l-0.4,2.2c-0.1,0.5-0.1,0.8-0.1,1
					c0,1.1,0.3,2,1,2.7c0.7,0.7,1.6,1,2.8,1h3.5c1.5,0,2.6-0.3,3.6-1c0.9-0.7,1.5-1.6,1.7-2.9h4.2c-0.4,2.4-1.5,4.3-3.1,5.6
					c-1.7,1.3-3.8,2-6.4,2h-3.5C1088.7,183.8,1086.8,183.2,1085.3,181.9z M1101.2,169.9l0.2-0.9c0.1-0.4,0.1-0.8,0.1-1.2
					c0-1.2-0.3-2.1-1-2.8c-0.7-0.7-1.5-1-2.6-1h-3.7c-1.4,0-2.6,0.5-3.6,1.4c-1,0.9-1.6,2.2-2,3.8l-0.1,0.7H1101.2z"/>
				<path d="M1110.2,182.2c-1.3-1.1-2-2.5-2-4.3c0-0.5,0-0.9,0.1-1.4h4.1c-0.1,0.4-0.1,0.6-0.1,0.8c0,0.9,0.3,1.6,0.9,2.2
					c0.6,0.5,1.4,0.8,2.5,0.8h4c1.2,0,2.1-0.2,2.9-0.6s1.2-1,1.4-1.8l0.2-1.3c0.1-0.5,0-0.9-0.4-1.3c-0.3-0.4-0.8-0.6-1.5-0.7
					l-7.6-1.4c-1.4-0.3-2.6-0.8-3.4-1.6c-0.8-0.8-1.2-1.7-1.2-2.8c0-0.2,0-0.5,0.1-0.8l0.3-1.5c0.3-1.9,1.2-3.3,2.7-4.4
					c1.5-1,3.3-1.6,5.6-1.6h3.8c2.2,0,3.9,0.5,5.2,1.5c1.3,1,1.9,2.3,1.9,4c0,0.4,0,0.8-0.1,1.3h-4.1c0-0.2,0-0.3,0-0.6
					c0-0.8-0.3-1.4-0.8-1.9c-0.5-0.5-1.2-0.7-2.1-0.7h-3.8c-1.1,0-2,0.2-2.7,0.7c-0.7,0.4-1.1,1.1-1.3,1.8l-0.2,1.1
					c-0.1,0.5,0,0.9,0.4,1.3c0.3,0.4,0.9,0.6,1.5,0.8l7.7,1.4c1.4,0.2,2.4,0.8,3.2,1.5c0.8,0.8,1.2,1.7,1.2,2.8c0,0.2,0,0.4-0.1,0.8
					l-0.3,1.8c-0.3,1.8-1.2,3.3-2.7,4.3c-1.5,1-3.4,1.5-5.8,1.5h-4C1113.4,183.8,1111.6,183.2,1110.2,182.2z"/>
			</g>
			<g class="st2">
				<path d="M1018,234.4c0.3-1.6,0.8-3.1,1.6-4.4c0.8-1.3,2.1-2.5,3.7-3.5l12.7-7.9c0.8-0.5,1.4-1,1.9-1.7c0.5-0.7,0.8-1.3,0.9-2.1
					l0.3-1.5c0-0.2,0-0.4,0-0.7c0-1-0.3-1.7-1-2.3c-0.7-0.5-1.6-0.8-2.7-0.8h-4.2c-1.5,0-2.8,0.5-3.8,1.5c-1,1-1.7,2.4-2,4.2h-4.3
					c0.5-3,1.7-5.3,3.5-7c1.8-1.7,4-2.5,6.7-2.5h4.3c2.4,0,4.3,0.6,5.8,1.7c1.5,1.1,2.2,2.7,2.2,4.6c0,0.4,0,0.9-0.1,1.4l-0.3,1.5
					c-0.5,2.8-2.2,5-5,6.7l-12.3,7.5c-1.1,0.7-1.9,1.4-2.4,2.1c-0.5,0.7-0.9,1.7-1.1,2.8h17.8l-0.7,3.8h-22.1L1018,234.4z"/>
				<path d="M1047.7,236c-1.6-1.5-2.4-3.5-2.4-6.1c0-0.8,0.1-1.5,0.2-2.1l2-11.5c0.6-3.3,1.8-5.9,3.8-7.7c2-1.8,4.4-2.8,7.4-2.8h4.8
					c2.6,0,4.7,0.7,6.2,2.2c1.5,1.5,2.3,3.5,2.3,6c0,0.6-0.1,1.4-0.2,2.3l-2,11.5c-0.6,3.3-1.9,5.9-3.8,7.7s-4.3,2.8-7.2,2.8h-4.8
					C1051.4,238.3,1049.3,237.5,1047.7,236z M1058.8,234.4c1.7,0,3.1-0.6,4.3-1.8c1.2-1.2,2-2.8,2.3-4.8l2-11.5
					c0.1-0.6,0.1-1.2,0.1-1.7c0-1.5-0.4-2.8-1.2-3.6c-0.8-0.9-1.9-1.3-3.2-1.3h-4.6c-1.8,0-3.2,0.6-4.4,1.7c-1.2,1.2-2,2.8-2.4,4.9
					l-2,11.5c-0.1,0.8-0.2,1.3-0.2,1.7c0,1.5,0.4,2.7,1.2,3.6c0.8,0.9,1.9,1.3,3.3,1.3H1058.8z"/>
				<path d="M1073.4,234.4c0.3-1.6,0.8-3.1,1.6-4.4c0.8-1.3,2.1-2.5,3.7-3.5l12.7-7.9c0.8-0.5,1.4-1,1.9-1.7
					c0.5-0.7,0.8-1.3,0.9-2.1l0.3-1.5c0-0.2,0-0.4,0-0.7c0-1-0.3-1.7-1-2.3c-0.7-0.5-1.6-0.8-2.7-0.8h-4.2c-1.5,0-2.8,0.5-3.8,1.5
					c-1,1-1.7,2.4-2,4.2h-4.3c0.5-3,1.7-5.3,3.5-7c1.8-1.7,4-2.5,6.7-2.5h4.3c2.4,0,4.3,0.6,5.8,1.7c1.5,1.1,2.2,2.7,2.2,4.6
					c0,0.4,0,0.9-0.1,1.4l-0.3,1.5c-0.5,2.8-2.2,5-5,6.7l-12.3,7.5c-1.1,0.7-1.9,1.4-2.4,2.1c-0.5,0.7-0.9,1.7-1.1,2.8h17.8
					l-0.7,3.8h-22.1L1073.4,234.4z"/>
				<path d="M1109.8,210.8l-7.9,3.7l0.7-4l8.9-4.3h3.5l-5.6,31.8h-4.3L1109.8,210.8z"/>
			</g>
			<line class="st3" x1="1167.6" y1="132.9" x2="1114.6" y2="294.2"/>
		</g>
	</g>
</g>
</svg>
