<?xml version="1.0" encoding="UTF-8" standalone="no"?>
<!-- Created with Inkscape (http://www.inkscape.org/) -->

<svg
   xmlns:dc="http://purl.org/dc/elements/1.1/"
   xmlns:cc="http://creativecommons.org/ns#"
   xmlns:rdf="http://www.w3.org/1999/02/22-rdf-syntax-ns#"
   xmlns:svg="http://www.w3.org/2000/svg"
   xmlns="http://www.w3.org/2000/svg"
   xmlns:sodipodi="http://sodipodi.sourceforge.net/DTD/sodipodi-0.dtd"
   xmlns:inkscape="http://www.inkscape.org/namespaces/inkscape"
   width="54.567001mm"
   height="54.567001mm"
   viewBox="0 0 54.567001 54.567001"
   version="1.1"
   id="svg8"
   inkscape:version="0.92.4 (5da689c313, 2019-01-14)"
   sodipodi:docname="instagram.svg">
  <defs
     id="defs2">
    <clipPath
       clipPathUnits="userSpaceOnUse"
       id="clipPath2030">
      <path
         style="opacity:1;vector-effect:none;fill:#ff0000;fill-opacity:1;fill-rule:evenodd;stroke:#000000;stroke-width:0.15786593;stroke-linecap:butt;stroke-linejoin:miter;stroke-miterlimit:4;stroke-dasharray:none;stroke-dashoffset:0;stroke-opacity:1"
         d="m 11.998665,242.51196 c -0.152892,0.009 -0.293375,0.018 -0.422712,0.0305 -1.9218403,0.1855 -3.1968833,0.48992 -4.5211702,1.07952 -1.1778721,0.52441 -2.199132,1.18221 -3.0706142,1.97766 -1.9708229,1.79888 -3.19828392,4.07477 -3.66437593,6.79493 -0.128588,0.75045 -0.199123,1.30769 -0.240813,2.20038 v 30.46739 c 0.0025001,0.0346 0.004,0.0969 0.0067,0.12816 0.19582402,2.25698 0.58583001,3.75854 1.38803103,5.33973 1.303438,2.56915 3.5745499,4.56839 6.3215779,5.56555 1.264539,0.45902 2.7183064,0.71741 4.6462274,0.82527 h 29.70568 c 0.247505,-0.0136 0.476875,-0.0307 0.765845,-0.0537 1.80858,-0.1441 3.20903,-0.46384 4.55786,-1.03973 0.31224,-0.13331 0.925428,-0.44267 1.226281,-0.61908 2.33562,-1.3695 4.083809,-3.48312 5.025019,-6.07509 0.366361,-1.00894 0.602562,-2.10962 0.734322,-3.42098 0.01331,-0.13227 0.0222,-0.26253 0.0315,-0.39532 v -31.25494 c -0.17072,-2.12385 -0.62701,-3.78842 -1.482601,-5.39088 -0.651028,-1.21934 -1.394888,-2.15863 -2.48408,-3.13728 -0.827328,-0.74336 -1.940576,-1.45695 -2.977597,-1.90789 -1.186418,-0.5159 -2.388558,-0.82632 -3.921207,-1.01286 -0.385953,-0.047 -0.814573,-0.078 -1.384409,-0.10129 z"
         id="path2032"
         inkscape:connector-curvature="0" />
    </clipPath>
  </defs>
  <sodipodi:namedview
     id="base"
     pagecolor="#ffffff"
     bordercolor="#666666"
     borderopacity="1.0"
     inkscape:pageopacity="0.0"
     inkscape:pageshadow="2"
     inkscape:zoom="1.4074422"
     inkscape:cx="153.8902"
     inkscape:cy="122.93323"
     inkscape:document-units="mm"
     inkscape:current-layer="layer1"
     showgrid="false"
     inkscape:window-width="1920"
     inkscape:window-height="1017"
     inkscape:window-x="1912"
     inkscape:window-y="-8"
     inkscape:window-maximized="1" />
  <metadata
     id="metadata5">
    <rdf:RDF>
      <cc:Work
         rdf:about="">
        <dc:format>image/svg+xml</dc:format>
        <dc:type
           rdf:resource="http://purl.org/dc/dcmitype/StillImage" />
        <dc:title></dc:title>
      </cc:Work>
    </rdf:RDF>
  </metadata>
  <g
     inkscape:label="Capa 1"
     inkscape:groupmode="layer"
     id="layer1"
     transform="translate(0,-242.433)">
    <g
       id="g2051">
      <circle
         r="27.145267"
         cy="269.71649"
         cx="27.283501"
         id="path2045"
         style="opacity:0.98999999;vector-effect:none;fill:#36b9ff;fill-opacity:1;fill-rule:nonzero;stroke:none;stroke-width:0.27646491;stroke-linecap:butt;stroke-linejoin:miter;stroke-miterlimit:4;stroke-dasharray:none;stroke-dashoffset:0;stroke-opacity:1;paint-order:normal" />
      <path
         sodipodi:nodetypes="czcccccczzcccccccccc"
         inkscape:connector-curvature="0"
         id="path2047"
         d="m 11.835452,279.53704 c 2.598762,1.98328 7.288905,2.73768 9.257409,2.69188 1.968503,-0.046 5.022783,-0.25356 7.616028,-1.44444 7.549414,-3.75289 11.285938,-10.81191 10.931621,-17.39867 l 2.987323,-2.85602 -3.217115,0.62374 2.724696,-3.34843 -4.497394,1.57572 c 0,0 -1.073568,-2.3676 -5.055463,-2.16663 -3.981896,0.20099 -5.458599,3.60696 -5.679191,4.85853 -0.220594,1.25156 0.42676,2.79033 0.42676,2.79033 -7.538659,-0.14994 -10.1341,-2.77971 -13.869221,-6.66469 l -0.115378,1.64207 -0.46687,-0.46493 c -0.442234,4.37772 1.11725,6.28202 2.861644,7.49003 -0.882298,0.24599 -2.230774,-0.16476 -2.85436,-0.95199 -0.215946,3.37259 1.880003,5.22113 4.924153,6.43424 -0.8497,0.31836 -1.790176,0.32188 -2.724699,0.13138 0.879132,2.7872 2.950786,4.32547 5.876158,4.26762 -1.83252,1.75127 -4.60773,2.83958 -9.126099,2.79034 z"
         style="opacity:1;vector-effect:none;fill:#ffffff;fill-opacity:1;stroke:#ffffff;stroke-width:0.0987833;stroke-linecap:butt;stroke-linejoin:miter;stroke-miterlimit:4;stroke-dasharray:none;stroke-dashoffset:0;stroke-opacity:1" />
    </g>
  </g>
</svg>
