<?xml version="1.0" encoding="utf-8"?>
<!-- Generator: Adobe Illustrator 25.3.1, SVG Export Plug-In . SVG Version: 6.00 Build 0)  -->
<svg version="1.1" id="Capa_1" xmlns="http://www.w3.org/2000/svg" xmlns:xlink="http://www.w3.org/1999/xlink" x="0px" y="0px"
	 viewBox="0 0 1097 533" style="enable-background:new 0 0 1097 533;" xml:space="preserve">
<style type="text/css">
	.st0{fill:#FFD522;}
	.st1{fill:#E57D0C;}
	.st2{fill:#323130;}
	.st3{fill:#F6F4F4;}
	.st4{fill:#302B2B;}
	.st5{fill:#CBCFD1;}
	.st6{fill:#F4F79D;}
	.st7{opacity:0.41;fill:#FFD522;enable-background:new    ;}
	.st8{fill:#D5D4D2;}
	.st9{fill:#5B5355;}
	.st10{fill:#FAFCD0;}
	.st11{fill:#2C2928;}
	.st12{fill:#F7F793;}
	.st13{fill:#BAB4B4;}
	.st14{fill:#C5BEBF;}
	.st15{fill:#4C4446;}
	.st16{fill:#3E3638;}
	.st17{fill:#DADADA;}
	.st18{fill:#9D9D9D;}
	.st19{fill:#3A3638;}
	.st20{fill:#302D31;}
	.st21{fill:#E4E5E1;}
	.st22{fill:#FCFCFC;}
	.st23{fill:#DED1D3;}
	.st24{fill:#242221;}
	.st25{fill:#73716F;}
	.st26{fill:#666160;}
	.st27{fill:#231F1F;}
	.st28{fill:#6A6A6A;}
	.st29{fill:#080000;}
	.st30{fill:#D8CDD2;}
	.st31{fill:#8A8584;}
	.st32{fill:#635B5F;}
	.st33{fill:#968C90;}
	.st34{fill:#A6AAAD;}
	.st35{fill:#CAC1C4;}
	.st36{fill:#110D0D;}
	.st37{fill:#9A9494;}
	.st38{fill:#9B9494;}
	.st39{fill:#3F3A3C;}
	.st40{fill:#1E1519;}
	.st41{fill:#322D2F;}
	.st42{fill:#FEFBFE;}
	.st43{fill:#2C2423;}
	.st44{fill:#FBF1EA;}
	.st45{fill:#383733;}
	.st46{fill:#373330;}
	.st47{fill:#F0EFEF;}
	.st48{fill:#64585D;}
	.st49{fill:#8E8287;}
	.st50{fill:#675C60;}
	.st51{fill:#5B4E53;}
	.st52{fill:#746B6E;}
	.st53{fill:#221F20;}
	.st54{fill:#564E51;}
	.st55{fill:#12090D;}
	.st56{fill:#3B3336;}
	.st57{fill:#3C3537;}
	.st58{fill:#4C4749;}
	.st59{fill:#6B6765;}
	.st60{fill:#F7F1F3;}
	.st61{fill:#837475;}
	.st62{fill:#5C484F;}
	.st63{fill:#271E1C;}
	.st64{fill:#C7D6D6;}
	.st65{fill:#393E33;}
	.st66{fill:#443728;}
	.st67{fill:#1C0F0B;}
	.st68{fill:#1F1215;}
	.st69{fill:#2E2716;}
	.st70{fill:#180D0E;}
	.st71{fill:#6E636A;}
	.st72{fill:#070702;}
	.st73{fill:#3B3436;}
	.st74{fill:#483D42;}
	.st75{fill:#7A7675;}
	.st76{fill:#1E1918;}
	.st77{fill:#CAC9C7;}
	.st78{fill:#333331;}
	.st79{fill:#343331;}
	.st80{fill:#FAF8F5;}
	.st81{fill:#4A4445;}
	.st82{fill:#E6E0E0;}
	.st83{fill:#463B3D;}
	.st84{fill:#151010;}
	.st85{fill:#464442;}
	.st86{fill:#6C6F4C;}
	.st87{fill:#6E6867;}
	.st88{fill:#B2A2A5;}
	.st89{fill:#342D2D;}
	.st90{fill:#F3E7EB;}
	.st91{fill:#E6D5DC;}
	.st92{fill:#595154;}
	.st93{fill:#565656;}
	.st94{fill:#594A4D;}
	.st95{fill:#120B0D;}
	.st96{fill:#2B2727;}
	.st97{fill:#231B1C;}
	.st98{fill:#8E8686;}
	.st99{fill:#1C1A19;}
	.st100{fill:#9D9897;}
	.st101{fill:#B3ABAC;}
	.st102{fill:#766B6D;}
	.st103{fill:#7F7579;}
	.st104{fill:#6A5E60;}
	.st105{fill:#BFB6B6;}
	.st106{fill:#B5ADB0;}
	.st107{fill:#080003;}
	.st108{fill:#181313;}
	.st109{fill:#3E3F3C;}
	.st110{fill:#6F6969;}
	.st111{fill:#443D3C;}
	.st112{fill:#989291;}
	.st113{fill:#61595A;}
	.st114{fill:#897B7D;}
	.st115{fill:#221A1E;}
	.st116{fill:#D1C7CA;}
	.st117{fill:#625B5B;}
	.st118{fill:#DEDAD9;}
	.st119{fill:#5F5A5A;}
	.st120{fill:#BCB3B6;}
	.st121{fill:#C5BEC0;}
	.st122{fill:#1B1618;}
	.st123{fill:#3D3737;}
	.st124{fill:#797374;}
	.st125{fill:#574F52;}
	.st126{fill:#675F60;}
	.st127{fill:#7F6C63;}
	.st128{fill:#786862;}
	.st129{fill:#C6B9BD;}
	.st130{fill:#DAD0D4;}
	.st131{fill:#8D8487;}
	.st132{fill:#7F6D6A;}
	.st133{fill:#6E6C6A;}
	.st134{fill:#544347;}
	.st135{fill:#747273;}
	.st136{fill:#927D7F;}
	.st137{fill:#555052;}
	.st138{fill:#887673;}
	.st139{fill:#9B9997;}
	.st140{fill:#BC9795;}
	.st141{fill:#A28A84;}
	.st142{fill:#D0C9C7;}
	.st143{fill:#140F11;}
	.st144{fill:#4C4145;}
	.st145{fill:#BEB0A4;}
	.st146{fill:#CDB6AC;}
	.st147{fill:#181416;}
	.st148{fill:#453335;}
	.st149{fill:#595456;}
	.st150{fill:#282426;}
	.st151{fill:#3D3435;}
	.st152{fill:#C5A4A5;}
	.st153{fill:#443F3D;}
	.st154{fill:#3F2C31;}
	.st155{fill:#090507;}
	.st156{fill:#49393F;}
	.st157{fill:#403736;}
	.st158{fill:#E9C2C1;}
	.st159{fill:#D9D5D7;}
	.st160{fill:#958A90;}
	.st161{fill:#3B3236;}
	.st162{fill:#B0A2A8;}
	.st163{fill:#504549;}
	.st164{fill:#090003;}
	.st165{fill:#BFB3B8;}
	.st166{fill:#B1A1A7;}
	.st167{fill:#696366;}
	.st168{fill:#BEAEB4;}
	.st169{fill:#7E767A;}
	.st170{fill:#4A4243;}
	.st171{fill:#D4C3C8;}
	.st172{fill:#A8AAA3;}
	.st173{fill:#7B7173;}
	.st174{fill:#61545B;}
	.st175{fill:#D799A3;}
	.st176{fill:#BAA2A2;}
	.st177{fill:#BDADB3;}
	.st178{fill:#6A745F;}
	.st179{fill:#5E6E52;}
	.st180{fill:#42533D;}
	.st181{fill:#445134;}
	.st182{fill:#36432A;}
	.st183{fill:#5B4736;}
	.st184{fill:#433823;}
	.st185{fill:#D7B8BA;}
	.st186{fill:#595654;}
	.st187{fill:#F4EFEF;}
	.st188{fill:#11100F;}
	.st189{fill:#4B3F41;}
	.st190{fill:#BBAEB0;}
	.st191{fill:#615359;}
	.st192{fill:#3A3233;}
	.st193{fill:#82797A;}
	.st194{fill:#B7B1B0;}
	.st195{fill:#393333;}
	.st196{fill:#605758;}
	.st197{fill:#C7BFBF;}
	.st198{fill:#231D1E;}
	.st199{fill:#D9D0D0;}
	.st200{fill:#130B0C;}
	.st201{fill:#948B8C;}
	.st202{fill:#D4C8CA;}
	.st203{fill:#FEF6FB;}
	.st204{fill:#E2D8D6;}
	.st205{fill:#11080A;}
	.st206{fill:#514648;}
	.st207{fill:#1A1212;}
	.st208{fill:#C6B4B5;}
	.st209{fill:#5E5D5A;}
	.st210{fill:#464241;}
	.st211{fill:#9C8F91;}
	.st212{fill:#958A8C;}
	.st213{fill:#726467;}
	.st214{fill:#FEF9FD;}
	.st215{fill:#433E3D;}
	.st216{fill:#8B7C7F;}
	.st217{fill:#FEF9FC;}
	.st218{fill:#CAB0AE;}
	.st219{fill:#D0B8B3;}
	.st220{fill:#3F2D23;}
	.st221{fill:#635A5C;}
	.st222{fill:#3A3133;}
	.st223{fill:#0D0A0A;}
	.st224{fill:#6E6646;}
	.st225{fill:#4D3C2B;}
	.st226{fill:#D4B3B7;}
	.st227{fill:#967D7C;}
	.st228{fill:#4E4428;}
	.st229{fill:#756955;}
	.st230{fill:#726A4D;}
	.st231{fill:#362F18;}
	.st232{fill:#3A2D18;}
	.st233{fill:#7D7375;}
	.st234{fill:#CCBEC6;}
	.st235{fill:#161713;}
	.st236{fill:#2B2024;}
	.st237{fill:#FAFCCB;}
	.st238{fill:#64605F;}
	.st239{fill:#F0EEEC;}
	.st240{fill:#F8F2F1;}
	.st241{fill:#655959;}
	.st242{fill:#504446;}
	.st243{fill:#170E10;}
	.st244{fill:#4C3E41;}
	.st245{fill:#8D8082;}
	.st246{fill:#3A3031;}
	.st247{fill:#1A1113;}
	.st248{fill:#87797D;}
	.st249{fill:#1D1214;}
	.st250{fill:#DAC7C8;}
	.st251{fill:#0D0505;}
	.st252{fill:#F5F5F5;}
	.st253{fill:none;stroke:#000000;stroke-miterlimit:10;}
	.st254{fill:none;stroke:#000000;stroke-miterlimit:10;stroke-dasharray:5.63,5.63;}
	.st255{fill:none;stroke:#000000;stroke-miterlimit:10;stroke-dasharray:8.08,8.08;}
	.st256{fill:none;stroke:#000000;stroke-miterlimit:10;stroke-dasharray:6.61,6.61;}
	.st257{fill:none;stroke:#000000;stroke-miterlimit:10;stroke-dasharray:8.02,8.02;}
	.st258{fill:none;stroke:#000000;stroke-miterlimit:10;stroke-dasharray:7.83,7.83;}
	.st259{fill:none;stroke:#000000;stroke-miterlimit:10;stroke-dasharray:7.66,7.66;}
	.st260{fill:none;stroke:#000000;stroke-miterlimit:10;stroke-dasharray:7.63,7.63;}
	.st261{fill:none;stroke:#000000;stroke-miterlimit:10;stroke-dasharray:7.79,7.79;}
	.st262{fill:none;stroke:#000000;stroke-miterlimit:10;stroke-dasharray:8;}
	.st263{fill:none;stroke:#000000;stroke-miterlimit:10;stroke-dasharray:6;}
	.st264{fill:none;}
	.st265{fill:#FF931E;}
	.st266{fill:#999999;}
</style>
<path class="st0" d="M536.6,364.7c7,8,3.3,15.5-1,23c-8,2.3-16,6.7-23.9,6.3c-16.6-0.7-33-3.8-49.6-5.9l-2.3-0.1l-2.4-0.3l0.2,0.2
	L437,370.1l4.9-10.3l1.9-8.5l0.1-0.4l6,2.4c3.2,2.4,6.7,7,9.7,6.8c9.4-0.8,16,3.7,23.2,8.2c5.1,3.1,10.6,5.7,16.4,7.5
	c10.3,3.4,27.8-1.7,31.7-8.7L536.6,364.7z"/>
<path class="st0" d="M449.8,353.2l-6-2.4c-0.1-1.4-0.2-2.7-0.3-4.1l9.4-13.9l6.7,2.7c9.3,13.2,39.1,9,52.8-1.5
	c6.5,7.1,13.2,14,19.3,21.2c2.2,2.6,3.3,6.2,4.8,9.4l-5.8,2.3c-2.6,0-5.4-0.4-7.9,0.2c-13,3.5-26.4,5.2-36.8-4.8
	C475.3,352.2,462.7,353.3,449.8,353.2z"/>
<path class="st1" d="M384.2,259.1c2.4-5.2,4.9-10.4,7.3-15.6l12.9-7c9.6-1.7,2.5-9.6,5.2-13.8l3.1-0.1c1.3,1.6,2.7,3.3,4,5h3.5
	l3.2,2.2l0.1,11.8c0,1.4-0.1,2.8-0.1,4.2c0.8,1.5,1.5,3,2.3,4.5l2.5,6.5c-0.5,0.5-1.3,0.6-2,0.3l-7.3,2.5L416,264h-2.4
	c-0.7,0.1-1.5,0.2-2.2,0.2c-0.6-0.4-1.4-0.5-2.1-0.2l-4.2,2.6l2,2.1l-0.2-0.1l-0.1,2.4c-0.7-0.1-1.4-0.1-2.1-0.1H402l-1.8,2.3l-11,0
	L384.2,259.1z"/>
<path class="st1" d="M522.1,409.6c0.9,3.2,1.6,6.4,2.7,9.5c5.5,15.7,0.5,23.5-16.1,24.8c-2.1,0.2-4.3,0.1-6.4,0.4
	c-12.7,1.7-14.1,0.4-15.4-12.6c-0.3-3.3-1.8-6.5-2.7-9.7c0.5-0.6,0.7-1.3,0.7-2.1l2-2.6l-1.8-2c0-0.9,0-1.9,0.1-2.8
	c1.5,0.1,8.2,3.7,18.2,2.3C514.9,411.4,511.3,410.7,522.1,409.6z"/>
<path class="st2" d="M387.9,341.9c-2.2-3.1-3.7-7.2-6.7-9c-11.9-7.2-14.1-14.3-6.4-24l20,12.1l7.1,0.3c1.6,3.1,3.1,6.2,4.7,9.4
	l5.1,6.6l13.4,20.9c0.9,4.5,1.8,8.9,2.6,13.4l-0.1,0.2l-6.8-2.5l-7-11.1l-6.9-5.3l-2.2-1.8l-2.3-2.4l-2.3-4.5h-6.7l-2.6,0.1
	L387.9,341.9z"/>
<path class="st3" d="M512.4,334.1c-13.8,10.5-43.5,14.7-52.9,1.5c0.1-1.1,0.3-2.1,0.4-3.2l1.1,0.3l1.1-0.2l6.4-2.1
	c0.4-0.5,0.5-1.2,0.3-1.9c-0.1-1.1-0.2-2.2-0.3-3.4c0.1-0.6,0.2-1.2,0.3-1.7c0.8,0.1,1.5,0.3,2.2,0.4l31.7-0.4L512.4,334.1z"/>
<path class="st4" d="M469,401.5l-9.6-11.1l0.7-0.5l2.1-1.8c16.5,2.1,33,5.3,49.6,5.9c7.9,0.3,15.9-4.1,23.9-6.3
	c0.9,10.3-9.1,12.4-13.9,18.4c-1.9-1.5-3.7-4.3-5.7-4.3c-15-0.4-30.1-0.3-45.2-0.4C470.3,401.4,469.6,401.4,469,401.5z"/>
<path class="st5" d="M427.9,371.5c-0.9-4.5-1.8-8.9-2.6-13.4l2.7-30.1l8.9,0.1c2.3,6.2,4.5,12.4,6.7,18.6c0.1,1.4,0.2,2.7,0.3,4.1
	l-0.1,0.4l-1.9,8.5l-4.8,10.3l-4,1.7L427.9,371.5z"/>
<path class="st6" d="M470.9,401.4c15.1,0.1,30.1,0,45.2,0.4c1.9,0,3.8,2.8,5.7,4.3c0.1,1.2,0.2,2.4,0.4,3.5
	c-14.3,9.6-25.8,7.5-31.5,5.3c-1.5-0.8-4-3.7-5.5-4.4l-6.9-2.2l-2.7,0.3c-0.6-0.2-1.1-0.4-1.7-0.5l-2.2-1.9
	c-0.1-0.9-0.2-1.7-0.3-2.5C471.5,402.9,471.3,402.1,470.9,401.4z"/>
<path class="st1" d="M402,321.3l-7.1-0.3l-5.8-30.7c-2.4-4.2-4.7-8.4-7-12.6c-3.7-6.7-5.9-13.2,2.1-18.5l5,14c2.4,5,5.4,9.8,7.1,15
	c2.5,7.9,4.1,16.2,6.1,24.3C402.3,315.4,402.1,318.3,402,321.3z"/>
<path class="st1" d="M382.1,277.7c2.3,4.2,4.7,8.4,7,12.6c0.7,7.6,1.4,15.2,2.2,24.6c-12.4-5.7-13.5-14.5-14.1-23.7L382.1,277.7z"/>
<path class="st1" d="M404.4,236.6l-12.9,7c-5.8-12.1-4.7-19.5,3.9-25.5l2.7,1.8l6.6,0.7l-0.1,0.1
	C404.6,225.9,404.5,231.3,404.4,236.6z"/>
<path class="st7" d="M336.9,233.1c-0.5-4.6-0.9-8.5-1.4-13l8.4-4.1l9.7,12.7l3.6-4.5l-7.4,13.4L336.9,233.1z"/>
<path class="st8" d="M407,352.9l6.9,5.3l-11,4.4l-14,2.8l-2.4-9.9l2.5-2h8.9L407,352.9z"/>
<path class="st9" d="M502.8,323.4l-31.7,0.4l0.1-0.3l3-0.3l5.7-3.7l2.8-0.5l2.2-2.2c0.6-1,1.2-2,1.8-3h2.8l4.5-1.3L502.8,323.4z"/>
<path class="st1" d="M377.2,291.2c0.5,9.2,1.7,18.1,14.1,23.7c-0.8-9.4-1.5-17-2.2-24.6l5.8,30.7l-20-12.1L377.2,291.2z"/>
<path class="st10" d="M215.5,286.5c-3.9-4.8-8.1-7.8-8.6-11.3c-0.3-2.4,4.8-5.4,7.4-8.1c2.4,3.3,5.7,6.3,6.8,9.9
	C221.7,278.9,218.3,282,215.5,286.5z"/>
<path class="st5" d="M403,362.5l11-4.4l7,11.1c-0.1,1.3-0.1,2.6-0.2,3.9l-2.5,1c-0.6,0-1.1,0.1-1.7,0.2L414,374
	C405.8,374.4,402.1,370.6,403,362.5z"/>
<path class="st11" d="M433,371.8l4-1.7l20.7,17.7h-1.1l-1.1,0l-4.8,2l-2.3,0.1c-3.7-3-7.7-5.8-10.9-9.3
	C435.4,378.3,434.5,374.8,433,371.8z"/>
<path class="st12" d="M767.1,341.8c-1,5-1.9,9.9-2.8,14.3l-11.1-2.8C753.5,340.2,755.5,338.6,767.1,341.8z"/>
<path class="st1" d="M842.8,163.9c1.5,3.8,2.9,7.1,4.3,10.5l-6,8.7C828.4,177,828.5,175,842.8,163.9z"/>
<path class="st7" d="M534.5,118.5l12.6,11.9l-13.3,6.4l-2.3-16.1L534.5,118.5z"/>
<path class="st7" d="M767.1,341.8c-11.6-3.2-13.5-1.6-13.9,11.5c-0.5-0.5-1.4-0.9-1.5-1.5c-1.1-4-2-7.9-2.9-11.9l16.4-8.5
	C765.8,334.9,766.5,338.3,767.1,341.8z"/>
<path class="st13" d="M475.5,408.5l2.7-0.3l7.2,4l-0.1,0.4c0,0.9-0.1,1.9-0.1,2.8c-0.4,0.6-0.5,1.3-0.3,2l-7.1,2.5
	c-0.6,0.1-1.2,0.2-1.9,0.1l-0.4-5.9V408.5z"/>
<path class="st14" d="M487.5,308.8l-0.2,0.1c0,1.1,0,2.3,0,3.4l0.2-0.1l-4.6,0.6l-2.4-0.4l-6.9-2.4l-0.1-2.4l2.3-2.3l9.4,1.7
	L487.5,308.8z"/>
<path class="st15" d="M485.2,306.9l-9.4-1.7l0.1,0.2l-0.1-2.4l4.6-2.4c0.7,0,1.3-0.1,1.9-0.3l2.5,0.4l2.1-1.6
	c0.3-0.4,0.5-0.8,0.6-1.3l-0.1,7.5L485.2,306.9z"/>
<path class="st1" d="M416.6,227.6c-1.3-1.7-2.7-3.3-4-5l-3.4-2.2l-4.6,0.2l0.1-0.1c0-0.8,0-1.6,0.1-2.4l4.2-2.5l4.7,0.2l2.6,4.5
	l0.3,4.3L416.6,227.6z"/>
<path class="st16" d="M476,261.7l-0.2,7c-0.5,0.2-1,0.2-1.6,0.1l-2.6-2.3l-2.6-0.1h-2.3l-4.8-2.5c0.2-0.6,0.2-1.2,0.1-1.8l2.3-0.5
	l6.5,2.2L476,261.7z"/>
<path class="st17" d="M592.6,405.8c0.7,1.7,1.4,3.4,2.1,5.1l-3.4,2.1l-3.3-8.6L592.6,405.8z"/>
<path class="st18" d="M681.2,351.3c-1.7,1.5-3.5,3-5.2,4.4h-2.6l6.7-9c0.7-0.2,1.5-0.2,2.3,0c-0.1,1.4-0.1,2.7-0.2,4.1
	c-0.4,0.3-0.8,0.6-1.2,0.8L681.2,351.3z"/>
<path class="st19" d="M476,261.7l-5.2,2.1c-0.1-2.2-0.2-4.4-0.3-6.6l3.1-0.1L476,261.7z"/>
<path class="st20" d="M477.8,420l7.1-2.5l2.1,0l-2,2.6c-0.5-0.5-1.3-0.5-1.9,0c0,0-0.1,0.1-0.1,0.2l-2.2,2.2L477.8,420z"/>
<path class="st21" d="M387.9,341.9l2.9,2.4c0.1,0.8,0.2,1.5,0.1,2.3l0.2-0.2l-2.2,2.4l-4.6-2.9c0-0.8,0.2-1.5,0.4-2.2L387.9,341.9z"
	/>
<path class="st22" d="M585.9,400.5l4.6-3.2c0,1.3,0,2.5,0,3.8c-0.7,0.3-1.4,0.4-2.2,0.5L585.9,400.5z"/>
<path class="st23" d="M420.7,373.2c0.1-1.3,0.1-2.6,0.2-3.9l6.8,2.5L420.7,373.2z"/>
<path class="st24" d="M480.6,293.7l4.2,0.4c-0.7,1.3-1.4,2.7-2.1,4c-0.7,0.1-1.4,0.2-2.1,0.3l-2.4-0.1l2.3-4.7L480.6,293.7z"/>
<path class="st25" d="M482.7,298.1c0.7-1.4,1.4-2.7,2.1-4l2.8,3.6c-0.1,0.5-0.3,1-0.6,1.3l-2.1,1.6l-2.5-0.4L482.7,298.1z"/>
<path class="st26" d="M479.9,282.5c-0.5,2.4-1.1,4.8-1.6,7.2l-0.4-1l-2.1-1.8l0.4-2.6l2.2-1.9l0.7,0.1L479.9,282.5z"/>
<path class="st27" d="M474.2,268.7c0.5,0.1,1.1,0.1,1.6-0.1c-0.8,2.3-1.5,4.5-2.3,6.8c-0.7,0.1-1.5,0.1-2.2,0l-0.4-2.7L474.2,268.7z
	"/>
<path class="st28" d="M588.3,401.6c0.7,0,1.5-0.2,2.2-0.5l2.1,4.7l-4.6-1.4l-0.4-0.4C587.8,403.2,588,402.4,588.3,401.6z"/>
<path class="st29" d="M473.3,278.1c0.2,0.6,0.4,1.2,0.6,1.7l-0.5,2.5l0.2-0.1l-4.7,0.2c0-0.8,0.1-1.6,0.1-2.4l2.4-2.2l-0.1,0.2h1
	L473.3,278.1z"/>
<path class="st30" d="M494,312.5l-4.5,1.3c0-0.5,0-0.9,0.2-1.4c0.4-0.9,0.7-1.9,1.1-2.8L494,312.5z"/>
<path class="st31" d="M473.4,282.3l0.5-2.5l6,2.7h-0.7l-0.7-0.1l-2.5-0.1L473.4,282.3z"/>
<path class="st32" d="M473.7,257.1l-3.1,0.1l-1,0.1c-0.2-0.8-0.4-1.6-0.6-2.5c0-0.8,0-1.6,0-2.4l-0.1,0.1l2.6,0.4l1.9,1.8
	C473.5,255.5,473.6,256.3,473.7,257.1z"/>
<path class="st33" d="M471.6,250.2l2-4.4c0.2,1.8,0.4,3.6,0.6,5.4L471.6,250.2z"/>
<path class="st1" d="M398.1,219.9l-2.7-1.8h5L398.1,219.9z"/>
<path class="st1" d="M398.1,219.9l2.3-1.8l4.4,0.1c0,0.8,0,1.6-0.1,2.4L398.1,219.9z"/>
<path class="st34" d="M413.7,215.9l-4.7-0.2l1-2.1c0.5,0,1,0,1.5,0.1l2.5-0.2L413.7,215.9z"/>
<path class="st34" d="M411.4,213.7c-0.5,0-1-0.1-1.5-0.1c0.6-2,1.2-3.9,1.9-5.8l-0.3,0.6l0.5,0.4C411.9,210.4,411.6,212,411.4,213.7
	z"/>
<path class="st35" d="M471.6,250.2l2.6,1c0.1,0.5-0.1,0.9-0.5,1.2c-0.7,0.1-1.4,0.3-2.1,0.6l-2.6-0.4c0.1-0.7,0.1-1.4-0.2-2.1
	L471.6,250.2z"/>
<path class="st36" d="M478.4,291.2c0.7,0.8,1.5,1.7,2.2,2.5h-0.1l-4.6,0.2c0.2-0.7,0.2-1.4,0.1-2.2L478.4,291.2z"/>
<path class="st37" d="M478.4,291.2l-2.5,0.5c0-0.8,0-1.6,0-2.4c0.7,0,1.5-0.2,2.1-0.6l0.4,1C478.2,290.2,478.3,290.7,478.4,291.2z"
	/>
<path class="st38" d="M473.3,278.1h-1h-1c0-0.9,0-1.8-0.1-2.6c0.7,0.1,1.5,0.1,2.2,0C473.4,276.3,473.3,277.2,473.3,278.1z"/>
<path class="st39" d="M485.2,306.9l2.3-1.6c0,1.1,0,2.3,0,3.4L485.2,306.9z"/>
<path class="st40" d="M490.8,309.7c-0.4,0.9-0.7,1.9-1.1,2.8l-2.4-0.3c0-1.1,0-2.3,0-3.4L490.8,309.7z"/>
<path class="st41" d="M471.5,253c0.7-0.3,1.4-0.4,2.1-0.6c-0.1,0.8-0.2,1.6-0.3,2.3L471.5,253z"/>
<path class="st17" d="M588.3,401.6c-0.2,0.8-0.5,1.6-0.7,2.4c-0.5-1.1-1.1-2.3-1.7-3.5L588.3,401.6z"/>
<path class="st13" d="M480.8,422.4l2.2-2.2c0.1,0.7,0.4,1.4,0.8,2.1L480.8,422.4z"/>
<path class="st42" d="M483.7,422.2c-0.4-0.6-0.6-1.3-0.8-2.1c0.4-0.6,1.3-0.7,1.8-0.3c0.1,0,0.1,0.1,0.2,0.1c0,0.8-0.3,1.5-0.7,2.1
	L483.7,422.2z"/>
<path class="st34" d="M416.3,208.1c0.9,2.6,1.9,5.3,2.8,7.9l-0.6-0.2c-0.7,0.3-1.4,0.4-2.1,0.1c-0.2-0.6-0.3-1.2-0.4-1.8
	c-0.5-1-1-1.9-1.5-2.9l-0.6-2.2L416.3,208.1z"/>
<path class="st34" d="M413.9,209c0.2,0.7,0.4,1.5,0.6,2.2l-0.6,2.5l0.1-0.2l-2.5,0.2c0.2-1.6,0.4-3.3,0.6-4.9
	C412.7,208.5,413.4,208.5,413.9,209z"/>
<path class="st43" d="M449.8,353.2c12.8,0.1,25.5-1.1,36.2,9.2c10.5,10,23.8,8.3,36.8,4.8c2.5-0.7,5.3-0.2,7.9-0.2
	c-3.9,7-21.4,12-31.7,8.7c-5.7-1.8-11.2-4.4-16.4-7.5c-7.2-4.5-13.9-9-23.2-8.2C456.5,360.3,453.1,355.6,449.8,353.2z"/>
<path class="st44" d="M441.8,359.8l1.9-8.5L441.8,359.8z"/>
<path class="st45" d="M459.3,390.4l-1.9-2.8l2.4,0.4c0,0.6,0.1,1.3,0.2,1.9L459.3,390.4z"/>
<path class="st46" d="M460,389.9c-0.1-0.6-0.2-1.3-0.2-1.9l2.3,0.1L460,389.9z"/>
<path class="st47" d="M460,332.4c-0.1,1.1-0.3,2.1-0.4,3.2l-6.7-2.7l-16-14l0.1,0.1c0.1-0.7,0-1.5-0.1-2.2l-2.3-2.4
	c-0.1-0.7-0.1-1.5-0.1-2.2s0.1-1.5,0.2-2.2l-0.2-2.3l-1.8-2.4c-0.1-0.7-0.3-1.5-0.6-2.1l-4.1-2.6l-0.6-2.6c0-1.3,0-2.6,0-3.9
	l-1.7-2.5c-0.1-0.7-0.3-1.4-0.5-2.1l-1.6-2.5l-4.8-4.1l-2.1-3l-0.2-4.1c-0.1-0.9-0.2-1.7-0.3-2.5l-1.9-2.4c-0.1-0.7-0.3-1.4-0.6-2.1
	V264h2.4l5.2,6.3l4.1,0.2l4.8,0.6c-0.1,0.7-0.2,1.4-0.3,2.1l-2.1,2.3c0,3.1,0,6.2,0,9.3h4.5l2.4-2.3l9.2-0.5l2.6,2.5l-0.6,2.3
	l-3.9,0.5l-3.5,1.4l7.4,5.2l4.9-0.4c0.4,0.4,1,0.7,1.6,0.7l0.5,4l-2.8,4.4l-4.2,0.7l-1.5,0.6l1.8,1.3l0.3,2.3l-1.3,1.6l3.2,0.8
	l2.3,0.5v3.9c0.8,1.5,1.7,3.1,2.5,4.6l4.4,2.4l-0.2,0.4l3.4,2.3l-0.5,6.4C459.9,331,459.8,331.7,460,332.4z"/>
<path class="st0" d="M436.9,318.9l16,14l-9.4,13.9c-2.2-6.2-4.5-12.4-6.7-18.6C436.8,325.1,436.9,322,436.9,318.9z"/>
<path class="st48" d="M439.1,250.7l4.7,2.3c0,0.6,0,1.2,0,1.8v2.7c0.1,0.4,0.1,0.8,0.1,1.2l-4.6-1.2l-0.2-0.9l-4.5-1.8
	c-0.5,0.1-1.1,0.3-1.6,0.4l-0.8-0.5c0.4-0.6,0.4-1.4,0.2-2.1l2.1-2.1l2.6-0.2v-0.3L439.1,250.7z"/>
<path class="st34" d="M434.9,233.9c0.6,3.3,1.1,6.5,1.7,9.7c-0.7,1.4-1.4,2.8-2.1,4.1c-0.7,0.1-1.4,0.2-2.1,0.3c0-0.8,0-1.5,0-2.3
	v-9.1L434.9,233.9z"/>
<path class="st34" d="M434.9,233.9l-2.6,2.7h0.1c-0.1-0.9-0.1-1.8-0.2-2.8l-2-8.8l0.1-2.6C431.7,226.3,433.3,230.1,434.9,233.9z"/>
<path class="st34" d="M419,216l4-0.1c-0.1,0.7,0.1,1.5,0.6,2.1l1.8,7.1c-0.7,0-1.4,0-2.1-0.1l-0.5,0.2l-2.2-4.6l-2.2-4.8L419,216z"
	/>
<path class="st49" d="M448.2,252.9l2.5,1.3l-0.1,3c0,0.8,0,1.5,0,2.3c0.1,0.5,0.1,1,0.2,1.5l-2.5-1.7c0-0.7,0-1.5,0-2.2
	c0-0.8,0-1.5,0-2.3C448.4,254.2,448.3,253.6,448.2,252.9z"/>
<path class="st50" d="M459.8,254.7l2.4-1.8c0,0.7,0,1.3-0.1,2c0.1,0.7,0.1,1.3,0,2c0.1,0.7,0.1,1.5,0.2,2.2l-4.8,0.3l0.1,0.1
	c0-0.6-0.1-1.3-0.3-1.9l0.5-0.9L459.8,254.7z"/>
<path class="st51" d="M450.6,257.2l0.1-3l6.9,0.9c0,0.5,0,1,0.1,1.5l-0.5,0.9L450.6,257.2z"/>
<path class="st52" d="M464.4,252.2l2.5-1.6c-0.1,0.7-0.1,1.3-0.1,2v2.4l-2.5,1.9c0.1-0.7,0.2-1.4,0.2-2.1L464.4,252.2z"/>
<path class="st34" d="M430.1,222.5l-0.1,2.6h0.1l-2.5-6.7c0.2-0.4,0.5-0.7,0.7-1.1L430.1,222.5z"/>
<path class="st34" d="M434.4,247.7c0.7-1.4,1.4-2.8,2.1-4.1c0,1.5,0,3,0,4.4C435.8,248,435.1,247.9,434.4,247.7z"/>
<path class="st53" d="M434.4,247.7c0.7,0.2,1.4,0.3,2.1,0.3c0.3,0.7,0.4,1.4,0.5,2.2l-2.6,0.2c-0.7-0.1-1.4-0.2-2.1-0.2l0-2.3
	l-0.1,0.1C433,248,433.7,247.9,434.4,247.7z"/>
<path class="st54" d="M448.2,252.9c0.1,0.6,0.2,1.3,0.2,1.9h-4.6c0-0.6,0-1.2,0-1.8L448.2,252.9z"/>
<path class="st55" d="M457.8,256.7c-0.1-0.5-0.2-1-0.1-1.5c0.7-0.3,1.4-0.5,2.1-0.5L457.8,256.7z"/>
<path class="st56" d="M464.4,252.2c0,0.9,0,1.7,0,2.6c-0.8,0-1.5,0.1-2.3,0.2c0.1-0.7,0.1-1.3,0.1-2
	C462.9,252.5,463.6,252.3,464.4,252.2z"/>
<path class="st57" d="M466.7,252.6c0-0.7,0-1.3,0.1-2c0.6-0.3,1.2-0.3,1.9-0.1c0.3,0.7,0.3,1.4,0.2,2.1l0.1-0.1L466.7,252.6z"/>
<path class="st58" d="M439.1,250.7l-2.1-0.8C437.7,250.1,438.4,250.4,439.1,250.7z"/>
<path class="st34" d="M426.1,215.6l2.2,1.7c-0.2,0.4-0.4,0.7-0.7,1.1l-2.5-0.2L426.1,215.6z"/>
<path class="st34" d="M426.1,215.6l-0.9,2.6c-0.5-0.2-1-0.3-1.5-0.2c-0.5-0.6-0.7-1.3-0.6-2.1L426.1,215.6z"/>
<path class="st1" d="M402.4,312.4c-2-8.1-3.6-16.4-6.1-24.3c-1.7-5.2-4.7-10-7.1-15l11,0c0,1.6,0.1,3.2,0.1,4.7l6.6,23
	c-1.4,3-2.9,6-4.3,9L402.4,312.4z"/>
<path class="st1" d="M404.6,220.6l4.6-0.2l0.3,2.3c-2.7,4.3,4.4,12.1-5.2,13.8C404.5,231.3,404.6,225.9,404.6,220.6z"/>
<path class="st34" d="M423.3,241.6l-0.1-11.8v-0.1h4.1l0.8,4.4c0.5,1.6,1,3.3,1.5,4.9l0.1,6.4c-0.6,0.2-1.3,0.3-1.9,0.4L423.3,241.6
	z"/>
<path class="st59" d="M421.2,270.3L416,264l2.6-4.5l1.8,4.4l2.4-0.3l2.9,2.8c-0.2,0.5-0.2,1.1-0.1,1.6l-0.4,1L421.2,270.3z"/>
<path class="st60" d="M425.9,257.1c0.7,0.3,1.5,0.2,2-0.3c0.7-0.1,1.4,0,1.9,0.5c0.8,1.5,1.5,3.1,2.3,4.6c0,0.7-0.1,1.3-0.3,1.9
	c-0.7,0.1-1.4,0.3-2,0.6l-4.5-3.4c0.3-0.6,0.2-1.2-0.2-1.7L425.9,257.1z"/>
<path class="st61" d="M413.6,264v4.7c-0.6-0.1-1.2-0.1-1.8-0.2H407l0.2,0.1l-2-2.1l4.2-2.6l0.9,1.7l1.2-1.4
	C412.2,264.2,412.9,264.2,413.6,264z"/>
<path class="st62" d="M429.9,257.3c-0.5-0.4-1.2-0.6-1.9-0.5l-2.5-6.5h-0.1l2.7-0.4l1,0.2h1v2.5l2.1,2.2l0.8,0.5L429.9,257.3z"/>
<path class="st63" d="M425.9,257.1l-0.8,2.3l-2,2.4l-2.7,2.2l-1.8-4.4L425.9,257.1z"/>
<path class="st64" d="M400.2,277.9c0-1.6-0.1-3.2-0.1-4.7l1.8-2.3c0.3,0.7,0.6,1.5,0.9,2.2c-0.2,0.7-0.2,1.3-0.1,2L400.2,277.9z"/>
<path class="st34" d="M425.5,250.3c-0.8-1.5-1.5-3-2.3-4.5l-0.1-0.1l2.4,2.3c0,0.8-0.1,1.6-0.1,2.3L425.5,250.3z"/>
<path class="st34" d="M423.3,241.6l4.5,4.2h0.1l-2.7,0.2c-0.7-0.1-1.4-0.2-2.1-0.3l0.1,0.1C423.2,244.3,423.3,242.9,423.3,241.6z"/>
<path class="st1" d="M416.6,227.6c0-0.9,0.1-1.9,0.1-2.8c0.7,0.1,1.3,0.2,2,0.3h1.1l1.1,0.1l-0.8,2.5L416.6,227.6z"/>
<path class="st1" d="M420,227.5l0.8-2.5c0.7,0,1.3,0.1,2,0.2l0.5-0.2c0,1.6-0.1,3.1-0.1,4.7v0.1L420,227.5z"/>
<path class="st1" d="M409.5,222.7l-0.3-2.3l3.4,2.2L409.5,222.7z"/>
<path class="st5" d="M404.9,270.8c0.7,0,1.4,0.1,2.1,0.1l0.3-0.2l-0.1,2.5c-0.7,0-1.5-0.1-2.2-0.1
	C404.9,272.4,404.9,271.6,404.9,270.8z"/>
<path class="st65" d="M404.9,270.8c0,0.8,0.1,1.5,0.1,2.3c-0.7,0-1.4,0-2.1-0.1c-0.3-0.7-0.6-1.5-0.9-2.2L404.9,270.8z"/>
<path class="st66" d="M407,268.6h2.3c0.1,0.8,0.1,1.5,0.1,2.3c-0.7,0.1-1.5,0-2.2-0.1l-0.3,0.2L407,268.6z"/>
<path class="st67" d="M405.1,266.6l2,2.1L405.1,266.6z"/>
<path class="st68" d="M411.4,264.2l-1.2,1.4l-0.9-1.7C410,263.7,410.8,263.8,411.4,264.2z"/>
<path class="st69" d="M485,410.5l4.6,2.3l-4.4-0.2l0.1-0.4C485.5,411.7,485.4,411,485,410.5z"/>
<path class="st70" d="M486.9,417.5l-2.1,0c-0.2-0.7-0.1-1.4,0.3-2L486.9,417.5z"/>
<path class="st71" d="M475.5,408.5v5.7l-3.7-3.9l2-2.4C474.4,408.2,474.9,408.4,475.5,408.5z"/>
<path class="st72" d="M450.7,389.9l4.8-2L450.7,389.9z"/>
<path class="st73" d="M473.8,408l-2,2.4c-0.1-1.4-0.2-2.8-0.2-4.2L473.8,408z"/>
<path class="st74" d="M470.9,401.4c0.5,0.6,0.6,1.4,0.4,2.2l-2.2-2.1C469.6,401.4,470.2,401.4,470.9,401.4z"/>
<path class="st75" d="M384.3,345.9l4.6,2.9c0.6-0.1,1.2-0.2,1.8-0.2l-1.8,2.5l-4.3,0.2L384.3,345.9z"/>
<path class="st76" d="M384.5,351.3l4.3-0.2l0.3,2.3l-2.5,2L384.5,351.3z"/>
<path class="st34" d="M400.2,277.9l2.6-2.9c0.6,0.4,1.3,0.5,2,0.5l0.8,2.2l4.4,6.8v2.3l5.7,6.5l0.8,2.7c0.7,2.2,1.5,4.5,2.2,6.7
	c3.1,8.4,6.2,16.9,9.2,25.3l-2.7,30.1l-13.4-20.9l-0.1,0.2l2-16l-1.7-5l-0.8-6.4l-4-2.9c0-0.6,0-1.2-0.1-1.8l-0.3-4.6
	C404.6,293.2,402.4,285.5,400.2,277.9z"/>
<path class="st1" d="M402.4,312.4l0.1-2.6c0.8,0,1.5,0,2.3,0h2.2l0.1-0.1v4.7c0,1.5,0,3-0.1,4.6c-0.3,0.2-0.9,0.5-0.8,0.6
	c0.2,0.6,0.5,1.1,0.9,1.6c0,0.8,0,1.5,0,2.3c-0.2,0.3-0.4,0.7-0.5,1l0.5-1c0.8,0,1.5,0,2.3,0l0.1-0.1l-0.1,4.7l-2.7,2.5
	c-1.6-3.1-3.2-6.2-4.7-9.4C402.1,318.3,402.3,315.4,402.4,312.4z"/>
<path class="st77" d="M389.1,353.4l-0.3-2.3l1.8-2.5c0.2-0.7,0.3-1.5,0.5-2.2l-0.2,0.2l2.5-2.3h6.7c-0.7,3-1.5,6.1-2.2,9.1
	L389.1,353.4z"/>
<path class="st78" d="M398,353.4c0.7-3,1.5-6.1,2.2-9.1l2.3,4.5l2.3,2.4l2.2,1.8L398,353.4z"/>
<path class="st1" d="M406.7,330.6l2.7-2.5l1.8,0.1c0.2,3.1,0.4,6.1,0.5,9.2l0.1-0.2L406.7,330.6z"/>
<path class="st79" d="M393.5,344.2l-2.5,2.3c0.1-0.8,0-1.5-0.1-2.3L393.5,344.2z"/>
<path class="st80" d="M404.8,351.1l-2.3-2.4L404.8,351.1z"/>
<path class="st81" d="M460.3,330.4l0.5-6.4l8.3-2.1c0,0.5,0,1-0.1,1.5c-0.1,0.6-0.2,1.1-0.3,1.7c-0.6,1.1-1.2,2.2-1.8,3.3l1.8,1.9
	l-6.4,2.1L460.3,330.4z"/>
<path class="st82" d="M466.8,328.4c0.6-1.1,1.2-2.2,1.8-3.3c0.1,1.1,0.2,2.2,0.3,3.4C468.2,328.1,467.5,328.1,466.8,328.4z"/>
<path class="st83" d="M468.9,323.4c0.1-0.5,0.1-1,0.1-1.5l2.2-0.8v2.3l-0.1,0.3L468.9,323.4z"/>
<path class="st84" d="M466.8,328.4c0.7-0.3,1.4-0.3,2.1,0c0.2,0.6,0.1,1.3-0.3,1.9L466.8,328.4z"/>
<path class="st85" d="M460.3,330.4l1.9,2l-1.1,0.2l-1.1-0.3C459.8,331.7,459.9,331,460.3,330.4z"/>
<path class="st5" d="M427.9,328.1c-3.1-8.4-6.1-16.9-9.2-25.3c1.4-0.7,2.7-1.3,4.1-2l2.6,2.4l-0.1-0.1c-0.1,0.7,0.1,1.5,0.4,2.1
	l4.2,2.8c0,0.6,0.1,1.3,0.2,1.9l4.4,2.2c0,0.7,0,1.5,0.1,2.2s0,1.8,0,2.6l2.4,2l-0.1-0.1c0,3.1-0.1,6.2-0.1,9.3L427.9,328.1z"/>
<path class="st86" d="M485,410.5c0.4,0.5,0.5,1.2,0.3,1.8l-7.2-4L485,410.5z"/>
<path class="st87" d="M471.2,323.5v-2.3l-2.5-4.1l0.5-0.8l0.8,0.3l0.9-0.1l2.7,0.3l2.3,2.6c-0.1,0.6-0.1,1.1,0.1,1.7
	c-0.6,0.7-1.2,1.5-1.8,2.2L471.2,323.5z"/>
<path class="st88" d="M474.2,323.1c0.6-0.7,1.2-1.5,1.8-2.2l2.1-2.1L478,319c0.6,0.2,1.3,0.4,2,0.5L474.2,323.1z"/>
<path class="st89" d="M480,319.5c-0.7-0.1-1.4-0.2-2-0.5c0.2-0.7,0.1-1.5-0.1-2.2l2.2-2.8c0.2-0.6,0.4-1.2,0.5-1.9l-0.1,0.1l2.4,0.4
	c0,0.4,0,0.8-0.1,1.2v2.9c0.1,0.8,0.1,1.5,0,2.3L480,319.5z"/>
<path class="st90" d="M487.3,312.2l2.4,0.3c-0.2,0.4-0.2,0.9-0.2,1.4h-2.8l0.2,0.2c-0.3-0.7-0.1-1.6,0.6-2L487.3,312.2z"/>
<path class="st91" d="M486.7,313.8c-0.6,1-1.2,2-1.8,3l0,0l-0.1-2.4l1-0.4l1,0.1L486.7,313.8z"/>
<path class="st92" d="M482.7,319c0.1-0.8,0.1-1.5,0-2.3c0.7,0,1.5,0,2.2,0l0,0L482.7,319z"/>
<path class="st93" d="M682.1,350.9c0.1-1.4,0.1-2.7,0.2-4.1l2.1,4.7L682.1,350.9z"/>
<path class="st0" d="M681.2,351.3l-0.3,0.3L681.2,351.3z"/>
<path class="st94" d="M473.6,309.8l6.9,2.4l0.1-0.1l-13.9-0.2l2.4-2L473.6,309.8L473.6,309.8z"/>
<path class="st95" d="M486.9,314.1l-1-0.1l-1,0.4c-0.7-0.2-1.4-0.3-2.1-0.5c0.1-0.4,0.1-0.8,0.1-1.2l4.6-0.6
	C486.9,312.5,486.6,313.3,486.9,314.1z"/>
<path class="st96" d="M475.8,305.2l-2.3,2.3l0.2,0.2c0-0.8-0.1-1.6-0.2-2.4l2.4,0.1L475.8,305.2z"/>
<path class="st97" d="M473.6,309.8h-2.3c0-0.8,0-1.5,0-2.3l2.4,0.1l-0.2-0.2C473.5,308.2,473.5,309,473.6,309.8z"/>
<path class="st98" d="M480.4,300.5l-4.6,2.5l0.1,0.1c0.7-0.9,1.4-1.8,2.2-2.7l2.5,0.3L480.4,300.5z"/>
<path class="st99" d="M484.9,300.7l2.1-1.6L484.9,300.7z"/>
<path class="st100" d="M475.9,305.4l-2.4-0.1l0.1,0.1l2.3-2.3l-0.1-0.1L475.9,305.4z"/>
<path class="st101" d="M482.7,298.1l-0.4,2.1c-0.6,0.2-1.3,0.3-1.9,0.3l0.1,0.1c-0.3-0.7-0.3-1.5,0-2.2
	C481.3,298.4,482,298.3,482.7,298.1z"/>
<path class="st34" d="M416,214.1c0.1,0.6,0.2,1.2,0.4,1.8c0,1.6-0.1,3.1-0.1,4.7l0.2-0.1l-2.6-4.5l0.3-2.4l-0.1,0.2
	C414.6,213.9,415.3,214,416,214.1z"/>
<path class="st34" d="M418.7,225c-0.7-0.1-1.3-0.2-2-0.3c-0.1-1.4-0.2-2.9-0.3-4.3l-0.2,0.1l1.1,0.1l1.1-0.1
	C418.5,222,418.6,223.5,418.7,225z"/>
<path class="st102" d="M461.9,263.8l4.8,2.5h-9.2l-2.4-0.1c0.1-0.7,0.1-1.4,0.1-2.1c0-0.8,0-1.6,0-2.4s0-1.4,0-2.1l2.4-0.1l-0.1-0.1
	l0.3,3L461.9,263.8z"/>
<path class="st103" d="M469.6,257.3l1-0.1c0.1,2.2,0.2,4.4,0.3,6.6l-6.5-2.2c0.2-0.6,0.2-1.3,0-2L469.6,257.3z"/>
<path class="st104" d="M457.5,266.3H469c0,0.8,0,1.6,0,2.5l0.1-0.1h-4.8l-6.8-0.1C457.5,267.8,457.5,267,457.5,266.3z"/>
<path class="st105" d="M474.2,268.7l-3.4,4.1c-0.7,0.1-1.4,0.1-2-0.1c0-0.6,0-1.2,0.1-1.8c0-0.7,0.1-1.5,0.2-2.2l-0.1,0.1l2.6-2.4
	L474.2,268.7z"/>
<path class="st106" d="M464.3,259.6c0.2,0.6,0.2,1.3,0,2L462,262l-4.2,0.4l-0.3-3l4.8-0.3L464.3,259.6z"/>
<path class="st107" d="M457.8,262.4l4.2-0.4c0.1,0.6,0.1,1.2,0,1.7L457.8,262.4z"/>
<path class="st108" d="M471.6,266.4l-2.6,2.4c0-0.8,0-1.6,0-2.5L471.6,266.4z"/>
<path class="st109" d="M391.1,346.4c-0.2,0.7-0.3,1.5-0.5,2.2c-0.6,0.1-1.2,0.1-1.8,0.2L391.1,346.4z"/>
<path class="st110" d="M475.8,293.9l4.6-0.2l-2.3,4.7l0-0.1l-2.5-0.1c0.2-0.7,0.3-1.4,0.2-2.1l0.1-2.4L475.8,293.9z"/>
<path class="st15" d="M480.6,298.5c-0.3,0.7-0.3,1.5,0,2.2l-2.5-0.3l0.1-2.1l0,0.1L480.6,298.5z"/>
<path class="st111" d="M473.4,282.3h2.6c-0.1,0.7,0,1.3,0.2,1.9c-0.1,0.9-0.2,1.7-0.4,2.6v0.1c-0.7,0.1-1.4,0.1-2.1,0
	c-0.1-1.6-0.1-3.1-0.2-4.7L473.4,282.3z"/>
<path class="st36" d="M477.9,288.7c-0.6,0.4-1.3,0.6-2.1,0.6c0-0.8,0-1.6,0-2.4v-0.1L477.9,288.7z"/>
<path class="st112" d="M476.2,284.2c-0.2-0.6-0.3-1.3-0.2-1.9l2.5,0.1L476.2,284.2z"/>
<path class="st113" d="M468.9,272.6c0.6,0.2,1.3,0.2,2,0.1l0.4,2.7c0,0.9,0,1.8,0.1,2.6c0,0,0.1-0.2,0.1-0.2l-2.8-0.2l-4.1-1.9
	c0.8-0.9,1.6-1.9,2.4-2.8l1,0.1L468.9,272.6z"/>
<path class="st114" d="M473.6,282.2c0.1,1.6,0.1,3.1,0.2,4.7l-0.8,0.3l-4.1-0.3c0.2-0.7,0.2-1.5,0.1-2.2l0.1-2.5l-0.2,0.2
	L473.6,282.2z"/>
<path class="st114" d="M469,280.1c0,0.8-0.1,1.6-0.1,2.4l0.2-0.2h-2.4L469,280.1L469,280.1z"/>
<path class="st114" d="M468.6,277.6l2.8,0.2l-2.4,2.2l0,0l-0.1-2.5L468.6,277.6z"/>
<path class="st115" d="M464.3,259.6l-2-0.5c-0.1-0.7-0.1-1.5-0.2-2.2l1,0.1l1-0.2l2.6-1.8l2.3-0.1c0.2,0.8,0.4,1.6,0.6,2.5
	L464.3,259.6z"/>
<path class="st116" d="M469,254.8l-2.3,0.1v-2.4l2.3-0.2C469,253.2,469,254,469,254.8z"/>
<path class="st117" d="M475.8,286.9c0,0.8,0,1.6,0,2.4s0,1.6,0,2.4c0.1,0.7,0.1,1.5-0.1,2.2l0.1-0.1l-2.3,0.1c0.1-0.8,0.1-1.5,0-2.3
	V289c0-0.6-0.2-1.3-0.6-1.8l0.8-0.3C474.5,287,475.2,287,475.8,286.9z"/>
<path class="st34" d="M418.4,220.5l-1.1,0.1l-1.1-0.1l0.1-4.7c0.7,0.3,1.4,0.3,2.1-0.1l2.2,4.8C419.9,220.5,419.1,220.5,418.4,220.5
	z"/>
<path class="st34" d="M416,214.1c-0.7-0.1-1.3-0.2-2-0.4c0.2-0.8,0.4-1.7,0.6-2.5L416,214.1z"/>
<path class="st118" d="M450.6,314.2v-3.9c0.8-1.7,1.7-3.3,2.5-5l4.4-2.2c1.7,1.5,3.4,2.9,5,4.4c-0.1,0.7-0.3,1.4-0.5,2.1l-4.4,2.7
	c-0.7-0.1-1.5,0.1-2.1,0.5l-3,1.3C451.8,314.2,451.2,314.2,450.6,314.2z"/>
<path class="st82" d="M468.8,317l2.5,4.1l-2.2,0.8l-8.3,2.1l-3.4-2.3L468.8,317z"/>
<path class="st119" d="M468.8,317l-11.4,4.7l0.2-0.4l-4.4-2.4c-0.8-1.5-1.7-3.1-2.5-4.6c0.6,0,1.2-0.1,1.8-0.1l2.9,0.3l4.8-0.4
	l9.1,0.6c-0.2,0.5-0.2,1.1,0.1,1.6L468.8,317z"/>
<path class="st120" d="M445.9,293.9l-7.4-5.2l3.5-1.4l6.5,1.6h4.4l2.4,0.4c0,0.7,0,1.5-0.1,2.2l-4.4,0.4L445.9,293.9z"/>
<path class="st121" d="M432.3,284.8h-4.5l6.4-7.3l2.7,0.4l2,2l-4.5,0.5C433.7,281.8,433,283.3,432.3,284.8z"/>
<path class="st122" d="M434.2,277.4l-6.4,7.3c0-3.1,0-6.2,0-9.3l6.8,0.4C434.4,276.3,434.3,276.9,434.2,277.4z"/>
<path class="st123" d="M446.5,284.5l-2.6-2.5c0-0.5,0.1-0.9,0.2-1.4h10.8c0.1,0.6,0.2,1.2,0.4,1.8l-6.7,2.3
	C447.9,284.4,447.2,284.4,446.5,284.5z"/>
<path class="st124" d="M457.5,303.2l-4.4,2.2l-0.8-0.5c0.2-0.6-0.2-1.3-0.8-1.5c-0.1,0-0.2,0-0.3-0.1c-0.4-0.3-0.8-0.5-1.1-0.8
	l2.8-4.4l4.7,2.5C457.5,301.5,457.5,302.4,457.5,303.2z"/>
<path class="st125" d="M457.5,300.7l-4.7-2.5l-0.5-4l2.9-0.4l2.1,2.6c0.1,1.4,0.2,2.8,0.3,4.1L457.5,300.7z"/>
<path class="st126" d="M444.1,280.5c-0.1,0.5-0.2,0.9-0.2,1.4l-9.2,0.5c0-0.7-0.1-1.4-0.2-2.1l4.5-0.5L444.1,280.5z"/>
<path class="st127" d="M429.9,308l-4.2-2.9l1.1,0.1h1.1h2.4h2.4l1.8,2.4c-0.7-0.1-1.5-0.1-2.2,0L429.9,308z"/>
<path class="st128" d="M407.3,270.8c0.7,0.1,1.5,0.1,2.2,0.1h2.4h2.3l2,2.4c-0.7-0.1-1.4-0.1-2.1,0h-2.4h-2.3
	c-0.7,0.1-1.5,0.1-2.2-0.1l0.2,0.2L407.3,270.8z"/>
<path class="st129" d="M429.8,273.2c0.1-0.7,0.2-1.4,0.3-2.1l-0.4-0.8l7.2,0.1l2.4,0.4c0,0.7-0.1,1.5-0.4,2.2l-4,0.2L429.8,273.2z"
	/>
<path class="st130" d="M429.8,273.2l5.1,0l-0.4,2.6l-6.8-0.4L429.8,273.2z"/>
<path class="st131" d="M446.4,307.5l-0.3-2.3c0-0.6-0.1-1.3-0.2-1.9l4.2-0.7c0.4,0.2,0.8,0.5,1.1,0.8c-0.4,0.6-0.6,1.3-0.6,1.9
	l0.1-0.1l-1.9,2.1l-0.9,0.5C447.4,307.5,446.9,307.4,446.4,307.5z"/>
<path class="st132" d="M427.9,300.5l4.1,2.6c-0.7-0.1-1.4-0.1-2.1-0.1c-0.8,0-1.5,0-2.3,0l-2.4,0.1l0.1,0.1l0.2-2.6L427.9,300.5z"/>
<path class="st133" d="M453.1,305.4c-0.8,1.7-1.7,3.3-2.5,5l-2.3-0.5c0.2-0.7,0.1-1.5-0.4-2.2l0.9-0.5l1.9-2.1l-0.1,0.1
	c0.6,0,1.2-0.2,1.7-0.4L453.1,305.4z"/>
<path class="st134" d="M418.7,282.9l4.8,4.1l-2.9,0l-2-2.1C419,284.2,419,283.5,418.7,282.9z"/>
<path class="st135" d="M446.5,284.5c0.7-0.1,1.4,0,2.1,0.1l4.6,0.5c0,0.6-0.1,1.2-0.2,1.9h-4.5l-2.5-0.1L446.5,284.5z"/>
<path class="st136" d="M420.6,286.9l2.9,0l1.7,2.5c-0.7-0.2-1.4-0.2-2.1-0.2c-0.8,0.1-1.5,0.1-2.3,0l-2.1,0.4
	c0.1-1.1,0.3-2.1,0.4-3.2C419.6,286.6,420.1,286.7,420.6,286.9z"/>
<path class="st137" d="M445.9,286.8l2.5,0.1c-0.1,0.7,0,1.3,0.1,2l-6.5-1.6L445.9,286.8z"/>
<path class="st138" d="M425.6,291.5l1.7,2.5c-0.5-0.1-1.1-0.2-1.6-0.1l-3.1,0.1c-0.7,0-1.3,0-2-0.1l0.1,0.2c0-0.9,0.1-1.7,0.2-2.6
	l1.1,0.2l1.1,0L425.6,291.5z"/>
<path class="st139" d="M453.1,318.9l4.4,2.4L453.1,318.9z"/>
<path class="st140" d="M434.6,316.9c0-0.9,0-1.8,0-2.6l2.3,2.4L434.6,316.9z"/>
<path class="st141" d="M434.5,312.1l-4.4-2.2h2.3h1.1l1.1,0.1C434.6,310.6,434.6,311.4,434.5,312.1z"/>
<path class="st142" d="M447.9,307.7c0.4,0.6,0.6,1.4,0.4,2.2l-3.2-0.8l1.3-1.6C446.9,307.4,447.4,307.5,447.9,307.7z"/>
<path class="st143" d="M421.2,270.3l4.1-1.2c0.1,0.5,0.1,0.9,0.1,1.4L421.2,270.3z"/>
<path class="st144" d="M425.3,270.5c0.1-0.5,0.1-1-0.1-1.4l0.4-1l4.4,0.7c-0.1,0.5-0.2,1-0.3,1.5l0.4,0.8L425.3,270.5z"/>
<path class="st145" d="M416.4,275.8l0.2,4.1l-0.7,0.5c-0.6-0.3-1.3-0.4-2-0.2c0-0.7-0.1-1.4-0.3-2.1l0.3-2.6l-0.1,0.1L416.4,275.8z"
	/>
<path class="st146" d="M418.7,282.9c0.3,0.6,0.3,1.4-0.2,1.9l0.1-0.1c-0.7-0.2-1.5-0.2-2.2,0c-0.1-0.7-0.3-1.4-0.5-2.1
	c0.3-0.7,0.2-1.5-0.1-2.2l0.7-0.5L418.7,282.9z"/>
<path class="st147" d="M434.5,280.3c0.1,0.7,0.2,1.4,0.2,2.1l-2.4,2.3C433,283.3,433.7,281.8,434.5,280.3z"/>
<path class="st148" d="M425.8,293.9c0.5-0.1,1.1,0,1.6,0.1c0,1.3,0,2.6,0,3.9l-2,0.4l0.1,0.1C425.6,296.9,425.7,295.4,425.8,293.9z"
	/>
<path class="st149" d="M445.9,293.9l4.9-2c-0.1,0.5-0.1,1.1-0.1,1.6L445.9,293.9z"/>
<path class="st150" d="M450.8,293.5c0-0.5,0-1.1,0.1-1.6l4.4-0.4l-0.3,0.3c0.2,0.7,0.3,1.4,0.5,2.1l-0.1-0.1l-2.9,0.4
	C451.8,294.2,451.2,294,450.8,293.5z"/>
<path class="st151" d="M425.6,291.5h-2.5c0-0.8-0.1-1.5-0.1-2.3c0.7,0,1.4,0,2.1,0.2C425.4,290.1,425.5,290.8,425.6,291.5z"/>
<path class="st152" d="M425.4,298.3l2-0.4l0.6,2.6l-2.3,0C425.5,299.8,425.5,299,425.4,298.3z"/>
<path class="st153" d="M416.4,275.8l-2.5-0.3c0-0.8,0-1.5,0-2.3c0.7,0,1.4,0,2.1,0L416.4,275.8z"/>
<path class="st154" d="M429.9,303c0.7,0,1.4,0,2.1,0.1c0.3,0.7,0.5,1.4,0.6,2.1h-2.4C430.1,304.5,430,303.7,429.9,303z"/>
<path class="st155" d="M445.8,303.3c0.2,0.6,0.3,1.3,0.2,1.9l-1.8-1.3L445.8,303.3z"/>
<path class="st156" d="M414.2,270.9h-2.3c0-0.8,0-1.5,0-2.3c0.6,0,1.2,0.1,1.8,0.2C413.9,269.4,414.1,270.1,414.2,270.9z"/>
<path class="st157" d="M434.7,309.9l-1.1-0.1h-1.1c-0.1-0.8-0.1-1.5-0.1-2.3c0.7-0.1,1.5,0,2.2,0
	C434.5,308.4,434.6,309.1,434.7,309.9z"/>
<path class="st158" d="M434.6,316.9l2.3-0.2c0.1,0.7,0.1,1.5,0.1,2.2L434.6,316.9z"/>
<path class="st159" d="M455.2,261.7v2.4l-6.6,0.5l-4.9,1.6c-1.7-2.1-3.5-4.3-5.2-6.5c0.3-0.7,0.5-1.4,0.7-2.2l4.6,1.2l4.5,0.6
	l2.5,1.7L455.2,261.7z"/>
<path class="st160" d="M439.3,257.5c-0.2,0.7-0.4,1.5-0.7,2.2c-0.5,0-1.1-0.1-1.6-0.3h-2.5l-2.3,2.5c-0.8-1.5-1.5-3.1-2.3-4.6l3-2
	c0.5-0.1,1.1-0.2,1.6-0.4l4.5,1.8L439.3,257.5z"/>
<path class="st161" d="M439,256.7l-4.5-1.8L439,256.7z"/>
<path class="st162" d="M443.8,254.8h4.6c0,0.8,0,1.5,0,2.3l-4.6,0.4L443.8,254.8z"/>
<path class="st163" d="M443.7,257.5l4.6-0.4c0,0.8,0,1.5,0,2.2l-4.5-0.6C443.9,258.3,443.8,257.9,443.7,257.5z"/>
<path class="st164" d="M432.1,254.7l-2.1-2.2l2.4-0.1l-0.1,0.1C432.5,253.3,432.5,254,432.1,254.7z"/>
<path class="st165" d="M432.3,250.2c0.7,0,1.4,0.1,2.1,0.2l-2.1,2.1l0.1-0.1C432.3,251.7,432.3,251,432.3,250.2z"/>
<path class="st34" d="M429.7,245.4l-0.1-6.4l2.7-2.4h-0.1c0,3.1,0,6.1,0,9.1L429.7,245.4z"/>
<path class="st34" d="M429.7,245.4l2.6,0.3c0,0.8,0,1.5,0,2.3l0.1-0.1l-2.6,0.4c-0.6-0.3-1.3-0.5-2.1-0.6c0.1-0.7,0.1-1.4,0.1-2
	h-0.1C428.4,245.7,429,245.6,429.7,245.4z"/>
<path class="st34" d="M430,225.1l2,8.8c-0.6,0.1-1.2,0.3-1.8,0.3c-0.1-2.3-0.3-4.6-0.4-6.8C429.9,226.6,430,225.8,430,225.1
	L430,225.1z"/>
<path class="st34" d="M430.2,234.2c0.6-0.1,1.2-0.2,1.8-0.3c0.1,0.9,0.1,1.8,0.2,2.8l-2.7,2.4l-1.5-4.9
	C428.8,234.2,429.5,234.2,430.2,234.2z"/>
<path class="st34" d="M430.1,225.1c-0.1,0.8-0.2,1.6-0.3,2.3c-0.7,0-1.4-0.1-2.1,0c-0.8-0.8-1.5-1.5-2.3-2.3l-1.8-7.1
	c0.5-0.1,1,0,1.5,0.2l2.5,0.2C428.4,220.6,429.3,222.8,430.1,225.1z"/>
<path class="st34" d="M418.4,220.5c0.8,0,1.5,0,2.3,0.1l2.2,4.6c-0.7-0.1-1.3-0.2-2-0.2l-1.1-0.1h-1.1
	C418.6,223.5,418.5,222,418.4,220.5z"/>
<path class="st34" d="M425.4,225.1c0.8,0.8,1.5,1.5,2.3,2.3l-0.4,2.3h-4.1c0-1.6,0.1-3.1,0.1-4.7C424,225,424.7,225.1,425.4,225.1z"
	/>
<path class="st166" d="M457.6,259.5l-2.4,0.1l-4.5-0.1c0-0.8,0-1.5,0-2.3l6.6,0.3C457.5,258.2,457.6,258.8,457.6,259.5z"/>
<path class="st167" d="M450.7,259.5l4.5,0.1c0,0.7,0,1.4,0,2.1l-4.4-0.6C450.8,260.5,450.7,260,450.7,259.5z"/>
<path class="st168" d="M464.2,256.8l-1,0.2l-1-0.1c0.1-0.7,0.1-1.3,0-2c0.8-0.1,1.5-0.1,2.3-0.2
	C464.4,255.5,464.4,256.1,464.2,256.8z"/>
<path class="st169" d="M429.8,248.3l2.6-0.4c0,0.8,0,1.6,0,2.3c-0.1,0.7,0,1.5,0.1,2.2l-2.4,0.1V250
	C429.9,249.4,429.9,248.9,429.8,248.3z"/>
<path class="st1" d="M404.8,309.8c-0.8,0-1.5,0-2.3,0c1.4-3,2.8-6,4.3-9c0.1,1.5,0.2,3,0.3,4.6C406.3,306.9,405.6,308.4,404.8,309.8
	z"/>
<path class="st34" d="M427.3,229.7l0.4-2.3c0.7,0,1.4,0,2.1,0l0.4,6.8c-0.7,0-1.4-0.1-2.1-0.2C427.8,232.6,427.6,231.1,427.3,229.7z
	"/>
<path class="st170" d="M425.4,261l4.5,3.4c0,0.5,0.1,1.1,0.1,1.6l-4.3,0.4l-2.9-2.8l0.6,0.3l1.9-1.8
	C425.4,261.8,425.4,261.4,425.4,261z"/>
<path class="st171" d="M425.7,266.5l4.3-0.4v2.8l-4.4-0.7C425.5,267.6,425.6,267,425.7,266.5z"/>
<path class="st172" d="M420.5,264l2.7-2.2l-0.1-0.2c0.1,0.8,0.2,1.6,0.4,2.4l-0.6-0.3L420.5,264z"/>
<path class="st173" d="M430,268.9v-2.8c-0.1-0.5-0.1-1.1-0.1-1.6c0.6-0.3,1.3-0.5,2-0.6l1,0.4l1.6,1.6l2.5,4.6l-7.2-0.1
	C429.9,269.8,430,269.4,430,268.9z"/>
<path class="st174" d="M432.2,261.9l2.3-2.5l0.3,4.4l-0.7,0.7c-0.3-0.3-0.7-0.4-1.1-0.2l-1-0.4C432.1,263.2,432.2,262.5,432.2,261.9
	z"/>
<path class="st175" d="M423.1,261.8l2-2.4c0.4,0.5,0.5,1.1,0.2,1.7c0.1,0.4,0.1,0.8,0,1.1l-2.3-0.6L423.1,261.8z"/>
<path class="st176" d="M411.8,268.6c0,0.8,0,1.5,0,2.3h-2.4c0-0.8-0.1-1.5-0.1-2.3L411.8,268.6z"/>
<path class="st34" d="M427.9,245.7c0,0.7,0,1.4-0.1,2s0.2,1.4,0.3,2.1l-2.7,0.4l0.1-2.3c0-0.7-0.1-1.4-0.3-2L427.9,245.7z"/>
<path class="st177" d="M428.1,249.9c-0.1-0.7-0.2-1.4-0.3-2.1c0.7,0,1.4,0.2,2.1,0.6c0,0.6,0.1,1.1,0.2,1.7h-1L428.1,249.9z"/>
<path class="st178" d="M404.7,275.5c-0.7,0-1.4-0.1-2-0.5c-0.1-0.7-0.1-1.3,0.1-2c0.7,0.1,1.4,0.1,2.1,0.1c0.7,0,1.5,0,2.2,0.1
	l-0.2-0.2l-0.3,2.5C406.1,275.5,405.4,275.5,404.7,275.5z"/>
<path class="st34" d="M425.1,245.9c0.2,0.6,0.4,1.3,0.3,2l-2.5-2.3C423.7,245.8,424.4,245.9,425.1,245.9z"/>
<path class="st1" d="M411.7,337.4c-0.2-3.1-0.4-6.1-0.5-9.2l0.2-4.3l2.3-2.5L411.7,337.4z"/>
<path class="st5" d="M422.8,300.8c-1.4,0.7-2.7,1.4-4.1,2c-0.7-2.2-1.5-4.5-2.2-6.7l2.2-2.4l1,0.4l1.1-0.1l-0.1-0.2
	c0.8,1.6,1.6,3.1,2.5,4.7l-0.2-0.1L422.8,300.8z"/>
<path class="st179" d="M415.6,293.3l-5.7-6.5c0.6,0,1.2,0.1,1.8,0.1l2.4,0.1l-0.2-0.2l2.5,4.8l-0.2-0.2
	C415.8,292,415.6,292.7,415.6,293.3z"/>
<path class="st180" d="M410,284.5l-4.4-6.8c0.4,0,0.9,0,1.3,0.1l2.6,0.1l-0.2-0.2c0.8,1.6,1.6,3.2,2.5,4.8l-0.2-0.2l-0.5,2.3
	L410,284.5z"/>
<path class="st1" d="M413.7,321.5l-2.3,2.5c-0.6-0.2-1.2-0.4-1.9-0.5l-0.1,0.1c0.1-1.6,0.3-3.2,0.4-4.8l2.1-2.3L413.7,321.5z"/>
<path class="st1" d="M412,316.5l-2.1,2.3l-0.9-4.3l0.2-4.6c0.7,0.1,1.4,0.2,2.1,0.2L412,316.5z"/>
<path class="st1" d="M411.2,310.1c-0.7,0-1.4-0.1-2.1-0.2c-0.7,0.1-1.3,0.1-2-0.1l-0.1,0.1c0.1-0.9,0.1-1.8,0.2-2.7L411.2,310.1z"/>
<path class="st1" d="M407.2,307.2c0,0.9-0.1,1.8-0.2,2.7h-2.2c0.8-1.5,1.5-3,2.3-4.5C407.2,306,407.2,306.6,407.2,307.2z"/>
<path class="st5" d="M415.6,293.3c0-0.7,0.2-1.3,0.6-1.9l2.4,0.1c0,0.7,0.1,1.4,0.1,2l-2.2,2.4C416.1,295.1,415.9,294.2,415.6,293.3
	z"/>
<path class="st181" d="M410,284.5l1.1,0.1c0.2,0.8,0.4,1.5,0.6,2.3c-0.6-0.1-1.2-0.1-1.8-0.1L410,284.5z"/>
<path class="st182" d="M406.8,277.8c-0.4-0.1-0.9-0.1-1.3-0.1c-0.3-0.7-0.5-1.5-0.8-2.2c0.7,0,1.4,0.1,2,0.1
	C407.1,276.3,407.1,277.1,406.8,277.8z"/>
<path class="st1" d="M409,314.5l0.9,4.3c-0.1,1.6-0.3,3.2-0.4,4.8c-0.8,0-1.5,0-2.3,0l0,0c0-0.8,0-1.5,0-2.3s0-1.5,0-2.2
	c0-1.5,0-3,0.1-4.6h0.7L409,314.5z"/>
<path class="st1" d="M409.5,323.5c0.6,0.1,1.3,0.3,1.9,0.5l-0.2,4.3l-1.8-0.1L409.5,323.5z"/>
<path class="st1" d="M409,314.5h-0.9h-0.9v-4.7c0.7,0.2,1.3,0.2,2,0.1L409,314.5z"/>
<path class="st1" d="M407.1,319c0,0.8,0,1.5,0,2.2c-0.3-0.5-0.6-1.1-0.9-1.6C406.2,319.6,406.8,319.3,407.1,319z"/>
<path class="st1" d="M407.2,323.5l-0.5,1C406.8,324.2,407,323.9,407.2,323.5L407.2,323.5z"/>
<path class="st183" d="M422.8,300.8c0.1-0.8,0.1-1.5,0.2-2.3h2.5l-0.1-0.1c0.1,0.8,0.2,1.5,0.2,2.3l-0.2,2.6L422.8,300.8z"/>
<path class="st184" d="M425.2,303l2.4-0.1c0,0.8,0.1,1.5,0.1,2.3h-1.1l-1.1-0.1C425.3,304.5,425.2,303.7,425.2,303z"/>
<path class="st185" d="M432.3,307.5c0,0.8,0.1,1.5,0.1,2.3h-2.3c-0.1-0.6-0.2-1.2-0.2-1.9L432.3,307.5z"/>
<path class="st186" d="M480.1,314l-2.2,2.8h-4.3l-2.7-0.3c0.1-0.5,0.2-1.1,0.1-1.7L480.1,314z"/>
<path class="st187" d="M473.7,316.8h4.3c0.2,0.7,0.2,1.5,0.1,2.2l0.1-0.2c-0.8,0-1.5,0.2-2.2,0.5L473.7,316.8z"/>
<path class="st188" d="M471,314.8c0.1,0.6,0,1.1-0.1,1.7l-0.9,0.1l-0.8-0.3c-0.3-0.5-0.3-1.1-0.1-1.6l1-0.1L471,314.8z"/>
<path class="st189" d="M476,319.3c0.7-0.3,1.4-0.5,2.2-0.5L476,321C475.9,320.4,475.9,319.9,476,319.3z"/>
<path class="st190" d="M471,314.8l-0.9-0.2l-1,0.1l-9.1-0.6l2.2-2.1l4.4-0.1l13.9,0.2c-0.1,0.6-0.2,1.3-0.5,1.9L471,314.8z"/>
<path class="st191" d="M482.8,313.9c0.7,0.1,1.4,0.3,2.1,0.5l0.1,2.4c-0.8,0-1.5,0-2.2,0L482.8,313.9z"/>
<path class="st192" d="M466.7,311.9l-4.4,0.1c-0.1-0.8-0.2-1.5-0.2-2.3c0.2-0.7,0.4-1.4,0.5-2.1l1,0.2l1-0.2l1.1,0.1l1.1-0.1l1,0.1
	h1c0.3,0.7,0.4,1.5,0.3,2.2L466.7,311.9z"/>
<path class="st193" d="M469,309.8c0.1-0.8-0.1-1.5-0.3-2.2l2.7-0.1l-0.1,0.1c0,0.8,0,1.5,0,2.3H469z"/>
<path class="st194" d="M473.6,307.7l-2.4-0.1l0.1-0.1c-0.1-0.6-0.1-1.3-0.1-1.9c0.7-0.2,1.5-0.2,2.3-0.2l-0.1-0.1
	C473.5,306,473.6,306.9,473.6,307.7z"/>
<path class="st195" d="M473.6,305.4c-0.8,0-1.5,0-2.3,0.2l0.2-4.6l2.2-2.7l1,0.2l1-0.1l2.5,0.1l-0.1,2.1c-0.7,0.9-1.5,1.8-2.2,2.7
	L473.6,305.4z"/>
<path class="st173" d="M443.8,266.2l4.9-1.6l6.5,1.7l2.4,0.1c0,0.8,0,1.5,0,2.2l0.4,0.3l-2.6,2l-10.9,2.1l-1.1,0.3l-2-2.2
	L443.8,266.2z"/>
<path class="st196" d="M455.1,266.2l-6.5-1.7l6.6-0.5C455.3,264.8,455.2,265.5,455.1,266.2z"/>
<path class="st197" d="M457.5,268.5l6.8,0.1c0,0.8-0.1,1.5-0.2,2.3l-6.3-2.1L457.5,268.5z"/>
<path class="st198" d="M464.1,270.9c0-0.8,0.1-1.5,0.2-2.3h4.8c-0.1,0.7-0.2,1.5-0.2,2.2c-0.7,0-1.4,0.2-2.1,0.4L464.1,270.9z"/>
<path class="st199" d="M466.9,271.2c0.7-0.2,1.4-0.3,2.1-0.4c-0.1,0.6-0.1,1.2-0.1,1.8l-0.9,0.4l-1-0.1
	C466.8,272.4,466.8,271.8,466.9,271.2z"/>
<path class="st200" d="M473.6,293.8l2.3-0.1c0,0.8,0,1.6-0.1,2.4c-0.8,0-1.5,0-2.3,0C473.6,295.3,473.6,294.6,473.6,293.8
	L473.6,293.8z"/>
<path class="st199" d="M473.6,296.1c0.8,0,1.5,0,2.3,0c0.1,0.7,0,1.4-0.2,2.1l-1,0.1l-1-0.2l0.1,0.1
	C473.6,297.6,473.5,296.9,473.6,296.1z"/>
<path class="st201" d="M466.9,271.2c-0.1,0.6-0.1,1.1,0.1,1.7c-0.8,0.9-1.6,1.9-2.4,2.8l0.1-0.2l-2.8,0.5c-0.6-0.2-1.2-0.2-1.8,0
	l-4.7-0.5c0-0.7,0-1.5-0.1-2.2c0-0.8,0-1.6,0-2.4l2.6-2l6.3,2.1L466.9,271.2z"/>
<path class="st202" d="M464.5,275.7l4.1,1.9l0.3-0.1l-4.4-2.1L464.5,275.7z"/>
<path class="st203" d="M469,284.8c0.1,0.7,0.1,1.5-0.1,2.2l0.1-0.1l-4-0.4c0-0.5-0.1-1-0.2-1.5l1.1,0.1l0.9-0.6
	C467.5,284.6,468.2,284.7,469,284.8z"/>
<path class="st204" d="M473,287.2c0.4,0.5,0.6,1.1,0.6,1.8l-4.6,0.2v-2.3l-0.1,0.1L473,287.2z"/>
<path class="st205" d="M469,284.8c-0.7-0.1-1.5-0.2-2.2-0.4c0-0.7,0-1.4-0.1-2.1h2.4C469,283.1,469,283.9,469,284.8z"/>
<path class="st206" d="M466.7,282.2c0.1,0.7,0.1,1.4,0.1,2.1l-0.9,0.6l-1.1-0.1l-0.4-0.2l-2.7-1.9c0.1-1.8,0.2-3.5,0.4-5.3
	c0-0.5-0.1-1.1-0.2-1.6l2.8-0.5l4.4,2.1l0.1,2.5L466.7,282.2z"/>
<path class="st207" d="M469,289.1l4.6-0.2c0,0.9,0,1.7,0,2.6c-0.7,0-1.4,0-2.1,0c-0.6-0.2-1.3-0.2-2-0.1
	C469.3,290.7,469.1,289.9,469,289.1z"/>
<path class="st208" d="M471.4,291.6c0.7,0,1.4,0,2.1,0c0.1,0.8,0.1,1.5,0,2.3h-2.4C470.9,293.1,471,292.3,471.4,291.6z"/>
<path class="st209" d="M464.4,307.5l-1,0.2l-1-0.2c-1.7-1.5-3.4-2.9-5-4.4c0-0.8,0-1.6,0-2.4l0.2-0.2l6.6,0.3c0,0.6,0,1.2,0,1.8
	L464.4,307.5z"/>
<path class="st133" d="M462,309.6c0.1,0.8,0.2,1.5,0.2,2.3l-2.2,2.1l-4.8,0.4l0,0l2.3-2.1L462,309.6z"/>
<path class="st133" d="M455.2,314.4l-2.9-0.3l3-1.3C455.5,313.4,455.4,313.9,455.2,314.4L455.2,314.4z"/>
<path class="st210" d="M455.2,314.5c0.2-0.5,0.3-1.1,0.2-1.6c0.6-0.4,1.4-0.6,2.1-0.5L455.2,314.5z"/>
<path class="st114" d="M469,289.1c0.1,0.8,0.3,1.6,0.5,2.4l-8.8,0.5l-5.7-0.2l0.3-0.3c0-0.7,0.1-1.5,0.1-2.2l-0.2-0.3l3.4-0.2
	l3.4-0.1l3.2-2.3l4,0.4C469,287.6,469,288.4,469,289.1z"/>
<path class="st56" d="M453,287c0.1-0.6,0.1-1.2,0.2-1.9c0.6-0.3,1.3-0.5,1.9-0.7l2.5,0.1v2.5l0.1-0.1l-2.7,2.1l0.2,0.3l-2.4-0.4
	C453,288.3,453,287.6,453,287z"/>
<path class="st122" d="M453,287c0,0.6,0,1.3-0.1,1.9h-4.4c-0.1-0.7-0.2-1.3-0.1-2L453,287z"/>
<path class="st211" d="M444.1,280.5l-5.1-0.7l-2-2l2.8-2.6l3.7-2l1.1-0.3c0.7,0,1.4,0.2,2,0.6l2,1.9l11.2,3.2l-4.8,2L444.1,280.5z"
	/>
<path class="st212" d="M439.6,275.2l-2.8,2.6l-2.7-0.4c0.1-0.5,0.2-1.1,0.4-1.6l0.4-2.6l4-0.2C439.1,273.8,439.4,274.5,439.6,275.2z
	"/>
<path class="st213" d="M454.9,280.6l4.8-2l0.2-1.1l1.1,0.2l1.1-0.1c-0.1,1.8-0.2,3.5-0.3,5.3l-0.3-0.1l-4-0.4l-2.5,0.4l0.3-0.4
	C455.1,281.7,454.9,281.2,454.9,280.6z"/>
<path class="st214" d="M455,284.4c-0.7,0.2-1.3,0.4-1.9,0.7l-4.6-0.5l6.7-2.3l-0.3,0.4C455,283.3,455.1,283.8,455,284.4z"/>
<path class="st215" d="M452.3,304.9c-0.6,0.2-1.1,0.3-1.7,0.4c0-0.7,0.3-1.4,0.6-1.9c0.7,0,1.2,0.6,1.2,1.2
	C452.3,304.7,452.3,304.8,452.3,304.9z"/>
<path class="st216" d="M464.4,300.8l-6.6-0.3c-0.1-1.4-0.2-2.8-0.3-4.2h2.6l4.3-0.3h3.2l0.8-0.3l0.8,0.4l2,2l2.7,0.1l-0.1-0.1
	l-2.2,2.7L464.4,300.8z"/>
<path class="st217" d="M460.1,296.4h-2.6l-2.1-2.6l0.1,0.1l4.6-0.6c0.6,0.1,1.3,0.3,1.9,0.5c0.1,0.6,0.1,1.3-0.1,1.9L460.1,296.4z"
	/>
<path class="st218" d="M427.8,305.2c0-0.8-0.1-1.5-0.1-2.3c0.8,0,1.5,0,2.3,0c0.1,0.8,0.2,1.5,0.3,2.3H427.8z"/>
<path class="st5" d="M406.8,277.8c0.3-0.7,0.3-1.5-0.1-2.2l0.3-2.5c0.7,0.2,1.5,0.2,2.2,0.1c0.1,0.7,0.2,1.5,0.5,2.1l-0.3,2.6
	L406.8,277.8z"/>
<path class="st219" d="M414,273.2c0,0.8,0,1.5,0,2.3l0.1-0.1c-0.7,0.1-1.5,0.1-2.2,0.1l-0.2-2.3L414,273.2z"/>
<path class="st220" d="M411.6,273.2l0.2,2.3c-0.7,0-1.3,0-2-0.1c-0.3-0.7-0.4-1.4-0.5-2.1L411.6,273.2z"/>
<path class="st221" d="M443.8,266.2c-0.8,1.6-1.6,3.3-2.4,4.9l-2-0.2l-2.4-0.4l-2.5-4.6c-0.1-0.4-0.3-0.9-0.4-1.3l0.7-0.7l2.2-4.4
	c0.5,0.1,1.1,0.2,1.6,0.3C440.3,261.9,442,264,443.8,266.2z"/>
<path class="st222" d="M439.4,270.9l2,0.2l2,2.2l-3.7,2c-0.3-0.7-0.5-1.4-0.7-2.2C439.3,272.4,439.4,271.6,439.4,270.9z"/>
<path class="st223" d="M450.7,305.2l-1.9,2.1L450.7,305.2z"/>
<path class="st47" d="M420.6,286.9c-0.5-0.1-1-0.3-1.5-0.5c0.1-0.6-0.1-1.2-0.4-1.7l-0.1,0.1L420.6,286.9z"/>
<path class="st224" d="M418.7,284.7c0.3,0.5,0.4,1.1,0.4,1.7c-0.1,1.1-0.3,2.1-0.4,3.2c0.1,0.7,0.1,1.4-0.1,2l-2.4-0.1l0.2,0.2
	l-2.5-4.8l0.2,0.2c0.1-0.8,0.3-1.7,0.4-2.5h1l1,0.2C417.2,284.4,418,284.4,418.7,284.7z"/>
<path class="st225" d="M418.5,291.6c0.2-0.6,0.2-1.3,0.1-2l2.1-0.4c0.1,0.7,0.1,1.5,0.3,2.2c-0.1,0.9-0.1,1.7-0.2,2.6l-1.1,0.1
	l-1-0.4C418.6,293,418.5,292.3,418.5,291.6z"/>
<path class="st226" d="M421,291.4c-0.1-0.7-0.2-1.5-0.3-2.2c0.8,0.1,1.5,0.1,2.3,0c0,0.8,0.1,1.5,0.1,2.3l-1.1,0L421,291.4z"/>
<path class="st227" d="M425.5,298.4H423l0.2,0.1c-0.2-1.5-0.3-3-0.5-4.6l3.1-0.1C425.7,295.4,425.6,296.9,425.5,298.4z"/>
<path class="st228" d="M422.7,294c0.2,1.5,0.3,3.1,0.5,4.6c-0.8-1.6-1.6-3.1-2.5-4.7C421.3,294,422,294,422.7,294z"/>
<path class="st229" d="M409.7,275.3c0.7,0.1,1.3,0.1,2,0.1c0.8,0,1.5,0,2.2-0.1l-0.3,2.6c-0.7-0.1-1.4-0.1-2.1-0.2l-2.3-0.1l0.2,0.2
	C409.5,277,409.6,276.2,409.7,275.3z"/>
<path class="st230" d="M416,280.3c0.3,0.7,0.3,1.5,0.1,2.2c-0.7-0.1-1.4-0.1-2.2-0.1l-2.3-0.1l0.2,0.2l0.4-2.6c0.6,0,1.3,0,1.9,0.1
	C414.7,280,415.4,280,416,280.3z"/>
<path class="st231" d="M414,280c-0.6-0.1-1.3-0.2-1.9-0.1c-0.3-0.7-0.5-1.4-0.5-2.1c0.7,0,1.4,0.1,2.1,0.2
	C413.9,278.6,414,279.3,414,280z"/>
<path class="st232" d="M413.9,282.4c0.7,0,1.4,0,2.2,0.1c0.2,0.7,0.4,1.4,0.5,2.1l-1-0.2h-1C414.1,283.8,413.9,283.1,413.9,282.4z"
	/>
<path class="st233" d="M460,293.4l-4.6,0.6c-0.2-0.7-0.4-1.4-0.5-2.1l5.7,0.2C460.2,292.4,460,292.9,460,293.4z"/>
<path class="st234" d="M437,259.4l-2.2,4.4l-0.3-4.4H437z"/>
<path class="st235" d="M423.1,261.6l2.3,0.6l-1.9,1.8C423.3,263.2,423.2,262.4,423.1,261.6z"/>
<path class="st236" d="M434.1,264.5c0.1,0.4,0.3,0.9,0.4,1.3l-1.6-1.6C433.3,264.1,433.8,264.2,434.1,264.5z"/>
<path class="st5" d="M413.9,282.4c0,0.7,0.2,1.5,0.6,2.1c-0.1,0.8-0.3,1.7-0.4,2.5l-2.4-0.1c-0.2-0.8-0.4-1.5-0.6-2.3l0.5-2.3
	L413.9,282.4z"/>
<path class="st237" d="M413.9,286.8l2.5,4.8L413.9,286.8z"/>
<path class="st5" d="M411.6,277.8c0,0.7,0.2,1.5,0.5,2.1l-0.4,2.6c-0.8-1.6-1.6-3.2-2.5-4.8L411.6,277.8z"/>
<path class="st238" d="M464.4,300.8l7.1,0.1l-0.2,4.6c0,0.6,0,1.3,0.1,1.9l-2.7,0.1h-1.1l-1-0.1l1.9-3.8l-4.1-1
	C464.4,302,464.4,301.4,464.4,300.8z"/>
<path class="st239" d="M464.4,302.7l4.1,1l-1.9,3.8l-1.1,0.1l-1.1-0.1L464.4,302.7z"/>
<path class="st240" d="M446.4,273.6c-0.6-0.4-1.3-0.7-2-0.6l10.9-2.1c0,0.8,0,1.6,0,2.4L446.4,273.6z"/>
<path class="st241" d="M473.7,298.3l-2.7-0.1c0.1-0.7,0.2-1.5,0.2-2.2v-2.4l-0.1,0.1h2.4c0,0.8,0,1.5,0,2.3
	C473.5,296.9,473.6,297.6,473.7,298.3z"/>
<path class="st242" d="M459.7,278.6l-11.2-3.2h6.9l4.7,0.5c-0.2,0.5-0.3,1.1-0.2,1.6L459.7,278.6z"/>
<path class="st222" d="M455.4,275.4h-6.9l-2-1.9l8.8-0.4C455.4,273.9,455.4,274.7,455.4,275.4z"/>
<path class="st243" d="M459.9,277.5c-0.4-0.6-0.3-1.3,0.3-1.7c0.5-0.4,1.2-0.3,1.7,0.2c0.1,0.5,0.2,1.1,0.2,1.6l-1.1,0.1
	L459.9,277.5z"/>
<path class="st244" d="M465,286.4l-3.2,2.3c0.1-0.6,0.2-1.3,0.3-1.9c0-0.8,0-1.5-0.1-2.3l2.5,0.2l0.4,0.2
	C464.9,285.4,465,285.9,465,286.4z"/>
<path class="st245" d="M464.4,284.7l-2.5-0.2l0,0c-0.2-0.6-0.4-1.2-0.5-1.8l0.3,0.1L464.4,284.7z"/>
<path class="st246" d="M460,293.4c0-0.5,0.2-1,0.6-1.3l8.9-0.5c0.7-0.2,1.4-0.2,2,0.1c-0.4,0.7-0.5,1.5-0.2,2.2l0.1-0.1l-3.8,2.3
	h-3.2l0.1,0.2l-2.6-2.3C461.3,293.7,460.6,293.5,460,293.4z"/>
<path class="st247" d="M462.1,286.8c0,0.6-0.1,1.3-0.3,1.9l-3.4,0.1c-0.3-0.6-0.6-1.2-0.8-1.9l-0.1,0.1L462.1,286.8z"/>
<path class="st233" d="M457.6,286.9c0.2,0.6,0.5,1.3,0.8,1.9l-3.4,0.2L457.6,286.9z"/>
<path class="st248" d="M462.1,286.8l-4.5,0.3v-2.5l-0.1,0.1l4.5-0.2l0,0C462,285.3,462.1,286,462.1,286.8z"/>
<path class="st211" d="M455,284.4c0.1-0.6,0-1.1-0.1-1.7l2.5-0.4v2.4l0.1-0.1L455,284.4z"/>
<path class="st95" d="M457.5,284.7v-2.4l4,0.4c0.1,0.6,0.3,1.2,0.5,1.8L457.5,284.7z"/>
<path class="st249" d="M460.1,296.4l1.8-0.5l2.6,0.4l-0.1-0.2L460.1,296.4z"/>
<path class="st250" d="M467.5,296l3.8-2.3c0,0.8,0,1.6,0,2.4c-0.7,0-1.5,0.1-2.2,0.1l-0.8-0.4L467.5,296z"/>
<path class="st251" d="M469.1,296.2c0.7-0.1,1.5-0.1,2.2-0.1c0,0.7-0.1,1.5-0.2,2.2L469.1,296.2z"/>
<path class="st233" d="M464.5,296.2l-2.6-0.4c0.1-0.6,0.2-1.3,0.1-1.9L464.5,296.2z"/>
<path class="st1" d="M709.2,90.5l4.3,10.5l-6,8.7C694.8,103.6,694.9,101.6,709.2,90.5z"/>
<path class="st1" d="M513.8,202.8c1.5,3.8,2.9,7.1,4.3,10.5l-6,8.7C499.4,215.9,499.5,214,513.8,202.8z"/>
<path class="st2" d="M416.8-5.9c-10.6,19.6-21.9,47-25.2,80.2c-3.3,32.8-9.8,84,30.3,128.8c2.9,3.2,5.4,5.8,7.1,7.4l5-2.9
	c-4.8-5.6-9.2-11.5-13.1-17.7c-3.2-5-16.2-26.2-20.2-58.9c-4.4-36.2,0.2-67.3,6.3-84.8c8.1-23.3,17.4-41.3,29.3-52.9
	c3.5,5.7,6.2,11.8,8.2,18.1c14.8,47.7-27.3,77.7-25.7,139c0.2,6.1-0.4,11.7,1.8,18.8c1.9,6.1,4.4,9.4,14.7,29.7
	c0.8,1.6,1.4,2.8,1.8,3.6l7.3-2.9c-6.4-8.3-11.4-17.6-14.7-27.5c-9.9-30.7,1.2-58.3,7.3-73.1c6.4-15.3,8.9-14.1,13.8-28.2
	c3.4-9.9,9.4-28.1,4.6-50.7c-2-9.2-5.4-18-10.1-26.1"/>
<path class="st252" d="M416.3,208.1c6.7-2.7,13.3-5.4,20-8.2c4-1.6,8.1-3.3,12.2-4.9c24.4,8.9,26.7,13.1,23.3,39.8
	c-0.5,3.5,1.2,7.3,1.9,10.9l-2,4.4l-2.9,0.2c-0.6-0.2-1.3-0.2-1.9,0.1l-2.5,1.6c-0.8,0.1-1.5,0.3-2.1,0.7l-2.4,1.8
	c-0.7,0-1.5,0.1-2.1,0.5l-6.9-0.9l-2.5-1.3l-4.4,0.1l-4.7-2.3c-0.7-0.3-1.4-0.6-2.1-0.8v0.3c0-0.8-0.2-1.5-0.5-2.2c0-1.5,0-3,0-4.4
	c-0.6-3.2-1.1-6.5-1.7-9.7c-1.6-3.8-3.2-7.6-4.8-11.3c-0.6-1.7-1.2-3.5-1.8-5.2l-2.2-1.7l-3,0.3l-4,0.1
	C418.2,213.3,417.2,210.7,416.3,208.1z M441.2,211.6c-5.1,8.1-0.4,16.5,13.9,23.9c1.5-4.2,3-8.4,4.4-12.5v-19.2L441.2,211.6z"/>
<path class="st1" d="M343.7,80.5c1.5,3.8,2.9,7.1,4.3,10.5l-6,8.7C329.4,93.6,329.5,91.7,343.7,80.5z"/>
<path class="st253" d="M545.8,283.5h4c-0.5,1.3-0.6,2.7-0.4,4"/>
<path class="st253" d="M551.5,292c0.9,1,2,1.7,3.3,2.2l-0.8,3.9"/>
<path class="st254" d="M552.9,303.6c-0.6,2.8-1.1,5.5-1.7,8.3"/>
<path class="st253" d="M550.6,314.7l-0.8,3.9c1,0.9,2.1,1.7,3.2,2.4"/>
<path class="st255" d="M560.2,324.5c3.1,1.1,6.3,1.8,9.6,1.9c6.2,0.3,12.3-1.1,17.8-4.1"/>
<path class="st253" d="M591.1,320.3c1.1-0.8,2.2-1.6,3.2-2.4c-0.3-1.3-0.5-2.6-0.8-3.9"/>
<path class="st256" d="M592.1,307.5l-2-9.7"/>
<path class="st253" d="M589.3,294.5c-0.3-1.3-0.5-2.6-0.8-3.9l3.4-2.1"/>
<path class="st253" d="M594.4,287l3.4-2.1c0.2,1.3,0.5,2.6,0.7,3.9"/>
<path class="st257" d="M600,296.7c0.5,4.1,1.7,8.1,3.5,11.8c0.6,1.3,3.2,6.5,7.2,10c7.9,7,22.6,8.3,33.7,1.4
	c14.1-8.6,14.3-25.4,14.3-26.5c0-3-0.5-14.6-10-22.9c-5.8-4.9-13.2-7.3-20.8-6.9"/>
<path class="st253" d="M624,264c-1.3,0.2-2.6,0.5-3.9,0.8c0.5-0.9,1.2-2.1,2.1-3.4"/>
<path class="st258" d="M627.1,255.4c2.3-2.5,5-4.6,8-6.3c1.6-0.9,3.3-1.6,5-2.1c5.6-1.6,7.7,0.3,12.9-0.7c1.9-0.4,7.2-1.4,10-5.7
	c0.5-0.7,0.8-1.4,1.1-2.2"/>
<path class="st253" d="M664.9,234.4c0-1.3-0.1-2.7-0.4-4l4-0.2"/>
<path class="st253" d="M674.1,229.9l4-0.2c0.3,1.3,0.7,2.6,1.2,3.8"/>
<path class="st259" d="M683.3,240c2.7,2.9,6.1,5,9.8,6.2c8.8,3,16.7,0.3,19.3-0.7c5.1-3.6,9.1-8.6,11.5-14.4c4-10,2.6-23.6-6.1-30.5
	c-4.5-3.6-8.4-3.9-14.3-4.3c-5.2-0.4-12.2,0-16.1,1.8c-1.2,0.5-2.2,1.3-3.1,2.3"/>
<path class="st253" d="M682.3,203.7c-0.5,1.2-1,2.5-1.3,3.8l-3.2-2.5"/>
<path class="st253" d="M677.7,204.9l-3.2-2.5l2.8-2.9"/>
<path class="st260" d="M682.5,194.1l6.3-6.6c1.4-6.5-0.2-13.3-4.3-18.6c-0.5-2.9-1.2-7.1-2.2-12.2c-2.6-13.4-3.9-20.1-6.5-25.8
	c-5.3-11.8-9.5-9.8-11.5-18.6c-1.8-7.7,0.8-11.9-2.9-20.1c-1.5-3.2-3.1-6.8-6.5-7.9c-3.7-1.2-6.3,1.5-12.4,1.4"/>
<path class="st253" d="M638.9,85.3c-1.3-0.3-2.6-0.6-3.8-1.1c-0.4-1.3-0.9-2.5-1.4-3.7"/>
<path class="st261" d="M629.3,74.1c-1-1-2.2-1.7-3.5-2.1c-3.8-1.1-11.2-0.3-15.1-0.1c-1.5,0.1-1.7,0.1-2.8,0.1
	c-12.4,0.5-12.4-1.4-17.9,0c-1.3,0.3-13.8,3.7-17.9,13.6c-2.3,5.7,1,6.1,0.7,22.2c-0.1,7.4-0.9,11,0.7,17.2c1.2,4.7,2.4,5.4,3.6,9.3
	c2,6.6,1.1,12.5-0.7,20.8c-2.5,11.2-4.1,18.4-8.6,30.1c-5.2,13.6-9.8,25.4-19.4,38.7c-7.2,9.9-10.3,11.1-13.6,19.4
	c-1.9,4.7-6.2,16-1.4,28c1.9,4.7,4.8,8.8,8.6,12.2"/>
<path class="st262" d="M596.8-25.8c-2.5,3.6-7,11.5-7.9,23.6c-0.9,13,4.4,22.7,6.5,26.5c4.1,4.7,11.1,17.1,13.6,30.8
	c1.1,6.1-0.3,12.9-0.7,17.2"/>
<path class="st262" d="M606.1-26.5c-2.9,2.4-5.4,5.3-7.2,8.6c-1.1,2.1-7.1,13.5-5.7,23.7c0.8,5.9,2.2,7.8,5.7,14.3
	s6.1,10.3,9.3,16.5c1.4,2.7,2.7,6.6,4.3,13.6c1.1,4.7,3,9.5,1.4,19.4"/>
<path class="st262" d="M624-25.1c5.2,9.3,9.3,19.2,12.2,29.4c7.8,27.5,4.2,52.5,2.2,68.1c-0.5,3.9-1.1,7.1-1.4,9.3"/>
<path class="st262" d="M630.1-26.2c3.4,5.7,6.3,11.7,8.6,17.9c4.1,11,5.4,19.7,6.5,27.2c2.2,15.4,2.2,31.1,0,46.6
	c-0.9,6-2.1,12-3.6,17.9"/>
<ellipse class="st262" cx="640.8" cy="292.4" rx="5" ry="8.2"/>
<path class="st262" d="M639.4,321.5c-5.2,0-9.8-3.1-13.2-8.2s-5.5-12-5.5-19.8s2.1-14.7,5.5-19.8s8-8.2,13.2-8.2"/>
<ellipse class="st262" cx="710" cy="221.1" rx="5" ry="8.2"/>
<path class="st263" d="M558,294.6c9.1,1.6,18.5,0.8,27.2-2.1"/>
<path class="st263" d="M598.2,273.8v7.9"/>
<path class="st264" d="M552,283.5c6.5-0.2,13-0.9,19.3-2.1c8.1-1.6,16-4,23.7-7.2"/>
<path class="st2" d="M418.5,360.2c-2.6,0.1-5.1,0.7-7.4,1.7c-10.3,4.3-13,10.1-13.7,12.2c-0.3,0.8-1.3,6.1-1.4,6.5
	c-0.9,3-1.7,6.9,0.7,14.3c0.6,2,3.5,9.5,8.6,13.6c6,4.8,10.4,5.4,13,5.4c12.6-0.4,22.1-11.8,24.5-22.8c0.7-3.3,2.5-11.2-2.3-19
	C435.7,364.6,427.4,360.1,418.5,360.2z"/>
<path class="st133" d="M439.7,387.7c-0.7,12.2-5,20.1-15.8,20.8c-10.5,0.7-14.3-7-14.3-19.4s6.9-19.8,15.8-19.4
	C438.4,370.4,440.3,377.9,439.7,387.7z"/>
<path class="st2" d="M424,381.2c-0.6,0.4-1.1,0.9-1.5,1.5c-1.3,1.9-1.8,4.3-1.7,6.6c0,0.2,0,0.4,0,0.5c0.1,1.7,0.7,3.3,1.6,4.6
	c0.7,1,1.7,1.7,2.8,2c1.4,0.3,2.8-0.1,3.9-0.9c2.8-1.9,3.8-6.3,3.3-9.6c-0.2-1.8-1-3.5-2.4-4.7C428.3,379.9,425.8,379.9,424,381.2z"
	/>
<path class="st2" d="M367.1,317.2c-1.9,1-3.6,2.4-5.1,4c-6.5,7-6.8,12.6-6.7,14.6c0,0.7,0.8,5.3,0.9,5.7c0.2,2.7,0.8,6.1,4.8,11.2
	c1.1,1.4,5.5,6.4,10.6,7.8c5.9,1.7,9.5,0.6,11.4-0.3c9.4-4.8,13.1-17.2,11.6-26.9c-0.4-2.9-1.5-9.8-7.4-14.4
	C381.4,314.6,373.6,313.9,367.1,317.2z"/>
<path class="st133" d="M392,337.9c0.5,10.7-5,16.2-15.4,16.8c-10.1,0.6-12.9-5.6-12.9-16.5s6.5-16.2,15-15.8
	C391.7,323.2,391.7,330.4,392,337.9z"/>
<path class="st2" d="M376.2,333.4c-0.6,0.4-1.1,0.9-1.5,1.5c-1.3,1.9-1.8,4.3-1.7,6.6c0,0.2,0,0.4,0,0.5c0.1,1.7,0.7,3.3,1.6,4.6
	c0.7,1,1.7,1.7,2.8,2c1.4,0.3,2.8-0.1,3.9-0.9c2.8-1.9,3.8-6.3,3.3-9.6c-0.2-1.8-1-3.5-2.4-4.7C380.4,332.1,378,332.1,376.2,333.4z"
	/>
<path class="st265" d="M441.8,109.4c1.4,0,2.9-0.2,4.2-0.8c1.2-0.5,2.3-1.3,3.1-2.2c0.9-1,1.6-2.2,2-3.6c0.5-1.6,0.7-3.2,0.7-4.8V68
	h11.8v30c0,2.9-0.5,5.8-1.5,8.6c-1.9,5.2-6,9.2-11.2,11.1c-5.9,2.1-12.3,2.1-18.2,0c-2.6-1-4.9-2.5-6.9-4.4
	c-1.9-1.9-3.4-4.2-4.3-6.7c-1-2.7-1.5-5.6-1.5-8.6V68h11.8v30c0,1.6,0.2,3.2,0.7,4.8c0.4,1.3,1.1,2.5,2,3.6c0.9,1,1.9,1.8,3.1,2.3
	C438.9,109.2,440.3,109.4,441.8,109.4z"/>
<path class="st265" d="M502.4,101.8v16.9h-11.8V68h17.9c3.1-0.1,6.2,0.4,9.2,1.3c2.3,0.7,4.5,1.9,6.3,3.5c1.6,1.4,2.9,3.2,3.7,5.2
	c0.8,2.1,1.2,4.3,1.2,6.5c0,2.4-0.4,4.8-1.2,7c-0.8,2.1-2.1,3.9-3.7,5.4c-1.8,1.6-4,2.8-6.3,3.5c-2.9,0.9-6,1.3-9.1,1.3L502.4,101.8
	z M502.4,92.9h6.1c3.1,0,5.3-0.7,6.6-2.2c1.4-1.7,2.1-3.9,2-6.1c0-1.1-0.2-2.2-0.5-3.2c-0.3-0.9-0.9-1.7-1.6-2.4
	c-0.8-0.7-1.7-1.3-2.7-1.6c-1.2-0.4-2.5-0.6-3.8-0.6h-6.1V92.9z"/>
<path class="st265" d="M582.8,78.3c-0.3,0.5-0.7,0.9-1.1,1.2c-0.4,0.3-1,0.4-1.5,0.4c-0.6,0-1.2-0.2-1.7-0.5l-2.1-1.1
	c-0.9-0.4-1.7-0.8-2.7-1.1c-1.1-0.3-2.3-0.5-3.4-0.5c-1.8-0.1-3.5,0.4-4.9,1.4c-1.1,1-1.7,2.4-1.6,3.9c0,0.9,0.3,1.9,1,2.5
	c0.7,0.7,1.6,1.3,2.5,1.7c1.2,0.5,2.4,1,3.6,1.3c1.4,0.4,2.7,0.9,4.2,1.4c1.4,0.5,2.8,1.1,4.2,1.8c1.3,0.7,2.6,1.5,3.6,2.6
	c1.1,1.1,2,2.4,2.6,3.8c0.7,1.7,1,3.6,1,5.4c0,2.3-0.4,4.5-1.2,6.6c-0.8,2-2,3.8-3.5,5.3c-1.6,1.6-3.6,2.8-5.7,3.6
	c-2.5,0.9-5.1,1.4-7.7,1.3c-1.6,0-3.2-0.2-4.8-0.5c-1.6-0.3-3.2-0.8-4.8-1.4c-1.5-0.6-2.9-1.3-4.3-2.1c-1.3-0.8-2.5-1.7-3.5-2.7
	l3.5-5.5c0.3-0.4,0.6-0.8,1.1-1c0.5-0.3,1-0.4,1.5-0.4c0.8,0,1.5,0.2,2.1,0.7c0.7,0.4,1.5,0.9,2.4,1.5c1,0.6,2,1.1,3.1,1.5
	c1.3,0.5,2.7,0.7,4.1,0.7c1.8,0.1,3.5-0.4,5-1.4c1.3-1.1,1.9-2.8,1.8-4.5c0-1.1-0.3-2.1-1-2.9c-0.7-0.8-1.6-1.4-2.6-1.8
	c-1.2-0.5-2.4-1-3.6-1.3c-1.3-0.4-2.7-0.8-4.1-1.2c-1.4-0.5-2.8-1-4.1-1.7c-1.3-0.7-2.6-1.5-3.6-2.6c-1.1-1.2-2-2.5-2.6-4
	c-0.7-1.9-1.1-4-1-6c0-1.9,0.4-3.8,1.2-5.6c0.8-1.8,1.9-3.5,3.4-4.8c1.6-1.5,3.4-2.6,5.5-3.4c2.4-0.9,4.9-1.3,7.4-1.3
	c1.5,0,3,0.1,4.5,0.4c1.4,0.2,2.8,0.6,4.2,1.1c1.3,0.5,2.5,1,3.7,1.7c1.1,0.6,2.1,1.4,3.1,2.2L582.8,78.3z"/>
<path class="st265" d="M614.5,113.3c0-0.8,0.2-1.6,0.5-2.3c0.6-1.4,1.8-2.6,3.2-3.2c2.3-1,5-0.5,6.8,1.3c0.6,0.5,1,1.2,1.3,1.9
	c0.3,0.7,0.5,1.5,0.5,2.3c0,0.8-0.2,1.6-0.5,2.3c-0.3,0.7-0.7,1.4-1.3,1.9c-0.6,0.5-1.2,1-1.9,1.2c-1.6,0.6-3.3,0.6-4.8,0
	c-0.7-0.3-1.4-0.7-1.9-1.2c-0.6-0.5-1-1.2-1.3-1.9C614.7,114.9,614.5,114.1,614.5,113.3z M625.8,68v19.9c0,2.1-0.1,4.2-0.4,6.3
	c-0.2,2.1-0.6,4.2-1,6.4h-7.3c-0.4-2.2-0.8-4.3-1-6.4c-0.3-2.1-0.4-4.2-0.4-6.3V68H625.8z"/>
<path class="st266" d="M387.2,132.2v5.4h-12.5v7.1h9.6v5.2h-9.6v7.3h12.5v5.4h-19.7v-30.6H387.2z"/>
<path class="st266" d="M410.1,151.4v11.3H403v-30.6h9.9c1.9,0,3.8,0.2,5.6,0.7c1.4,0.4,2.7,1,3.8,1.9c0.9,0.8,1.7,1.7,2.1,2.9
	c0.5,1.1,0.7,2.4,0.7,3.6c0,1-0.1,1.9-0.4,2.8c-0.3,0.9-0.7,1.7-1.2,2.4c-0.5,0.8-1.2,1.4-1.9,2c-0.8,0.6-1.7,1.1-2.6,1.4
	c0.5,0.2,0.9,0.5,1.3,0.9c0.4,0.4,0.8,0.8,1.1,1.3l6.5,10.6h-6.4c-1,0.1-2-0.4-2.6-1.3l-5.1-8.9c-0.2-0.3-0.5-0.6-0.8-0.8
	c-0.4-0.2-0.8-0.3-1.3-0.2H410.1z M410.1,146.5h2.9c0.8,0,1.7-0.1,2.5-0.4c0.6-0.2,1.2-0.5,1.7-1c0.4-0.4,0.8-0.9,0.9-1.5
	c0.2-0.6,0.3-1.2,0.3-1.9c0.1-1.2-0.4-2.3-1.3-3.1c-1.2-0.9-2.6-1.3-4.1-1.1h-2.9V146.5z"/>
<path class="st266" d="M449.7,151.4v11.3h-7.1v-30.6h9.9c1.9,0,3.8,0.2,5.7,0.7c1.4,0.4,2.7,1,3.8,1.9c1,0.8,1.7,1.7,2.1,2.9
	c0.5,1.1,0.7,2.4,0.7,3.6c0,1-0.1,1.9-0.4,2.8c-0.3,0.9-0.7,1.7-1.2,2.4c-0.5,0.8-1.2,1.4-1.9,2c-0.8,0.6-1.7,1.1-2.6,1.4
	c0.5,0.2,0.9,0.5,1.3,0.9c0.4,0.4,0.8,0.8,1.1,1.3l6.5,10.6h-6.4c-1,0.1-2-0.4-2.6-1.3l-5.1-8.9c-0.2-0.3-0.4-0.6-0.8-0.8
	c-0.4-0.2-0.8-0.3-1.3-0.2H449.7z M449.7,146.5h2.9c0.8,0,1.7-0.1,2.5-0.4c0.6-0.2,1.2-0.6,1.7-1c0.4-0.4,0.7-0.9,0.9-1.5
	c0.2-0.6,0.3-1.2,0.3-1.9c0.1-1.2-0.4-2.3-1.3-3.1c-1.2-0.9-2.6-1.3-4.1-1.1h-2.9L449.7,146.5z"/>
<path class="st266" d="M511.4,147.4c0,2.1-0.4,4.2-1.1,6.2c-0.7,1.9-1.8,3.6-3.2,5c-1.4,1.4-3.1,2.6-5,3.3c-4.2,1.6-8.8,1.6-13,0
	c-3.8-1.5-6.8-4.5-8.2-8.3c-1.5-4-1.5-8.4,0-12.3c0.7-1.9,1.8-3.5,3.2-4.9c1.4-1.4,3.1-2.5,5-3.3c2.1-0.8,4.3-1.2,6.5-1.2
	c2.2,0,4.4,0.4,6.5,1.2c3.8,1.5,6.7,4.5,8.2,8.2C511,143.3,511.4,145.4,511.4,147.4z M504.1,147.4c0-1.4-0.2-2.8-0.6-4.1
	c-0.4-1.1-0.9-2.2-1.7-3.1c-0.7-0.8-1.7-1.5-2.7-1.9c-1.2-0.5-2.4-0.7-3.6-0.7c-1.3,0-2.5,0.2-3.7,0.7c-1,0.4-2,1.1-2.7,1.9
	c-0.8,0.9-1.3,1.9-1.7,3.1c-0.8,2.7-0.8,5.5,0,8.2c0.3,1.1,0.9,2.2,1.7,3.1c0.7,0.8,1.7,1.5,2.7,1.9c1.2,0.5,2.4,0.7,3.7,0.7
	c1.2,0,2.5-0.2,3.6-0.7c1-0.4,2-1.1,2.7-1.9c0.8-0.9,1.3-1.9,1.7-3.1C503.9,150.2,504.1,148.8,504.1,147.4z"/>
<path class="st266" d="M533.6,151.4v11.3h-7.1v-30.6h9.9c1.9,0,3.8,0.2,5.7,0.7c1.4,0.4,2.7,1,3.8,1.9c0.9,0.8,1.7,1.7,2.2,2.9
	c0.8,2.1,0.9,4.3,0.3,6.4c-0.3,0.9-0.7,1.7-1.2,2.4c-0.5,0.8-1.2,1.4-1.9,2c-0.8,0.6-1.7,1.1-2.6,1.4c0.5,0.2,0.9,0.5,1.3,0.9
	c0.4,0.4,0.8,0.8,1.1,1.3l6.5,10.6h-6.4c-1,0.1-2-0.4-2.6-1.3l-5.1-8.9c-0.2-0.3-0.5-0.6-0.8-0.8c-0.4-0.2-0.8-0.3-1.3-0.2
	L533.6,151.4z M533.6,146.5h2.8c0.8,0,1.7-0.1,2.5-0.4c0.6-0.2,1.2-0.6,1.7-1c0.5-0.4,0.8-0.9,1-1.5c0.2-0.6,0.3-1.2,0.3-1.9
	c0.1-1.2-0.4-2.3-1.3-3.1c-1.2-0.9-2.6-1.3-4.1-1.1h-2.8L533.6,146.5z"/>
<path class="st266" d="M603.9,150.9h3.1v3.6c0,0.6-0.5,1.2-1.1,1.2c0,0-0.1,0-0.1,0h-1.9v7h-5.7v-7H586c-0.4,0-0.8-0.1-1.1-0.4
	c-0.3-0.2-0.5-0.6-0.6-0.9l-0.7-3.2l14.1-19h6.2L603.9,150.9z M598.3,142.9c0-0.5,0-1,0-1.6s0.1-1.1,0.2-1.8l-8.1,11.3h7.9
	L598.3,142.9z"/>
<path class="st266" d="M643,147.4c0,2.3-0.2,4.7-0.9,6.9c-0.5,1.8-1.3,3.4-2.4,4.9c-1,1.2-2.2,2.2-3.6,2.9c-1.4,0.6-3,1-4.5,0.9
	c-1.6,0-3.1-0.3-4.5-0.9c-1.4-0.7-2.6-1.6-3.6-2.9c-1.1-1.5-1.9-3.1-2.4-4.9c-1.1-4.6-1.1-9.3,0-13.9c0.5-1.8,1.3-3.4,2.4-4.9
	c0.9-1.2,2.2-2.2,3.6-2.9c1.4-0.6,2.9-1,4.5-0.9c1.6,0,3.1,0.3,4.5,0.9c1.4,0.6,2.7,1.6,3.6,2.9c1.1,1.5,1.9,3.1,2.4,4.9
	C642.8,142.8,643,145.1,643,147.4z M636.3,147.4c0-1.7-0.1-3.5-0.4-5.2c-0.2-1.1-0.5-2.2-1.1-3.2c-0.3-0.7-0.9-1.2-1.5-1.6
	c-1.7-0.9-3.8-0.3-4.7,1.3c0,0.1-0.1,0.2-0.1,0.3c-0.5,1-0.8,2.1-1,3.2c-0.5,3.4-0.5,7,0,10.4c0.2,1.1,0.5,2.2,1,3.2
	c0.6,1.2,1.8,2,3.2,2c0.6,0,1.2-0.2,1.7-0.4c0.6-0.4,1.2-0.9,1.5-1.6c0.5-1,0.9-2.1,1.1-3.2C636.2,150.9,636.3,149.2,636.3,147.4
	L636.3,147.4z"/>
<path class="st266" d="M676.1,150.9h3.2v3.6c0,0.7-0.5,1.2-1.2,1.2c0,0-0.1,0-0.1,0h-1.9v7h-5.7v-7h-12.3c-0.4,0-0.8-0.1-1.1-0.4
	c-0.3-0.2-0.5-0.6-0.6-0.9l-0.7-3.2l14.1-19h6.2L676.1,150.9z M670.4,142.9c0-0.5,0-1,0-1.6s0.1-1.1,0.2-1.8l-8.1,11.3h7.9
	L670.4,142.9z"/>
<path class="st1" d="M295.3,383.3c1.5,3.8,2.9,7.1,4.3,10.5l-6,8.7C280.9,396.4,281,394.5,295.3,383.3z"/>
<path class="st1" d="M649.3,454.3c1.5,3.8,2.9,7.1,4.3,10.5l-6,8.7C634.9,467.4,635,465.5,649.3,454.3z"/>
<path class="st0" d="M271.3,169.3c1.5,3.8,2.9,7.1,4.3,10.5l-6,8.7C256.9,182.4,257,180.5,271.3,169.3z"/>
</svg>
