<svg xmlns="http://www.w3.org/2000/svg" xmlns:xlink="http://www.w3.org/1999/xlink" viewBox="0 0 1202 862"><defs><style>.cls-1,.cls-10{stroke:#fdffff;}.cls-1,.cls-10,.cls-7,.cls-9{stroke-miterlimit:10;stroke-width:2px;}.cls-2,.cls-9{fill:#240476;}.cls-3{fill:#e57d0c;}.cls-4{fill:url(#Degradado_sin_nombre_4);}.cls-5{fill:url(#Degradado_sin_nombre_4-2);}.cls-6{fill:url(#Degradado_sin_nombre_4-3);}.cls-7{fill:none;}.cls-7,.cls-9{stroke:#240476;}.cls-8{fill:#f4ee7f;}.cls-10{fill:#ee9e22;}.cls-11{fill:url(#Degradado_sin_nombre_4-4);}.cls-12{fill:url(#Degradado_sin_nombre_4-5);}</style><linearGradient id="Degradado_sin_nombre_4" x1="691.84" y1="-1300.17" x2="720.14" y2="-1300.17" gradientTransform="matrix(0.73, 0.68, 0.68, -0.73, 415.86, -1254.79)" gradientUnits="userSpaceOnUse"><stop offset="0" stop-color="#e5e00f"/><stop offset="0.49" stop-color="#e6d214"/><stop offset="0.96" stop-color="#e5a800"/></linearGradient><linearGradient id="Degradado_sin_nombre_4-2" x1="1215.31" y1="-1656.8" x2="1243.61" y2="-1656.8" xlink:href="#Degradado_sin_nombre_4"/><linearGradient id="Degradado_sin_nombre_4-3" x1="912.06" y1="-1538.22" x2="940.36" y2="-1538.22" xlink:href="#Degradado_sin_nombre_4"/><linearGradient id="Degradado_sin_nombre_4-4" x1="1595.52" y1="-688.9" x2="1623.82" y2="-688.9" xlink:href="#Degradado_sin_nombre_4"/><linearGradient id="Degradado_sin_nombre_4-5" x1="1342.99" y1="-576.65" x2="1371.29" y2="-576.65" xlink:href="#Degradado_sin_nombre_4"/></defs><g id="Capa_2" data-name="Capa 2"><g id="Base"><rect class="cls-1" x="1" y="1" width="1200" height="860"/><polygon class="cls-2" points="118.13 49.18 100.53 100.08 65.33 59.38 118.13 49.18"/><polygon class="cls-3" points="116.13 40.18 98.53 91.08 63.33 50.38 116.13 40.18"/><polygon class="cls-2" points="64.03 185.58 38.53 198.98 39.63 170.18 64.03 185.58"/><polygon class="cls-4" points="62.03 176.58 36.53 189.98 37.63 161.18 62.03 176.58"/><polygon class="cls-2" points="163.73 404.08 145.93 454.88 110.23 414.28 163.73 404.08"/><polygon class="cls-3" points="161.73 395.08 143.93 445.88 108.23 405.28 161.73 395.08"/><polygon class="cls-2" points="202.32 803.69 176.82 817.19 177.92 788.39 202.32 803.69"/><polygon class="cls-5" points="200.32 794.69 174.82 808.19 175.92 779.39 200.32 794.69"/><polygon class="cls-2" points="62.03 509.88 36.53 523.28 37.63 494.48 62.03 509.88"/><polygon class="cls-6" points="60.03 500.88 34.53 514.28 35.63 485.48 60.03 500.88"/><polygon class="cls-2" points="521.26 63.1 497.56 130.81 450.06 76.7 521.26 63.1"/><polygon class="cls-3" points="519.26 54.1 495.56 121.81 448.06 67.7 519.26 54.1"/><path class="cls-2" d="M209.63,64.18a23,23,0,0,1,27,18,22.73,22.73,0,0,1-18.3,26.6,22.72,22.72,0,1,1-8.7-44.6Zm1.5,7.7a14.93,14.93,0,1,0,17.7,11.8A15,15,0,0,0,211.13,71.88Z"/><path class="cls-7" d="M209.63,64.18a23,23,0,0,1,27,18,22.73,22.73,0,0,1-18.3,26.6,22.72,22.72,0,1,1-8.7-44.6Zm1.5,7.7a14.93,14.93,0,1,0,17.7,11.8A15,15,0,0,0,211.13,71.88Z"/><path class="cls-8" d="M207.63,55.18a23,23,0,0,1,27,18,22.73,22.73,0,0,1-18.3,26.6,22.72,22.72,0,1,1-8.7-44.6Zm1.5,7.7a14.93,14.93,0,1,0,17.7,11.8A15,15,0,0,0,209.13,62.88Z"/><path class="cls-7" d="M207.63,55.18a23,23,0,0,1,27,18,22.73,22.73,0,0,1-18.3,26.6,22.72,22.72,0,1,1-8.7-44.6Zm1.5,7.7a14.93,14.93,0,1,0,17.7,11.8A15,15,0,0,0,209.13,62.88Z"/><path class="cls-2" d="M69.93,288.88a37.48,37.48,0,1,1-29.7,43.9A37.51,37.51,0,0,1,69.93,288.88Zm2.4,12.7a24.65,24.65,0,1,0,28.9,19.5A24.68,24.68,0,0,0,72.33,301.58Z"/><path class="cls-7" d="M69.93,288.88a37.48,37.48,0,1,1-29.7,43.9A37.51,37.51,0,0,1,69.93,288.88Zm2.4,12.7a24.65,24.65,0,1,0,28.9,19.5A24.68,24.68,0,0,0,72.33,301.58Z"/><path class="cls-8" d="M67.93,279.88a37.48,37.48,0,1,1-29.7,43.9A37.51,37.51,0,0,1,67.93,279.88Zm2.4,12.7a24.65,24.65,0,1,0,28.9,19.5A24.68,24.68,0,0,0,70.33,292.58Z"/><path class="cls-7" d="M67.93,279.88a37.48,37.48,0,1,1-29.7,43.9A37.51,37.51,0,0,1,67.93,279.88Zm2.4,12.7a24.65,24.65,0,1,0,28.9,19.5A24.68,24.68,0,0,0,70.33,292.58Z"/><path class="cls-2" d="M358.42,29.46A32.69,32.69,0,0,1,396.62,55a32.3,32.3,0,0,1-25.8,37.7,32.69,32.69,0,0,1-38.2-25.5A32.3,32.3,0,0,1,358.42,29.46Zm2.2,10.9a21.18,21.18,0,0,0-17,24.7,21.43,21.43,0,0,0,25.1,16.7,21.18,21.18,0,0,0,17-24.7A21.53,21.53,0,0,0,360.62,40.36Z"/><path class="cls-7" d="M358.42,29.46A32.69,32.69,0,0,1,396.62,55a32.3,32.3,0,0,1-25.8,37.7,32.69,32.69,0,0,1-38.2-25.5A32.3,32.3,0,0,1,358.42,29.46Zm2.2,10.9a21.18,21.18,0,0,0-17,24.7,21.43,21.43,0,0,0,25.1,16.7,21.18,21.18,0,0,0,17-24.7A21.53,21.53,0,0,0,360.62,40.36Z"/><path class="cls-8" d="M356.42,20.46A32.69,32.69,0,0,1,394.62,46a32.3,32.3,0,0,1-25.8,37.7,32.69,32.69,0,0,1-38.2-25.5A32.3,32.3,0,0,1,356.42,20.46Zm2.2,10.9a21.18,21.18,0,0,0-17,24.7,21.43,21.43,0,0,0,25.1,16.7,21.18,21.18,0,0,0,17-24.7A21.53,21.53,0,0,0,358.62,31.36Z"/><path class="cls-7" d="M356.42,20.46A32.69,32.69,0,0,1,394.62,46a32.3,32.3,0,0,1-25.8,37.7,32.69,32.69,0,0,1-38.2-25.5A32.3,32.3,0,0,1,356.42,20.46Zm2.2,10.9a21.18,21.18,0,0,0-17,24.7,21.43,21.43,0,0,0,25.1,16.7,21.18,21.18,0,0,0,17-24.7A21.53,21.53,0,0,0,358.62,31.36Z"/><polygon class="cls-9" points="635.02 63.1 633.33 68.8 627.63 71 625.92 76.7 621.23 78.5 621.23 80.9 627.83 78.4 629.52 72.7 635.23 70.6 636.92 64.9 642.63 62.7 644.63 56.1 642.13 56.2 640.73 61 635.02 63.1"/><polygon class="cls-10" points="633.02 54.1 631.33 59.8 625.63 62 623.92 67.7 619.23 69.5 619.23 71.9 625.83 69.4 627.52 63.7 633.23 61.6 634.92 55.9 640.63 53.7 642.63 47.1 640.13 47.2 638.73 52 633.02 54.1"/><polygon class="cls-2" points="378.84 773.01 361.24 823.91 326.04 783.21 378.84 773.01"/><polygon class="cls-3" points="376.84 764.01 359.24 814.91 324.04 774.21 376.84 764.01"/><path class="cls-2" d="M470.34,788a23,23,0,0,1,27,18,22.73,22.73,0,0,1-18.3,26.6,22.72,22.72,0,1,1-8.7-44.6Zm1.5,7.7a14.93,14.93,0,1,0,17.7,11.8A15,15,0,0,0,471.84,795.71Z"/><path class="cls-7" d="M470.34,788a23,23,0,0,1,27,18,22.73,22.73,0,0,1-18.3,26.6,22.72,22.72,0,1,1-8.7-44.6Zm1.5,7.7a14.93,14.93,0,1,0,17.7,11.8A15,15,0,0,0,471.84,795.71Z"/><path class="cls-8" d="M468.34,779a23,23,0,0,1,27,18,22.73,22.73,0,0,1-18.3,26.6,22.72,22.72,0,1,1-8.7-44.6Zm1.5,7.7a14.93,14.93,0,1,0,17.7,11.8A15,15,0,0,0,469.84,786.71Z"/><path class="cls-7" d="M468.34,779a23,23,0,0,1,27,18,22.73,22.73,0,0,1-18.3,26.6,22.72,22.72,0,1,1-8.7-44.6Zm1.5,7.7a14.93,14.93,0,1,0,17.7,11.8A15,15,0,0,0,469.84,786.71Z"/><path class="cls-2" d="M618,755.76a31.42,31.42,0,0,1,36.72,24.51,31,31,0,0,1-24.8,36.24A31.43,31.43,0,0,1,593.22,792,31,31,0,0,1,618,755.76Zm2.12,10.48A20.35,20.35,0,0,0,603.8,790a20.58,20.58,0,0,0,24.12,16,20.36,20.36,0,0,0,16.35-23.74A20.7,20.7,0,0,0,620.14,766.24Z"/><path class="cls-7" d="M618,755.76a31.42,31.42,0,0,1,36.72,24.51,31,31,0,0,1-24.8,36.24A31.43,31.43,0,0,1,593.22,792,31,31,0,0,1,618,755.76Zm2.12,10.48A20.35,20.35,0,0,0,603.8,790a20.58,20.58,0,0,0,24.12,16,20.36,20.36,0,0,0,16.35-23.74A20.7,20.7,0,0,0,620.14,766.24Z"/><path class="cls-8" d="M616.1,747.11a31.42,31.42,0,0,1,36.72,24.51A31,31,0,0,1,628,807.86a31.43,31.43,0,0,1-36.72-24.51A31,31,0,0,1,616.1,747.11Zm2.12,10.48a20.36,20.36,0,0,0-16.35,23.74,20.6,20.6,0,0,0,24.13,16,20.35,20.35,0,0,0,16.34-23.74A20.68,20.68,0,0,0,618.22,757.59Z"/><path class="cls-7" d="M616.1,747.11a31.42,31.42,0,0,1,36.72,24.51A31,31,0,0,1,628,807.86a31.43,31.43,0,0,1-36.72-24.51A31,31,0,0,1,616.1,747.11Zm2.12,10.48a20.36,20.36,0,0,0-16.35,23.74,20.6,20.6,0,0,0,24.13,16,20.35,20.35,0,0,0,16.34-23.74A20.68,20.68,0,0,0,618.22,757.59Z"/><polygon class="cls-9" points="760.47 776.8 758.77 782.5 753.07 784.7 751.37 790.4 746.67 792.2 746.67 794.6 753.27 792.1 754.97 786.4 760.67 784.3 762.37 778.6 768.07 776.4 770.07 769.8 767.57 769.9 766.17 774.7 760.47 776.8"/><polygon class="cls-10" points="758.47 767.8 756.77 773.5 751.07 775.7 749.37 781.4 744.67 783.2 744.67 785.6 751.27 783.1 752.97 777.4 758.67 775.3 760.37 769.6 766.07 767.4 768.07 760.8 765.57 760.9 764.17 765.7 758.47 767.8"/><polygon class="cls-2" points="878.67 779.88 861.07 830.78 825.87 790.08 878.67 779.88"/><polygon class="cls-3" points="876.67 770.88 859.07 821.78 823.87 781.08 876.67 770.88"/><polygon class="cls-9" points="48.95 702.87 47.26 708.57 41.55 710.77 39.85 716.47 35.16 718.27 35.16 720.67 41.76 718.17 43.45 712.47 49.16 710.37 50.85 704.67 56.55 702.47 58.55 695.87 56.05 695.97 54.66 700.77 48.95 702.87"/><polygon class="cls-10" points="46.95 693.87 45.26 699.57 39.55 701.77 37.85 707.47 33.16 709.27 33.16 711.67 39.76 709.17 41.45 703.47 47.16 701.37 48.85 695.67 54.55 693.47 56.55 686.87 54.05 686.97 52.66 691.77 46.95 693.87"/><path class="cls-2" d="M705.69,96.16a23,23,0,0,1,27,18,22.73,22.73,0,0,1-18.3,26.6,22.72,22.72,0,1,1-8.7-44.6Zm1.5,7.7a14.93,14.93,0,1,0,17.7,11.8A15,15,0,0,0,707.19,103.86Z"/><path class="cls-7" d="M705.69,96.16a23,23,0,0,1,27,18,22.73,22.73,0,0,1-18.3,26.6,22.72,22.72,0,1,1-8.7-44.6Zm1.5,7.7a14.93,14.93,0,1,0,17.7,11.8A15,15,0,0,0,707.19,103.86Z"/><path class="cls-8" d="M703.69,87.16a23,23,0,0,1,27,18,22.73,22.73,0,0,1-18.3,26.6,22.72,22.72,0,1,1-8.7-44.6Zm1.5,7.7a14.93,14.93,0,1,0,17.7,11.8A15,15,0,0,0,705.19,94.86Z"/><path class="cls-7" d="M703.69,87.16a23,23,0,0,1,27,18,22.73,22.73,0,0,1-18.3,26.6,22.72,22.72,0,1,1-8.7-44.6Zm1.5,7.7a14.93,14.93,0,1,0,17.7,11.8A15,15,0,0,0,705.19,94.86Z"/><polygon class="cls-9" points="810.94 72.38 795.2 69.05 790.96 53.54 775.22 50.28 771.74 37.34 764.77 38.1 769.69 56.26 785.43 59.51 789.6 75.03 805.34 78.28 809.5 93.8 827.89 97.58 828.27 90.62 815.1 87.89 810.94 72.38"/><polygon class="cls-10" points="809.42 65.57 793.68 62.24 789.44 46.73 773.7 43.47 770.22 30.53 763.26 31.29 768.18 49.45 783.92 52.7 788.08 68.22 803.82 71.47 807.99 86.98 826.37 90.77 826.75 83.81 813.59 81.08 809.42 65.57"/><polygon class="cls-9" points="985.05 802.48 969.32 799.15 965.08 783.64 949.34 780.38 945.86 767.44 938.89 768.2 943.81 786.36 959.55 789.62 963.72 805.13 979.46 808.38 983.62 823.9 1002.01 827.68 1002.38 820.72 989.22 817.99 985.05 802.48"/><polygon class="cls-10" points="983.54 795.67 967.8 792.34 963.56 776.83 947.82 773.57 944.34 760.63 937.38 761.39 942.3 779.55 958.04 782.8 962.2 798.32 977.94 801.57 982.1 817.09 1000.49 820.87 1000.87 813.91 987.7 811.18 983.54 795.67"/><polygon class="cls-9" points="1173.24 597.22 1157.49 593.89 1153.26 578.38 1137.52 575.12 1134.04 562.18 1127.07 562.94 1131.99 581.1 1147.73 584.36 1151.89 599.87 1167.64 603.12 1171.8 618.64 1190.19 622.42 1190.57 615.46 1177.4 612.73 1173.24 597.22"/><polygon class="cls-10" points="1171.72 590.41 1155.98 587.08 1151.74 571.57 1136 568.31 1132.52 555.37 1125.56 556.13 1130.48 574.29 1146.22 577.54 1150.38 593.06 1166.12 596.31 1170.28 611.83 1188.67 615.61 1189.05 608.65 1175.88 605.92 1171.72 590.41"/><polygon class="cls-2" points="1177.11 60.91 1159.51 111.81 1124.31 71.11 1177.11 60.91"/><polygon class="cls-3" points="1175.11 51.91 1157.51 102.81 1122.31 62.11 1175.11 51.91"/><path class="cls-2" d="M1129,170.76a23,23,0,0,1,27,18,22.73,22.73,0,0,1-18.3,26.6,22.72,22.72,0,1,1-8.7-44.6Zm1.5,7.7a14.93,14.93,0,1,0,17.7,11.8A15,15,0,0,0,1130.54,178.46Z"/><path class="cls-7" d="M1129,170.76a23,23,0,0,1,27,18,22.73,22.73,0,0,1-18.3,26.6,22.72,22.72,0,1,1-8.7-44.6Zm1.5,7.7a14.93,14.93,0,1,0,17.7,11.8A15,15,0,0,0,1130.54,178.46Z"/><path class="cls-8" d="M1127,161.76a23,23,0,0,1,27,18,22.73,22.73,0,0,1-18.3,26.6,22.72,22.72,0,1,1-8.7-44.6Zm1.5,7.7a14.93,14.93,0,1,0,17.7,11.8A15,15,0,0,0,1128.54,169.46Z"/><path class="cls-7" d="M1127,161.76a23,23,0,0,1,27,18,22.73,22.73,0,0,1-18.3,26.6,22.72,22.72,0,1,1-8.7-44.6Zm1.5,7.7a14.93,14.93,0,1,0,17.7,11.8A15,15,0,0,0,1128.54,169.46Z"/><polygon class="cls-9" points="1162.24 267.67 1160.54 273.37 1154.84 275.57 1153.14 281.27 1148.44 283.07 1148.44 285.47 1155.04 282.97 1156.74 277.27 1162.44 275.17 1164.14 269.47 1169.84 267.27 1171.84 260.67 1169.34 260.77 1167.94 265.57 1162.24 267.67"/><polygon class="cls-10" points="1160.24 258.67 1158.54 264.37 1152.84 266.57 1151.14 272.27 1146.44 274.07 1146.44 276.47 1153.04 273.97 1154.74 268.27 1160.44 266.17 1162.14 260.47 1167.84 258.27 1169.84 251.67 1167.34 251.77 1165.94 256.57 1160.24 258.67"/><polygon class="cls-2" points="1141.49 357.18 1115.99 370.57 1117.09 341.77 1141.49 357.18"/><polygon class="cls-11" points="1139.49 348.18 1113.99 361.57 1115.09 332.77 1139.49 348.18"/><polygon class="cls-2" points="1185.14 434.79 1167.54 485.69 1132.34 444.99 1185.14 434.79"/><polygon class="cls-3" points="1183.14 425.79 1165.54 476.69 1130.34 435.99 1183.14 425.79"/><polygon class="cls-9" points="1107.92 687.62 1106.22 693.32 1100.52 695.52 1098.82 701.22 1094.12 703.02 1094.12 705.42 1100.72 702.92 1102.42 697.22 1108.12 695.12 1109.82 689.42 1115.52 687.22 1117.52 680.62 1115.02 680.72 1113.62 685.52 1107.92 687.62"/><polygon class="cls-10" points="1105.92 678.62 1104.22 684.32 1098.52 686.52 1096.82 692.22 1092.12 694.02 1092.12 696.42 1098.72 693.92 1100.42 688.22 1106.12 686.12 1107.82 680.42 1113.52 678.22 1115.52 671.62 1113.02 671.72 1111.62 676.52 1105.92 678.62"/><path class="cls-2" d="M1130.08,766.21a23,23,0,0,1,27,18,22.73,22.73,0,0,1-18.3,26.6,22.72,22.72,0,1,1-8.7-44.6Zm1.5,7.7a14.93,14.93,0,1,0,17.7,11.8A15,15,0,0,0,1131.58,773.91Z"/><path class="cls-7" d="M1130.08,766.21a23,23,0,0,1,27,18,22.73,22.73,0,0,1-18.3,26.6,22.72,22.72,0,1,1-8.7-44.6Zm1.5,7.7a14.93,14.93,0,1,0,17.7,11.8A15,15,0,0,0,1131.58,773.91Z"/><path class="cls-8" d="M1128.08,757.21a23,23,0,0,1,27,18,22.73,22.73,0,0,1-18.3,26.6,22.72,22.72,0,1,1-8.7-44.6Zm1.5,7.7a14.93,14.93,0,1,0,17.7,11.8A15,15,0,0,0,1129.58,764.91Z"/><path class="cls-7" d="M1128.08,757.21a23,23,0,0,1,27,18,22.73,22.73,0,0,1-18.3,26.6,22.72,22.72,0,1,1-8.7-44.6Zm1.5,7.7a14.93,14.93,0,1,0,17.7,11.8A15,15,0,0,0,1129.58,764.91Z"/><polygon class="cls-9" points="921.96 63.99 920.26 69.69 914.56 71.89 912.86 77.59 908.16 79.39 908.16 81.8 914.76 79.3 916.46 73.59 922.16 71.5 923.86 65.8 929.56 63.59 931.56 56.99 929.06 57.09 927.66 61.9 921.96 63.99"/><polygon class="cls-10" points="919.96 54.99 918.26 60.7 912.56 62.9 910.86 68.59 906.16 70.39 906.16 72.8 912.76 70.3 914.46 64.59 920.16 62.49 921.86 56.8 927.56 54.59 929.56 47.99 927.06 48.09 925.66 52.9 919.96 54.99"/><polygon class="cls-2" points="1033.9 102.61 1008.4 116.01 1009.5 87.21 1033.9 102.61"/><polygon class="cls-12" points="1031.9 93.61 1006.4 107.01 1007.5 78.21 1031.9 93.61"/><polygon class="cls-9" points="92.21 792.13 81.94 789.96 79.18 779.85 68.92 777.73 66.65 769.29 62.11 769.78 65.32 781.63 75.58 783.75 78.29 793.86 88.56 795.98 91.27 806.1 103.26 808.57 103.51 804.02 94.92 802.25 92.21 792.13"/><polygon class="cls-10" points="91.22 787.69 80.96 785.52 78.19 775.41 67.93 773.29 65.66 764.85 61.12 765.34 64.33 777.18 74.59 779.31 77.31 789.42 87.57 791.54 90.28 801.66 102.27 804.12 102.52 799.59 93.93 797.81 91.22 787.69"/></g></g></svg>