<svg xmlns="http://www.w3.org/2000/svg" xmlns:xlink="http://www.w3.org/1999/xlink" viewBox="0 0 221.25 184.54"><defs><style>.cls-1{fill:url(#Degradado_sin_nombre_13);}.cls-2{fill:url(#Degradado_sin_nombre_13-2);}.cls-3{fill:url(#Degradado_sin_nombre_13-3);}</style><linearGradient id="Degradado_sin_nombre_13" y1="97.12" x2="168.38" y2="97.12" gradientUnits="userSpaceOnUse"><stop offset="0" stop-color="#e5e00f"/><stop offset="0.49" stop-color="#e6d214"/><stop offset="0.96" stop-color="#e5a800"/></linearGradient><linearGradient id="Degradado_sin_nombre_13-2" x1="165.65" y1="42.51" x2="221.25" y2="42.51" xlink:href="#Degradado_sin_nombre_13"/><linearGradient id="Degradado_sin_nombre_13-3" x1="113.48" y1="17.35" x2="144.5" y2="17.35" xlink:href="#Degradado_sin_nombre_13"/></defs><g id="Capa_2" data-name="Capa 2"><g id="Pie_de_página" data-name="Pie de página"><path class="cls-1" d="M22.66,33c-35.95,35.46-18.8,90.34-17,95.73,9.86,29.87,35.77,59.9,51.06,55.31,19-5.7,6.31-60.13,31.91-72.33,23.16-11,50.63,25.38,68.07,14.89S173.37,64.35,146,35.16C116.3,3.39,56.26-.12,22.66,33Z"/><path class="cls-2" d="M166,38.25c-2.43,10.9,8.54,25.89,20.63,27.77,20.48,3.18,39.92-31.92,33.32-42C213,13.29,170.13,19.71,166,38.25Z"/><path class="cls-3" d="M113.67,14.23c-1.36,8,4.76,19,11.51,20.32,11.42,2.33,22.27-23.36,18.59-30.77C139.88-4,116,.66,113.67,14.23Z"/><path d="M159.11,126.67l-34.19-13.74-17.23-3.3c-.12.38-.28.93-.45,1.62a31.3,31.3,0,0,0-.64,8.58c.08,4,.13,5,.14,6.09a41.8,41.8,0,0,1-1.63,11.86c7.43,5.76,11.3,8.18,13.45,9.18a5,5,0,0,1,1.92,1.47c1.47,1.88,1.11,4.58.63,6.47l-17.64-4.19c-1.12,2.79-2.23,5.58-3.35,8.38q-1.5-4.29-3-8.57L80,154.4c-.13-.34-1.29-3.39.41-5.8a5.14,5.14,0,0,1,1.66-1.5l13.12-8.58c-.48-2.27-.9-4.66-1.24-7.18a98.53,98.53,0,0,1-.56-21c-1.32.12-3.35.33-5.82.67-2.84.41-11.45,1.74-27.16,7.19-4.5,1.56-10.49,3.77-17.48,6.75a8.45,8.45,0,0,1,0-4.3,8.68,8.68,0,0,1,2.77-4.29L92.43,84.08V82.75c.58-13.26,1.19-23.84,1.43-31.31,0,0,0-5.12,3.47-13.26.83-2,1.74-3.74,3.2-3.94s3.08,1.58,3.75,2.41c4,5,3.92,13.27,3.63,17.27q.5,15,1,30l45,32.85a8.45,8.45,0,0,1,4.14,3.2,8.76,8.76,0,0,1,1.14,6.75"/></g></g></svg>