<svg xmlns="http://www.w3.org/2000/svg" xmlns:xlink="http://www.w3.org/1999/xlink" viewBox="0 0 221.25 184.54"><defs><style>.cls-1{fill:url(#Degradado_sin_nombre_13);}.cls-2{fill:url(#Degradado_sin_nombre_13-2);}.cls-3{fill:url(#Degradado_sin_nombre_13-3);}</style><linearGradient id="Degradado_sin_nombre_13" y1="97.12" x2="168.38" y2="97.12" gradientUnits="userSpaceOnUse"><stop offset="0" stop-color="#e5e00f"/><stop offset="0.49" stop-color="#e6d214"/><stop offset="0.96" stop-color="#e5a800"/></linearGradient><linearGradient id="Degradado_sin_nombre_13-2" x1="165.65" y1="42.51" x2="221.25" y2="42.51" xlink:href="#Degradado_sin_nombre_13"/><linearGradient id="Degradado_sin_nombre_13-3" x1="113.48" y1="17.35" x2="144.5" y2="17.35" xlink:href="#Degradado_sin_nombre_13"/></defs><g id="Capa_2" data-name="Capa 2"><g id="Pie_de_página" data-name="Pie de página"><path class="cls-1" d="M22.66,33c-35.95,35.46-18.8,90.34-17,95.73,9.86,29.87,35.77,59.9,51.06,55.31,19-5.7,6.31-60.13,31.91-72.33,23.16-11,50.63,25.38,68.07,14.89S173.37,64.35,146,35.16C116.3,3.39,56.26-.12,22.66,33Z"/><path class="cls-2" d="M166,38.25c-2.43,10.9,8.54,25.89,20.63,27.77,20.48,3.18,39.92-31.92,33.32-42C213,13.29,170.13,19.71,166,38.25Z"/><path class="cls-3" d="M113.67,14.23c-1.36,8,4.76,19,11.51,20.32,11.42,2.33,22.27-23.36,18.59-30.77C139.88-4,116,.66,113.67,14.23Z"/><path d="M111.12,120.82a12.43,12.43,0,1,0,12.42,12.43A12.43,12.43,0,0,0,111.12,120.82Zm0,15.42a3,3,0,1,1,3-3A3,3,0,0,1,111.12,136.24Z"/><path d="M63.86,120.82a12.43,12.43,0,1,0,12.42,12.43A12.44,12.44,0,0,0,63.86,120.82Zm0,15.42a3,3,0,1,1,3-3A3,3,0,0,1,63.85,136.24Z"/><path d="M130.88,119.77H44.37a2,2,0,0,1-2-2V60H32.82a2,2,0,0,1,0-4H44.37a2,2,0,0,1,2,2v57.71h84.49a2,2,0,1,1,0,4Z"/><path d="M49.61,50.78v62.58h77.71V50.78ZM73.16,83.2l3.39,6.67-1.71,0,.08,15.53-3.28,0-.09-15.53H69.84Zm-10,.1L66.55,90H64.84l.08,15.52H61.64L61.56,90H59.84ZM57.8,108.61l0-1.64,21-.12v1.64Zm60.06-39.16a7.73,7.73,0,0,0-4.9,1.76,12.8,12.8,0,0,0-7.54-2.36l.32,17.86a2.36,2.36,0,1,0,4.72-.08v-.5l1.47,0,0,.5a3.85,3.85,0,1,1-7.69.14L104,68.83c-3.33.16-6.23,1.17-7.9,2.68a7.74,7.74,0,0,0-5-1.59,8.23,8.23,0,0,0-3.24.72,16.7,16.7,0,0,1,33.27-.6A8.34,8.34,0,0,0,117.86,69.45Z"/></g></g></svg>