<svg xmlns="http://www.w3.org/2000/svg" xmlns:xlink="http://www.w3.org/1999/xlink" viewBox="0 0 221.25 184.54"><defs><style>.cls-1{fill:url(#Degradado_sin_nombre_13);}.cls-2{fill:url(#Degradado_sin_nombre_13-2);}.cls-3{fill:url(#Degradado_sin_nombre_13-3);}.cls-4{fill:none;stroke:#000;stroke-miterlimit:10;stroke-width:5px;}</style><linearGradient id="Degradado_sin_nombre_13" y1="97.12" x2="168.38" y2="97.12" gradientUnits="userSpaceOnUse"><stop offset="0" stop-color="#e5e00f"/><stop offset="0.49" stop-color="#e6d214"/><stop offset="0.96" stop-color="#e5a800"/></linearGradient><linearGradient id="Degradado_sin_nombre_13-2" x1="165.65" y1="42.51" x2="221.25" y2="42.51" xlink:href="#Degradado_sin_nombre_13"/><linearGradient id="Degradado_sin_nombre_13-3" x1="113.48" y1="17.35" x2="144.5" y2="17.35" xlink:href="#Degradado_sin_nombre_13"/></defs><g id="Capa_2" data-name="Capa 2"><g id="Pie_de_página" data-name="Pie de página"><path class="cls-1" d="M22.66,33c-35.95,35.46-18.8,90.34-17,95.73,9.86,29.87,35.77,59.9,51.06,55.31,19-5.7,6.31-60.13,31.91-72.33,23.16-11,50.63,25.38,68.07,14.89S173.37,64.35,146,35.16C116.3,3.39,56.26-.12,22.66,33Z"/><path class="cls-2" d="M166,38.25c-2.43,10.9,8.54,25.89,20.63,27.77,20.48,3.18,39.92-31.92,33.32-42C213,13.29,170.13,19.71,166,38.25Z"/><path class="cls-3" d="M113.67,14.23c-1.36,8,4.76,19,11.51,20.32,11.42,2.33,22.27-23.36,18.59-30.77C139.88-4,116,.66,113.67,14.23Z"/><path d="M49.67,138.28a12,12,0,1,1,12-12A12.05,12.05,0,0,1,49.67,138.28Z"/><path d="M103.75,138.28a12,12,0,1,1,12-12A12.05,12.05,0,0,1,103.75,138.28Z"/><path d="M103.75,128.09H52.36A4.53,4.53,0,0,1,48,122.17l6.91-17a1.86,1.86,0,1,1,3.44,1.4l-6.86,16.83a.86.86,0,0,0,.84.94h51.39a1.86,1.86,0,1,1,0,3.71Z"/><path d="M119.61,60.57A4.55,4.55,0,0,0,116,58.72l-77.41,0L34.9,50.41a1.86,1.86,0,0,0-1.7-1.12H16A1.86,1.86,0,0,0,16,53H32l22.71,52a4.52,4.52,0,0,0,4.16,2.75h44.48a4.53,4.53,0,0,0,4.33-3.18l12.62-40A4.57,4.57,0,0,0,119.61,60.57ZM99.54,97h-38a1.86,1.86,0,0,1,0-3.72h38a1.86,1.86,0,0,1,0,3.72Zm3.24-11.73H58.32a1.86,1.86,0,1,1,0-3.71h44.46a1.86,1.86,0,1,1,0,3.71Zm2.66-11.73H55.66a1.86,1.86,0,1,1,0-3.71h49.78a1.86,1.86,0,1,1,0,3.71Z"/><path d="M19.49,51.28a2.93,2.93,0,1,1-2.92-2.93A2.93,2.93,0,0,1,19.49,51.28Z"/><path d="M129.9,94.54h35A4.47,4.47,0,0,1,169.38,99v10.82a21.46,21.46,0,0,1-21.46,21.46h-1a21.46,21.46,0,0,1-21.46-21.46V99A4.47,4.47,0,0,1,129.9,94.54Z"/><path class="cls-4" d="M147.41,76h.17a19.28,19.28,0,0,1,19.28,19.28v10.36a4,4,0,0,1-4,4H132.15a4,4,0,0,1-4-4V95.23A19.28,19.28,0,0,1,147.41,76Z"/></g></g></svg>