<svg xmlns="http://www.w3.org/2000/svg" viewBox="0 0 225.73 68.56"><defs><style>.cls-1{fill:#fff;}.cls-2{fill:#e57d0c;}</style></defs><g id="Capa_2" data-name="Capa 2"><g id="Cabecera"><path class="cls-1" d="M203.3,3.65c-.92,0-1.58,0-2.24,0-3.29-.07-6.13.75-8.08,3.7a2.46,2.46,0,0,1-3.44.93,7.16,7.16,0,0,0-6,0c-1.47.54-1.51.52-1.59,2.13-.18,3.71-.29,7.42-.5,11.13a84.42,84.42,0,0,1-3,18.28c-1,3.71-.62,7.08,2.46,9.78a1.43,1.43,0,0,0,1.49.33q19.66-5.1,39.36-10.14a1.48,1.48,0,0,0,1.18-1c.79-2.22,1.63-4.42,2.33-6.67a7.62,7.62,0,0,0,.22-4.26c-.7-2.66-4.59-4.92-7.3-4.28-2,.47-3.92,1-5.9,1.34-2.53.45-5.08.76-7.62,1.09a2.41,2.41,0,0,1-2.09-.81,6.17,6.17,0,0,1-1.77-4.9c.16-2.64.51-5.27.91-7.88C202.18,9.53,202.75,6.68,203.3,3.65ZM91.08,17.8c-1.51.26-2.87.53-4.24.72-.54.07-.71.3-.8.8q-3.53,19.51-7.07,39c-.21,1.15-.4,2.3-.62,3.57,1.77-.29,3.38-.59,5-.83a.92.92,0,0,0,.91-.9c.81-4.59,1.68-9.18,2.46-13.77.65-3.83,1.21-7.68,1.81-11.51l.16,0C90,43,91.27,51.21,92.58,59.47c1.42-.24,2.75-.45,4.07-.73.19,0,.42-.36.46-.58.44-2.26.83-4.53,1.24-6.8q2.82-15.51,5.63-31c.29-1.61.57-3.21.88-4.9-1.76.3-3.37.61-5,.84a.76.76,0,0,0-.75.75C98,23.67,96.86,30.31,95.75,37c-.26,1.54-.46,3.09-.69,4.64h-.15C93.64,33.69,92.37,25.8,91.08,17.8ZM15.79,60.25c1.89-.31,3.64-.66,5.4-.88.86-.11,1.11-.49,1.25-1.28,1.13-6.41,2.3-12.81,3.45-19.22a.78.78,0,0,1,.76-.75c1.65-.25,3.3-.56,5-.84,1.85-.3,1.86-.29,2.2-2.08.26-1.37.48-2.74.74-4.21l-7.36,1.25a1.35,1.35,0,0,1,0-.32c.64-3.55,1.3-7.08,1.91-10.63a1,1,0,0,1,1-1c2.39-.37,4.77-.81,7.18-1.22l1.06-5.87c-.32,0-.57,0-.82.05C33.33,14,29.16,14.74,25,15.38c-.95.15-1.19.56-1.34,1.38q-3.6,20-7.23,40C16.19,57.86,16,59,15.79,60.25Zm179.66-7.16c-.81,3.37.2,5.93,2.7,7.19A5.67,5.67,0,0,0,205,59c2-2.36,1.82-4.87-.7-8.28l2.83-.78c.93-.25,1.86-.48,2.83-.73-.54,3.86.41,6.06,3.05,7.27A5.65,5.65,0,0,0,219.69,55a5.43,5.43,0,0,0,1.3-3.41,5.74,5.74,0,0,0-2.21-4.76c.69-.32,1.28-.55,1.84-.84a7.58,7.58,0,0,0,2.94-3.08,1.17,1.17,0,0,0,0-1c-.16-.21-.66-.21-1-.2a4.43,4.43,0,0,0-1,.21q-20.91,5.46-41.82,10.94a5.94,5.94,0,0,0-4.14,4,4.38,4.38,0,0,0-.06,1.41c.42,0,.84-.06,1.25-.12s.67-.18,1-.27l2.85-.76c-.62,3.44.43,5.88,2.95,7.07a5.74,5.74,0,0,0,6.77-1.44c1.91-2.27,1.73-4.76-.61-8.1ZM51.68,24c-1.18.2-2.2.42-3.23.51-.85.07-1.11.49-1.24,1.28Q45.67,34.53,44,43.28a7.68,7.68,0,0,1-1,2.65A3.24,3.24,0,0,1,41.4,47a.82.82,0,0,1-1.15-.88,9.76,9.76,0,0,1,.09-1.71c.93-5.22,1.89-10.43,2.84-15.64.2-1.12.39-2.24.6-3.44-1.31.23-2.47.46-3.63.62-.54.07-.69.31-.78.81-1,5.65-2.06,11.28-3,16.93a31.73,31.73,0,0,0-.52,5c0,1.68,1,2.5,2.67,2.46a4.7,4.7,0,0,0,3.73-1.88L43.13,48l-.28,2.09c1.36-.24,2.61-.42,3.84-.7.22,0,.45-.46.5-.74,1-5.6,2.05-11.22,3.07-16.83C50.73,29.26,51.19,26.69,51.68,24Zm4.06-.7c-1.54,8.49-3.06,16.89-4.6,25.4,1.31-.23,2.47-.46,3.63-.61.54-.07.69-.32.78-.82Q57.17,38.1,58.85,29a4.54,4.54,0,0,1,1.44-2.88,1.65,1.65,0,0,1,1.91-.42c.68.39.64,1.09.52,1.77q-1.41,7.69-2.8,15.38c-.26,1.46-.51,2.92-.78,4.48,1.29-.22,2.44-.45,3.61-.61.52-.07.69-.29.78-.8,1-5.64,2.07-11.27,3-16.91a30.59,30.59,0,0,0,.54-5.13c0-1.63-1-2.42-2.67-2.34a4.68,4.68,0,0,0-3.17,1.4c-.55.54-1,1.13-1.62,1.79L60,22.54Zm83.15,9.6c-1.07.19-2,.28-2.82.5a1.65,1.65,0,0,0-.94.71c-1.31,2.5-2.56,5-3.83,7.55l-.41.76-.15-.07c.72-4,1.43-7.95,2.16-12-1,.17-1.8.36-2.63.45-.59.06-.81.3-.91.89Q127.7,41,126,50.37c-.26,1.43-.5,2.86-.77,4.38,1-.18,1.93-.37,2.84-.48.47-.06.6-.29.67-.72.26-1.62.57-3.23.86-4.84.22-1.18.45-2.36.67-3.53h.14c.53,2.79,1.07,5.57,1.62,8.4l3.44-.61c-.59-2.81-1.12-5.56-1.76-8.27a3.36,3.36,0,0,1,.39-2.54C135.67,39.15,137.22,36.1,138.89,32.88Zm.64,5.7.3.21c.93-.16,1.86-.3,2.78-.5a.9.9,0,0,0,.49-.55,13.63,13.63,0,0,1,.6-2.15A2.92,2.92,0,0,1,145,34.48c.5-.24.94.05.87.67-.11,1.11-.27,2.22-.47,3.32,0,.2-.31.39-.52.51-1.05.6-2.13,1.15-3.17,1.77a6,6,0,0,0-3,3.52,28.18,28.18,0,0,0-.91,5.84c-.09,2,1.14,2.74,3,2.12a5.78,5.78,0,0,0,1.59-1,6.64,6.64,0,0,0,.91-1l-.18,1.39a18.43,18.43,0,0,1,2.23-.36c.91,0,1.25-.42,1.39-1.32.63-3.74,1.37-7.47,2-11.21a36,36,0,0,0,.56-5,2.11,2.11,0,0,0-2.1-2.39c-2.51-.11-4.76.61-6.05,2.92A29.75,29.75,0,0,0,139.53,38.58ZM168.12,40c-1,.16-1.85.32-2.7.44a.74.74,0,0,0-.75.75,21.27,21.27,0,0,1-.46,2.38,3.64,3.64,0,0,1-.65,1.56c-.34.36-1,.43-1.49.63-.15-.4-.47-.82-.42-1.19.23-1.8.53-3.59.86-5.37,0-.17.4-.36.63-.4,1.5-.29,3-.58,4.52-.78.69-.09,1-.34,1.08-1,.16-1.17.48-2.32.6-3.49a16.68,16.68,0,0,0,.1-3.6,2.1,2.1,0,0,0-2.35-1.94,6.48,6.48,0,0,0-4.32,1.49,8.18,8.18,0,0,0-2.7,4.9c-.52,2.54-1,5.09-1.39,7.65a27.52,27.52,0,0,0-.33,4.63,2.08,2.08,0,0,0,1.9,2.13,6.29,6.29,0,0,0,6.16-2.86A16.31,16.31,0,0,0,168.12,40Zm-50,9.22c-1,.17-1.89.32-2.79.5-.16,0-.4.22-.41.34a30.6,30.6,0,0,0-.26,4.37,1.92,1.92,0,0,0,2.2,1.86,9.4,9.4,0,0,0,3-.57c2.56-1,4.19-4.29,3.87-7.49a5.18,5.18,0,0,0-1.5-3.22c-.56-.58-1.17-1.11-1.73-1.69a3.08,3.08,0,0,1-.29-4c.31-.38,1-.49,1.45-.73a4.36,4.36,0,0,1,.5,1.35,18.29,18.29,0,0,1-.3,2.43c.92-.15,1.75-.25,2.56-.43a.73.73,0,0,0,.47-.48,27.77,27.77,0,0,0,.31-3.86,2,2,0,0,0-2.21-2,6.37,6.37,0,0,0-1.38.1c-3.33.67-5.26,3.21-5.32,6.91a4.87,4.87,0,0,0,1.69,3.9c.48.43.93.87,1.38,1.32a3.84,3.84,0,0,1,.31,4.79c-.26.39-1,.48-1.44.71a4.06,4.06,0,0,1-.48-1.35A22.51,22.51,0,0,1,118.09,49.19ZM.28,68.56,69.36,55.22,69,53.76,0,67.08Zm107.1-4.18,66.87-12.44L174,50.46,107.1,62.9ZM155.74,47c-1.87.17-1.87.17-1.55-1.62.7-3.85,1.42-7.7,2.08-11.56.14-.82.47-1.17,1.28-1.25a1.08,1.08,0,0,0,.81-.51,18,18,0,0,0,.42-2.16l-1.8.2.67-3.83c-1.09.19-2.06.33-3,.54-.19,0-.4.37-.46.59a23.56,23.56,0,0,0-.48,2.64.81.81,0,0,1-.86.84c-.3,0-.78.2-.84.41a19.71,19.71,0,0,0-.44,2.31l1.51-.18c-.55,3-1.08,5.9-1.59,8.79-.36,2-.74,4-1,6.05-.22,1.45.39,2.06,1.85,1.92a18.69,18.69,0,0,0,2.47-.4.88.88,0,0,0,.57-.51C155.51,48.58,155.6,47.84,155.74,47Zm17.43-31.1L114.8,27.46l.31,1.47L173.43,17.4ZM18.43,12.23,75.11,1.47,74.8,0,18.15,10.75Zm85.43,31.11c2.51-.43,4.86-.83,7.22-1.25a.69.69,0,0,0,.47-.37c.19-.86.33-1.73.51-2.69-2.5.42-4.88.81-7.25,1.24a.8.8,0,0,0-.48.5C104.15,41.57,104,42.39,103.86,43.34ZM78,32.67c-2.4.4-4.75.8-7.1,1.22-.19,0-.46.21-.49.37-.2.85-.33,1.72-.5,2.71,1.78-.31,3.42-.59,5-.89.87-.15,2-.08,2.52-.6s.41-1.67.58-2.55C78,32.89,78,32.83,78,32.67Z"/><path class="cls-2" d="M203.3,3.65c-.55,3-1.12,5.88-1.55,8.76-.4,2.61-.75,5.24-.91,7.88a6.17,6.17,0,0,0,1.77,4.9,2.41,2.41,0,0,0,2.09.81c2.54-.33,5.09-.64,7.62-1.09,2-.35,3.94-.87,5.9-1.34,2.71-.64,6.6,1.62,7.3,4.28a7.62,7.62,0,0,1-.22,4.26c-.7,2.25-1.54,4.45-2.33,6.67a1.48,1.48,0,0,1-1.18,1q-19.69,5-39.36,10.14a1.43,1.43,0,0,1-1.49-.33c-3.08-2.7-3.5-6.07-2.46-9.78a84.42,84.42,0,0,0,3-18.28c.21-3.71.32-7.42.5-11.13.08-1.61.12-1.59,1.59-2.13a7.16,7.16,0,0,1,6,0A2.46,2.46,0,0,0,193,7.35c2-2.95,4.79-3.77,8.08-3.7C201.72,3.66,202.38,3.65,203.3,3.65Zm-12.57,39A2.72,2.72,0,0,0,193.47,40a2.76,2.76,0,0,0-2.67-2.73A2.68,2.68,0,0,0,188.09,40,2.63,2.63,0,0,0,190.73,42.68Zm-5-12.33A1.85,1.85,0,0,0,184,32.16a1.74,1.74,0,0,0,1.76,1.66,1.71,1.71,0,0,0,1.72-1.77A1.82,1.82,0,0,0,185.7,30.35Z"/><path d="M91.08,17.8c1.29,8,2.56,15.89,3.83,23.79h.15c.23-1.55.43-3.1.69-4.64C96.86,30.31,98,23.67,99.12,17a.76.76,0,0,1,.75-.75c1.62-.23,3.23-.54,5-.84-.31,1.69-.59,3.29-.88,4.9q-2.81,15.51-5.63,31c-.41,2.27-.8,4.54-1.24,6.8,0,.22-.27.55-.46.58-1.32.28-2.65.49-4.07.73C91.27,51.21,90,43,88.69,34.87l-.16,0c-.6,3.83-1.16,7.68-1.81,11.51-.78,4.59-1.65,9.18-2.46,13.77a.92.92,0,0,1-.91.9c-1.62.24-3.23.54-5,.83.22-1.27.41-2.42.62-3.57q3.52-19.5,7.07-39c.09-.5.26-.73.8-.8C88.21,18.33,89.57,18.06,91.08,17.8Z"/><path d="M15.79,60.25c.21-1.24.4-2.39.61-3.54q3.62-20,7.23-39.95c.15-.82.39-1.23,1.34-1.38,4.19-.64,8.36-1.41,12.54-2.13.25,0,.5,0,.82-.05l-1.06,5.87c-2.41.41-4.79.85-7.18,1.22a1,1,0,0,0-1,1c-.61,3.55-1.27,7.08-1.91,10.63a1.35,1.35,0,0,0,0,.32L34.54,31c-.26,1.47-.48,2.84-.74,4.21-.34,1.79-.35,1.78-2.2,2.08-1.65.28-3.3.59-5,.84a.78.78,0,0,0-.76.75c-1.15,6.41-2.32,12.81-3.45,19.22-.14.79-.39,1.17-1.25,1.28C19.43,59.59,17.68,59.94,15.79,60.25Z"/><path d="M195.45,53.09l-5.69,1.53c2.34,3.34,2.52,5.83.61,8.1a5.74,5.74,0,0,1-6.77,1.44c-2.52-1.19-3.57-3.63-2.95-7.07l-2.85.76c-.33.09-.66.21-1,.27s-.83.08-1.25.12a4.38,4.38,0,0,1,.06-1.41,5.94,5.94,0,0,1,4.14-4q20.91-5.49,41.82-10.94a4.43,4.43,0,0,1,1-.21c.35,0,.85,0,1,.2a1.17,1.17,0,0,1,0,1,7.58,7.58,0,0,1-2.94,3.08c-.56.29-1.15.52-1.84.84A5.74,5.74,0,0,1,221,51.54a5.43,5.43,0,0,1-1.3,3.41A5.65,5.65,0,0,1,213,56.47c-2.64-1.21-3.59-3.41-3.05-7.27-1,.25-1.9.48-2.83.73l-2.83.78c2.52,3.41,2.72,5.92.7,8.28a5.67,5.67,0,0,1-6.86,1.29C195.65,59,194.64,56.46,195.45,53.09Zm5.28,5.21a3.58,3.58,0,0,0,3.33-2.44,3.53,3.53,0,0,0-1.22-3.93,1.77,1.77,0,0,0-1.84-.36,9.16,9.16,0,0,1-2,.54c-1.21.15-1.63,1-1.83,2A3.56,3.56,0,0,0,200.73,58.3ZM219,50.79a11.19,11.19,0,0,0-.57-1.69,2.34,2.34,0,0,0-3.09-1.34,19.53,19.53,0,0,0-2.15.6,1.89,1.89,0,0,0-1,.75,3.41,3.41,0,0,0,.4,4,3.54,3.54,0,0,0,3.92,1A3.87,3.87,0,0,0,219,50.79Zm-29.24,7.64a11.85,11.85,0,0,0-1-2.07,1.84,1.84,0,0,0-2.44-.83c-.84.35-1.78.46-2.65.77a1.67,1.67,0,0,0-.87.72,3.43,3.43,0,0,0,.57,3.93,3.54,3.54,0,0,0,3.89.9A4,4,0,0,0,189.71,58.43Z"/><path d="M51.68,24c-.49,2.71-1,5.28-1.42,7.85-1,5.61-2,11.23-3.07,16.83,0,.28-.28.69-.5.74-1.23.28-2.48.46-3.84.7L43.13,48l-.93,1.21a4.7,4.7,0,0,1-3.73,1.88c-1.67,0-2.69-.78-2.67-2.46a31.73,31.73,0,0,1,.52-5c1-5.65,2-11.28,3-16.93.09-.5.24-.74.78-.81,1.16-.16,2.32-.39,3.63-.62-.21,1.2-.4,2.32-.6,3.44-1,5.21-1.91,10.42-2.84,15.64a9.76,9.76,0,0,0-.09,1.71A.82.82,0,0,0,41.4,47a3.24,3.24,0,0,0,1.66-1.06,7.68,7.68,0,0,0,1-2.65q1.65-8.74,3.18-17.51c.13-.79.39-1.21,1.24-1.28C49.48,24.4,50.5,24.18,51.68,24Z"/><path d="M55.74,23.28,60,22.54l-.34,2.17c.59-.66,1.07-1.25,1.62-1.79a4.68,4.68,0,0,1,3.17-1.4c1.64-.08,2.68.71,2.67,2.34A30.59,30.59,0,0,1,66.58,29c-1,5.64-2,11.27-3,16.91-.09.51-.26.73-.78.8-1.17.16-2.32.39-3.61.61.27-1.56.52-3,.78-4.48q1.39-7.68,2.8-15.38c.12-.68.16-1.38-.52-1.77a1.65,1.65,0,0,0-1.91.42A4.54,4.54,0,0,0,58.85,29q-1.66,9.12-3.3,18.27c-.09.5-.24.75-.78.82-1.16.15-2.32.38-3.63.61C52.68,40.17,54.2,31.77,55.74,23.28Z"/><path d="M138.89,32.88c-1.67,3.22-3.22,6.27-4.82,9.29a3.36,3.36,0,0,0-.39,2.54c.64,2.71,1.17,5.46,1.76,8.27l-3.44.61c-.55-2.83-1.09-5.61-1.62-8.4h-.14c-.22,1.17-.45,2.35-.67,3.53-.29,1.61-.6,3.22-.86,4.84-.07.43-.2.66-.67.72-.91.11-1.81.3-2.84.48.27-1.52.51-3,.77-4.38q1.71-9.34,3.39-18.7c.1-.59.32-.83.91-.89.83-.09,1.64-.28,2.63-.45-.73,4.05-1.44,8-2.16,12l.15.07.41-.76c1.27-2.52,2.52-5,3.83-7.55a1.65,1.65,0,0,1,.94-.71C136.93,33.16,137.82,33.07,138.89,32.88Z"/><path d="M139.53,38.58a29.75,29.75,0,0,1,1.6-4.23c1.29-2.31,3.54-3,6.05-2.92a2.11,2.11,0,0,1,2.1,2.39,36,36,0,0,1-.56,5c-.63,3.74-1.37,7.47-2,11.21-.14.9-.48,1.29-1.39,1.32a18.43,18.43,0,0,0-2.23.36l.18-1.39a6.64,6.64,0,0,1-.91,1,5.78,5.78,0,0,1-1.59,1c-1.89.62-3.12-.16-3-2.12a28.18,28.18,0,0,1,.91-5.84,6,6,0,0,1,3-3.52c1-.62,2.12-1.17,3.17-1.77.21-.12.48-.31.52-.51.2-1.1.36-2.21.47-3.32.07-.62-.37-.91-.87-.67a2.92,2.92,0,0,0-1.29,1.11,13.63,13.63,0,0,0-.6,2.15.9.9,0,0,1-.49.55c-.92.2-1.85.34-2.78.5ZM145,40.85c-1.19.68-2.41,1.25-2.77,2.44a35.06,35.06,0,0,0-1,5.31c-.1.68.44.95,1.11.67a2.41,2.41,0,0,0,1.47-1.89C144.19,45.26,144.57,43.14,145,40.85Z"/><path d="M168.12,40a16.31,16.31,0,0,1-1.71,5.89,6.29,6.29,0,0,1-6.16,2.86,2.08,2.08,0,0,1-1.9-2.13,27.52,27.52,0,0,1,.33-4.63c.39-2.56.87-5.11,1.39-7.65a8.18,8.18,0,0,1,2.7-4.9,6.48,6.48,0,0,1,4.32-1.49,2.1,2.1,0,0,1,2.35,1.94,16.68,16.68,0,0,1-.1,3.6c-.12,1.17-.44,2.32-.6,3.49-.09.7-.39.95-1.08,1-1.51.2-3,.49-4.52.78-.23,0-.6.23-.63.4-.33,1.78-.63,3.57-.86,5.37-.05.37.27.79.42,1.19.51-.2,1.15-.27,1.49-.63a3.64,3.64,0,0,0,.65-1.56,21.27,21.27,0,0,0,.46-2.38.74.74,0,0,1,.75-.75C166.27,40.29,167.12,40.13,168.12,40Zm-5.3-3.25a21.72,21.72,0,0,0,2.15-.37,1,1,0,0,0,.65-.59c.26-1.21.47-2.43.61-3.65,0-.37-.14-1.07-.34-1.12a2.25,2.25,0,0,0-1.34.28A1.23,1.23,0,0,0,164,32C163.59,33.52,163.24,35,162.82,36.72Z"/><path d="M118.09,49.19a22.51,22.51,0,0,0-.35,2.7,4.06,4.06,0,0,0,.48,1.35c.49-.23,1.18-.32,1.44-.71a3.84,3.84,0,0,0-.31-4.79c-.45-.45-.9-.89-1.38-1.32a4.87,4.87,0,0,1-1.69-3.9c.06-3.7,2-6.24,5.32-6.91a6.37,6.37,0,0,1,1.38-.1,2,2,0,0,1,2.21,2,27.77,27.77,0,0,1-.31,3.86.73.73,0,0,1-.47.48c-.81.18-1.64.28-2.56.43a18.29,18.29,0,0,0,.3-2.43,4.36,4.36,0,0,0-.5-1.35c-.49.24-1.14.35-1.45.73a3.08,3.08,0,0,0,.29,4c.56.58,1.17,1.11,1.73,1.69a5.18,5.18,0,0,1,1.5,3.22c.32,3.2-1.31,6.48-3.87,7.49a9.4,9.4,0,0,1-3,.57,1.92,1.92,0,0,1-2.2-1.86,30.6,30.6,0,0,1,.26-4.37c0-.12.25-.3.41-.34C116.2,49.51,117.1,49.36,118.09,49.19Z"/><path class="cls-2" d="M.28,68.56,0,67.08,69,53.76l.35,1.46Z"/><path class="cls-2" d="M107.38,64.38l-.28-1.48L174,50.46l.29,1.48Z"/><path d="M155.74,47c-.14.82-.23,1.56-.41,2.27a.88.88,0,0,1-.57.51,18.69,18.69,0,0,1-2.47.4c-1.46.14-2.07-.47-1.85-1.92.3-2,.68-4,1-6.05.51-2.89,1-5.77,1.59-8.79l-1.51.18a19.71,19.71,0,0,1,.44-2.31c.06-.21.54-.39.84-.41a.81.81,0,0,0,.86-.84,23.56,23.56,0,0,1,.48-2.64c.06-.22.27-.55.46-.59,1-.21,1.92-.35,3-.54L157,30.12l1.8-.2a18,18,0,0,1-.42,2.16,1.08,1.08,0,0,1-.81.51c-.81.08-1.14.43-1.28,1.25-.66,3.86-1.38,7.71-2.08,11.56C153.87,47.19,153.87,47.19,155.74,47Z"/><path class="cls-2" d="M173.17,15.92l.26,1.48L115.11,28.93l-.31-1.47Z"/><path class="cls-2" d="M18.43,12.23l-.28-1.48L74.8,0l.31,1.47Z"/><path d="M103.86,43.34c.17-1,.29-1.77.47-2.57a.8.8,0,0,1,.48-.5c2.37-.43,4.75-.82,7.25-1.24-.18,1-.32,1.83-.51,2.69a.69.69,0,0,1-.47.37C108.72,42.51,106.37,42.91,103.86,43.34Z"/><path d="M78,32.67c0,.16.07.22.06.26-.17.88-.06,2-.58,2.55s-1.65.45-2.52.6c-1.63.3-3.27.58-5,.89.17-1,.3-1.86.5-2.71,0-.16.3-.34.49-.37C73.2,33.47,75.55,33.07,78,32.67Z"/><path class="cls-1" d="M190.73,42.68A2.63,2.63,0,0,1,188.09,40a2.68,2.68,0,0,1,2.71-2.66A2.76,2.76,0,0,1,193.47,40,2.72,2.72,0,0,1,190.73,42.68Z"/><path class="cls-1" d="M185.7,30.35a1.82,1.82,0,0,1,1.75,1.7,1.71,1.71,0,0,1-1.72,1.77A1.74,1.74,0,0,1,184,32.16,1.85,1.85,0,0,1,185.7,30.35Z"/><path class="cls-1" d="M200.73,58.3a3.56,3.56,0,0,1-3.55-4.21c.2-1,.62-1.83,1.83-2a9.16,9.16,0,0,0,2-.54,1.77,1.77,0,0,1,1.84.36,3.53,3.53,0,0,1,1.22,3.93A3.58,3.58,0,0,1,200.73,58.3Z"/><path class="cls-1" d="M219,50.79a3.87,3.87,0,0,1-2.45,3.35,3.54,3.54,0,0,1-3.92-1,3.41,3.41,0,0,1-.4-4,1.89,1.89,0,0,1,1-.75,19.53,19.53,0,0,1,2.15-.6,2.34,2.34,0,0,1,3.09,1.34A11.19,11.19,0,0,1,219,50.79Z"/><path class="cls-1" d="M189.71,58.43a4,4,0,0,1-2.46,3.42,3.54,3.54,0,0,1-3.89-.9,3.43,3.43,0,0,1-.57-3.93,1.67,1.67,0,0,1,.87-.72c.87-.31,1.81-.42,2.65-.77a1.84,1.84,0,0,1,2.44.83A11.85,11.85,0,0,1,189.71,58.43Z"/><path class="cls-1" d="M145,40.85c-.42,2.29-.8,4.41-1.21,6.53a2.41,2.41,0,0,1-1.47,1.89c-.67.28-1.21,0-1.11-.67a35.06,35.06,0,0,1,1-5.31C142.58,42.1,143.8,41.53,145,40.85Z"/><path class="cls-1" d="M162.82,36.72c.42-1.68.77-3.2,1.18-4.71a1.23,1.23,0,0,1,.55-.74,2.25,2.25,0,0,1,1.34-.28c.2.05.38.75.34,1.12-.14,1.22-.35,2.44-.61,3.65a1,1,0,0,1-.65.59A21.72,21.72,0,0,1,162.82,36.72Z"/></g></g></svg>