<svg xmlns="http://www.w3.org/2000/svg" viewBox="0 0 434.08 132.18"><defs><style>.cls-1{fill:#1a1818;}.cls-2{fill:#d70017;}.cls-3{fill:none;stroke:#d70017;stroke-miterlimit:10;stroke-width:3px;}</style></defs><g id="Capa_2" data-name="Capa 2"><g id="Capa_1-2" data-name="Capa 1"><path d="M30.43,116.09,46,30.14l27.76-4.76L71.69,36.76,56.25,39.41,52.11,62.26,66.45,59.8,64.38,71.23,50,73.69,42.75,114Z"/><path d="M75.29,98.34A6,6,0,0,1,71,97.82a4.76,4.76,0,0,1-2-3.42,18.58,18.58,0,0,1,.27-6.34l6.84-37.77,8.15-1.4-6.6,36.44a11,11,0,0,0-.15,4.25c.25,1,1,1.33,2.42,1.1a4.5,4.5,0,0,0,3.25-2.28,13.12,13.12,0,0,0,1.52-4.22L91.3,47.67l8.09-1.38L90.55,95.13l-8.13,1.39.92-5.08A16.66,16.66,0,0,1,80.12,96,8.77,8.77,0,0,1,75.29,98.34Z"/><path d="M98.45,93.77l8.85-48.84,8.12-1.39-1,5.6a13.67,13.67,0,0,1,3.36-4.79,9.84,9.84,0,0,1,5.15-2.67c2.65-.45,4.48.14,5.46,1.79s1.16,4.26.52,7.82l-7,38.45-8.12,1.4,6.86-37.94a4.34,4.34,0,0,0-.3-3.16,2.05,2.05,0,0,0-2.25-.79,4.65,4.65,0,0,0-2.26,1.1,7,7,0,0,0-1.67,2.25,11.84,11.84,0,0,0-1,3.08l-6.65,36.7Z"/><path d="M134.43,71.21l1-5.7L150.11,63l-1,5.7Z"/><path d="M150.74,119.27,165.81,36l9.35-1.6,7.57,47.11L186,58.94l4.94-27.25,10.73-1.84-15.08,83.27-8.46,1.45-7.69-48.78-3.29,21.74-5.4,29.85Z"/><path d="M199.82,83.49l1-5.7,14.65-2.51-1,5.69Z"/><path d="M227.27,108.27c-2.93.51-5,0-6.06-1.53s-1.29-4.31-.56-8.34l.45-2.5,6.06-1L226.59,98a8.94,8.94,0,0,0-.11,3.75,1.29,1.29,0,0,0,1.65,1,3.13,3.13,0,0,0,2-1.22,7.77,7.77,0,0,0,1.17-3.23,8.13,8.13,0,0,0,.1-2.44,6.52,6.52,0,0,0-.66-2.2,7,7,0,0,0-1.49-2l-2.71-2.59a9,9,0,0,1-2.53-4.1,11.88,11.88,0,0,1-.11-5.38A14.14,14.14,0,0,1,227.42,72a12.08,12.08,0,0,1,6.86-3.4,7.42,7.42,0,0,1,4.4.31A4,4,0,0,1,240.76,72a18.3,18.3,0,0,1-.3,6.42l-.38,2.12-5.76,1,.46-2.56a9.87,9.87,0,0,0,.16-3.78,1.25,1.25,0,0,0-1.62-1,3.33,3.33,0,0,0-2,1.08,6.3,6.3,0,0,0-1.15,2.79,6.72,6.72,0,0,0-.12,2,5.29,5.29,0,0,0,.49,1.8,5.67,5.67,0,0,0,1.16,1.59l2.85,2.73a10.86,10.86,0,0,1,3,4.76,12.53,12.53,0,0,1,.19,5.92,15.67,15.67,0,0,1-3.43,7.76A11.69,11.69,0,0,1,227.27,108.27Z"/><path d="M240.84,105.47l8.3-45.82,6.44-1.11-4.47,24.71,9.4-18.68,6.54-1.12L256.58,83.71l3.87,18.39-6.56,1.13L250.62,86l-3.34,18.4Z"/><path d="M270,100.84c-2.49.43-4.05-.23-4.67-2s-.64-4.23-.1-7.41l.45-2.48a16.16,16.16,0,0,1,1.75-5.17,13,13,0,0,1,3-3.57,25.89,25.89,0,0,1,4.1-2.75q2.32-1.27,5.16-2.76l.61-3.38a28.39,28.39,0,0,0,.43-3.12,2.19,2.19,0,0,0-.35-1.6,1.58,1.58,0,0,0-1.48-.27,3,3,0,0,0-1.69.83,4.7,4.7,0,0,0-1,1.83,20.42,20.42,0,0,0-.72,3l-.32,1.73-6.36,1.09.21-1.16a28.83,28.83,0,0,1,1.28-4.82,14,14,0,0,1,2.09-3.8,10.68,10.68,0,0,1,3.18-2.7A14.59,14.59,0,0,1,280,60.77a9.18,9.18,0,0,1,3.9,0,3.88,3.88,0,0,1,2.34,1.65,6.59,6.59,0,0,1,.89,3.26,21.56,21.56,0,0,1-.41,4.85l-5.05,27.9-6.49,1.12.7-3.85A9.56,9.56,0,0,1,274.55,98a9,9,0,0,1-2,1.86A6.39,6.39,0,0,1,270,100.84Zm3.19-5.65a3.53,3.53,0,0,0,2.11-1.26,6.45,6.45,0,0,0,1.24-2l2.41-13.32c-1.05.63-1.95,1.21-2.69,1.73a10.21,10.21,0,0,0-1.84,1.6,7.05,7.05,0,0,0-1.19,1.85,11.57,11.57,0,0,0-.7,2.45l-.78,4.34a9.75,9.75,0,0,0-.18,3.77C271.75,95.05,272.29,95.34,273.17,95.19Z"/><path d="M294.2,96.56a7,7,0,0,1-3.45,0,2,2,0,0,1-1.34-1.71,10.39,10.39,0,0,1,.18-3.45l4.89-27.06-3,.51.9-5,3-.51,1.36-7.51,6.44-1.1-1.36,7.51,3.55-.61-.9,5-3.55.61-4.68,25.86a2.47,2.47,0,0,0,0,1.33c.12.27.44.42.95.43a13.09,13.09,0,0,0,2.31-.24l-.94,5.21Z"/><path d="M311.59,93.78a8.31,8.31,0,0,1-4.34-.16A3.9,3.9,0,0,1,305,91.41a9.63,9.63,0,0,1-.61-4A35.58,35.58,0,0,1,305,82l2.61-14.43a26.08,26.08,0,0,1,1.41-5,16.06,16.06,0,0,1,2.31-4,12,12,0,0,1,3.31-2.88,12.73,12.73,0,0,1,4.43-1.57,8.44,8.44,0,0,1,4.1.09,3.78,3.78,0,0,1,2.25,1.94,8.15,8.15,0,0,1,.73,3.54,27.38,27.38,0,0,1-.48,4.92l-1.5,8.29-11.59,2-1.38,7.62a19.39,19.39,0,0,0-.41,4.44q.11,1.64,2,1.32a2.9,2.9,0,0,0,1.91-1.1,6.64,6.64,0,0,0,1-2.32c.24-1,.47-2,.69-3.23l.62-3.41,6.37-1.09L323,79.14a44.89,44.89,0,0,1-1.36,5.61,16.23,16.23,0,0,1-2.05,4.33,10.41,10.41,0,0,1-3.2,3A13.53,13.53,0,0,1,311.59,93.78Zm1.68-22.93,5.2-.89.89-5a24.3,24.3,0,0,0,.42-3.23,3.18,3.18,0,0,0-.31-1.89c-.26-.39-.74-.52-1.44-.4a3.26,3.26,0,0,0-2,1.12,6.49,6.49,0,0,0-1.14,2.31,29.39,29.39,0,0,0-.73,3.17Z"/><path d="M383.07,100.31l-43.7,11.83c-1.78.48-2.09.31-1.92-1.18.41-3.56,2.92-6.27,6.27-8.59a4.87,4.87,0,0,1,1.35-.45c23.92-6.47,38.48-9.86,62.41-16.3,1-.27,20.73-5.7,21.69-5.5,3.14.67-.93,5.19-3.42,7.47-1.4,1.27-6.31,2.94-8.25,3.46C402.83,95,397.74,96.34,383.07,100.31Z"/><path class="cls-1" d="M368.29,111a10.86,10.86,0,1,0-7.64,13.32A10.86,10.86,0,0,0,368.29,111Zm-8.81,8.47a6.88,6.88,0,1,1,4.84-8.43A6.87,6.87,0,0,1,359.48,119.46Z"/><path class="cls-1" d="M396.56,103.68A10.86,10.86,0,1,0,388.92,117,10.84,10.84,0,0,0,396.56,103.68Zm-8.81,8.48a6.88,6.88,0,1,1,4.84-8.44A6.89,6.89,0,0,1,387.75,112.16Z"/><path class="cls-1" d="M424.64,96.08A10.86,10.86,0,1,0,417,109.4,10.85,10.85,0,0,0,424.64,96.08Zm-8.82,8.48a6.88,6.88,0,1,1,4.84-8.44A6.89,6.89,0,0,1,415.82,104.56Z"/><path class="cls-2" d="M432.78,51.43c-3.19-5.54-10.91-6.14-12.19-6.22-3,.8-7.42,1.88-12.73,2.95-17.18,3.46-16.83,1.52-17.84.71-4.76-3.81-4-12.37-3.32-15.52.61-8.85,3.41-17.46,4-26.31-2.84,0-10.9-.23-14.45,2.09-4.62,3-4.85,6.71-8.54,7.32s-5.58-2.65-10-1.8c-2,.39-6.63,1.79-7.51,2.53-1.65,12.15-.38,24.17-2.4,36.71q-1.57,9.81-3.26,19.41c-.51,1.06-4.76,10.14-.12,18.06a16.22,16.22,0,0,0,4.91,5.18L428,76.26a42.83,42.83,0,0,0,4.28-10.21C433.86,60.23,435.14,55.51,432.78,51.43Zm-74.73,13.7a3.34,3.34,0,1,1,2.34-4.1A3.34,3.34,0,0,1,358.05,65.13Zm10.18,17a5.19,5.19,0,1,1,3.65-6.36A5.2,5.2,0,0,1,368.23,82.13Z"/><line class="cls-3" x1="206.24" y1="122.66" x2="334.88" y2="98.67"/><line class="cls-3" x1="221.08" y1="54.37" x2="333.36" y2="32.14"/><line class="cls-3" x1="0.28" y1="130.71" x2="133.14" y2="105.01"/><line class="cls-3" x1="35.19" y1="22.2" x2="144.23" y2="1.47"/></g></g></svg>