<?xml version="1.0" encoding="utf-8"?>
<!-- Generator: Adobe Illustrator 25.2.3, SVG Export Plug-In . SVG Version: 6.00 Build 0)  -->
<svg version="1.1" id="Capa_1" xmlns="http://www.w3.org/2000/svg" xmlns:xlink="http://www.w3.org/1999/xlink" x="0px" y="0px"
	 viewBox="0 0 460 2150" style="enable-background:new 0 0 460 2150;" xml:space="preserve">
<style type="text/css">
	.st0{stroke:#FDFFFF;stroke-width:2;stroke-miterlimit:10;}
	.st1{fill:url(#SVGID_1_);}
	.st2{stroke:#000000;stroke-miterlimit:10;}
	.st3{fill:#240476;}
	.st4{fill:#E57D0C;}
	.st5{fill:url(#SVGID_2_);}
	.st6{fill:url(#SVGID_3_);}
	.st7{fill:url(#SVGID_4_);}
	.st8{fill:#240476;stroke:#240476;stroke-width:2;stroke-miterlimit:10;}
	.st9{fill:#EE9E22;stroke:#FDFFFF;stroke-width:2;stroke-miterlimit:10;}
	.st10{fill:url(#SVGID_5_);}
	.st11{fill:url(#SVGID_6_);}
	.st12{fill:none;stroke:#240476;stroke-width:2;stroke-miterlimit:10;}
	.st13{fill:#F4EE7F;}
	.st14{fill:url(#SVGID_7_);}
	.st15{fill:url(#SVGID_8_);}
	.st16{fill:url(#SVGID_9_);}
	.st17{fill:url(#SVGID_10_);}
	.st18{fill:url(#SVGID_11_);}
	.st19{fill:url(#SVGID_12_);}
	.st20{fill:url(#SVGID_13_);}
	.st21{fill:url(#SVGID_14_);}
	.st22{fill:url(#SVGID_15_);}
</style>
<rect x="1" y="-6" class="st0" width="459" height="720"/>
<linearGradient id="SVGID_1_" gradientUnits="userSpaceOnUse" x1="-249.5" y1="-4" x2="-249.5" y2="712">
	<stop  offset="0" style="stop-color:#E5E00F"/>
	<stop  offset="0.4881" style="stop-color:#E6D214"/>
	<stop  offset="0.9621" style="stop-color:#E5A800"/>
</linearGradient>
<polygon class="st1" points="-479.9,-4 -482,712 -17,709.8 -17,-1.8 "/>
<g id="KOtIl9_2_">
	
		<image style="overflow:visible;opacity:0.82;" width="404" height="414" xlink:href="215046C86855540B.png"  transform="matrix(1 0 0 1 -455 4)">
	</image>
	<g>
		<g>
			
				<image style="overflow:visible;" width="1075" height="1257" id="KOtIl9_10_" xlink:href="215046C868555409.png"  transform="matrix(-0.25 -4.322423e-02 -4.419417e-02 0.2445 -84.3526 78.3933)">
			</image>
		</g>
	</g>
</g>
<polygon style="fill:none;" points="-131.8,492.3 -466.7,492.3 -466.7,383.7 -99.8,384.5 "/>
<text transform="matrix(1 0 0 1 -410.3832 408.855)"><tspan x="0" y="0" style="font-family:'BaiJamjuree-MediumItalic'; font-size:36px;">RDS Aerio  Skates</tspan><tspan x="213.1" y="43.2" style="font-family:'BaiJamjuree-MediumItalic'; font-size:36px;">2021</tspan></text>
<line class="st2" x1="-75.7" y1="360.8" x2="-117.7" y2="488.7"/>
<g>
	<g>
		<polygon class="st3" points="114.6,32.9 97,83.8 61.8,43.1 		"/>
	</g>
	<g>
		<polygon class="st4" points="112.6,23.9 95,74.8 59.8,34.1 		"/>
	</g>
</g>
<g>
	<g>
		<polygon class="st3" points="60.5,169.3 35,182.7 36.1,153.9 		"/>
	</g>
	<g>
		
			<linearGradient id="SVGID_2_" gradientUnits="userSpaceOnUse" x1="-1334.75" y1="-1324.0111" x2="-1306.4491" y2="-1324.0111" gradientTransform="matrix(0.7299 0.6836 -0.6836 0.7299 97.6704 2029.6699)">
			<stop  offset="0" style="stop-color:#E5E00F"/>
			<stop  offset="0.4881" style="stop-color:#E6D214"/>
			<stop  offset="0.9621" style="stop-color:#E5A800"/>
		</linearGradient>
		<polygon class="st5" points="58.5,160.3 33,173.7 34.1,144.9 		"/>
	</g>
</g>
<g>
	<g>
		<polygon class="st3" points="160.2,387.8 142.4,438.6 106.7,398 		"/>
	</g>
	<g>
		<polygon class="st4" points="158.2,378.8 140.4,429.6 104.7,389 		"/>
	</g>
</g>
<g>
	<g>
		<polygon class="st3" points="130.4,668.3 104.9,681.8 106,653 		"/>
	</g>
	<g>
		
			<linearGradient id="SVGID_3_" gradientUnits="userSpaceOnUse" x1="-942.6326" y1="-1007.5397" x2="-914.3317" y2="-1007.5397" gradientTransform="matrix(0.7299 0.6836 -0.6836 0.7299 97.6704 2029.6699)">
			<stop  offset="0" style="stop-color:#E5E00F"/>
			<stop  offset="0.4881" style="stop-color:#E6D214"/>
			<stop  offset="0.9621" style="stop-color:#E5A800"/>
		</linearGradient>
		<polygon class="st6" points="128.4,659.3 102.9,672.8 104,644 		"/>
	</g>
</g>
<g>
	<g>
		<polygon class="st3" points="58.5,493.6 33,507 34.1,478.2 		"/>
	</g>
	<g>
		
			<linearGradient id="SVGID_4_" gradientUnits="userSpaceOnUse" x1="-1114.5289" y1="-1085.9835" x2="-1086.228" y2="-1085.9835" gradientTransform="matrix(0.7299 0.6836 -0.6836 0.7299 97.6704 2029.6699)">
			<stop  offset="0" style="stop-color:#E5E00F"/>
			<stop  offset="0.4881" style="stop-color:#E6D214"/>
			<stop  offset="0.9621" style="stop-color:#E5A800"/>
		</linearGradient>
		<polygon class="st7" points="56.5,484.6 31,498 32.1,469.2 		"/>
	</g>
</g>
<g>
	<g>
		<polygon class="st8" points="271.8,336.4 267.9,349 255.4,353.7 251.5,366.4 241.1,370.4 241.2,375.8 255.7,370.2 259.6,357.6 
			272.1,352.9 276,340.2 288.5,335.5 293,320.7 287.5,321.1 284.3,331.6 		"/>
	</g>
	<g>
		<g>
			<polygon class="st9" points="269.8,327.4 265.9,340 253.4,344.7 249.5,357.4 239.1,361.4 239.2,366.8 253.7,361.2 257.6,348.6 
				270.1,343.9 274,331.2 286.5,326.5 291,311.7 285.5,312.1 282.3,322.6 			"/>
		</g>
	</g>
</g>
<g>
	<g>
		<polygon class="st8" points="125.9,149.9 122,162.5 109.5,167.3 105.6,179.9 95.2,183.9 95.2,189.3 109.8,183.8 113.7,171.1 
			126.2,166.4 130.1,153.7 142.6,149 147.1,134.2 141.6,134.6 138.4,145.2 		"/>
	</g>
	<g>
		<g>
			<polygon class="st9" points="123.9,140.9 120,153.5 107.5,158.3 103.6,170.9 93.2,174.9 93.2,180.3 107.8,174.8 111.7,162.1 
				124.2,157.4 128.1,144.7 140.6,140 145.1,125.2 139.6,125.6 136.4,136.2 			"/>
		</g>
	</g>
</g>
<g>
	<g>
		<polygon class="st3" points="280.3,500 256.6,567.7 209.1,513.6 		"/>
	</g>
	<g>
		<polygon class="st4" points="278.3,491 254.6,558.7 207.1,504.6 		"/>
	</g>
</g>
<g>
	<g>
		<polygon class="st3" points="410.2,159.3 384.7,172.8 385.8,144 		"/>
	</g>
	<g>
		
			<linearGradient id="SVGID_5_" gradientUnits="userSpaceOnUse" x1="-1086.3508" y1="-1570.3212" x2="-1058.0499" y2="-1570.3212" gradientTransform="matrix(0.7299 0.6836 -0.6836 0.7299 97.6704 2029.6699)">
			<stop  offset="0" style="stop-color:#E5E00F"/>
			<stop  offset="0.4881" style="stop-color:#E6D214"/>
			<stop  offset="0.9621" style="stop-color:#E5A800"/>
		</linearGradient>
		<polygon class="st10" points="408.2,150.3 382.7,163.8 383.8,135 		"/>
	</g>
</g>
<g>
	<g>
		<polygon class="st3" points="408.2,483.6 382.7,497 383.8,468.2 		"/>
	</g>
	<g>
		
			<linearGradient id="SVGID_6_" gradientUnits="userSpaceOnUse" x1="-866.1298" y1="-1332.2936" x2="-837.8289" y2="-1332.2936" gradientTransform="matrix(0.7299 0.6836 -0.6836 0.7299 97.6704 2029.6699)">
			<stop  offset="0" style="stop-color:#E5E00F"/>
			<stop  offset="0.4881" style="stop-color:#E6D214"/>
			<stop  offset="0.9621" style="stop-color:#E5A800"/>
		</linearGradient>
		<polygon class="st11" points="406.2,474.6 380.7,488 381.8,459.2 		"/>
	</g>
</g>
<g>
	<g>
		<polygon class="st8" points="421.2,297.1 400.5,292.8 394.9,272.3 374.1,267.9 369.5,250.8 360.3,251.9 366.7,275.8 387.5,280.1 
			393.1,300.6 413.9,304.9 419.4,325.4 443.6,330.5 444.1,321.2 426.8,317.6 		"/>
	</g>
	<g>
		<g>
			<polygon class="st9" points="419.2,288.1 398.5,283.8 392.9,263.3 372.1,258.9 367.5,241.8 358.3,242.9 364.7,266.8 385.5,271.1 
				391.1,291.6 411.9,295.9 417.4,316.4 441.6,321.5 442.1,312.2 424.8,308.6 			"/>
		</g>
	</g>
</g>
<g>
	<g>
		<path class="st3" d="M206.1,47.9c12.5-2.4,24.6,5.7,27,18c2.4,12.3-5.8,24.3-18.3,26.6c-12.5,2.4-24.6-5.7-27-18
			C185.4,62.3,193.6,50.3,206.1,47.9z M207.6,55.6c-8.2,1.6-13.6,9.4-12,17.5c1.6,8.1,9.5,13.4,17.7,11.8c8.2-1.6,13.6-9.4,12-17.5
			C223.7,59.3,215.8,54,207.6,55.6z"/>
		<path class="st12" d="M206.1,47.9c12.5-2.4,24.6,5.7,27,18c2.4,12.3-5.8,24.3-18.3,26.6c-12.5,2.4-24.6-5.7-27-18
			C185.4,62.3,193.6,50.3,206.1,47.9z M207.6,55.6c-8.2,1.6-13.6,9.4-12,17.5c1.6,8.1,9.5,13.4,17.7,11.8c8.2-1.6,13.6-9.4,12-17.5
			C223.7,59.3,215.8,54,207.6,55.6z"/>
	</g>
	<g>
		<path class="st13" d="M204.1,38.9c12.5-2.4,24.6,5.7,27,18c2.4,12.3-5.8,24.3-18.3,26.6c-12.5,2.4-24.6-5.7-27-18
			C183.4,53.3,191.6,41.3,204.1,38.9z M205.6,46.6c-8.2,1.6-13.6,9.4-12,17.5c1.6,8.1,9.5,13.4,17.7,11.8c8.2-1.6,13.6-9.4,12-17.5
			C221.7,50.3,213.8,45,205.6,46.6z"/>
		<path class="st12" d="M204.1,38.9c12.5-2.4,24.6,5.7,27,18c2.4,12.3-5.8,24.3-18.3,26.6c-12.5,2.4-24.6-5.7-27-18
			C183.4,53.3,191.6,41.3,204.1,38.9z M205.6,46.6c-8.2,1.6-13.6,9.4-12,17.5c1.6,8.1,9.5,13.4,17.7,11.8c8.2-1.6,13.6-9.4,12-17.5
			C221.7,50.3,213.8,45,205.6,46.6z"/>
	</g>
</g>
<g>
	<g>
		<path class="st3" d="M66.4,272.6c20.3-3.9,40,9.4,43.9,29.7c3.9,20.3-9.4,40-29.7,43.9c-20.3,3.9-40-9.4-43.9-29.7
			C32.8,296.3,46.1,276.6,66.4,272.6z M68.8,285.3c-13.3,2.6-22.1,15.5-19.5,28.9c2.6,13.3,15.5,22.1,28.9,19.5
			c13.3-2.6,22.1-15.5,19.5-28.9C95.1,291.5,82.2,282.7,68.8,285.3z"/>
		<path class="st12" d="M66.4,272.6c20.3-3.9,40,9.4,43.9,29.7c3.9,20.3-9.4,40-29.7,43.9c-20.3,3.9-40-9.4-43.9-29.7
			C32.8,296.3,46.1,276.6,66.4,272.6z M68.8,285.3c-13.3,2.6-22.1,15.5-19.5,28.9c2.6,13.3,15.5,22.1,28.9,19.5
			c13.3-2.6,22.1-15.5,19.5-28.9C95.1,291.5,82.2,282.7,68.8,285.3z"/>
	</g>
	<g>
		<path class="st13" d="M64.4,263.6c20.3-3.9,40,9.4,43.9,29.7c3.9,20.3-9.4,40-29.7,43.9c-20.3,3.9-40-9.4-43.9-29.7
			C30.8,287.3,44.1,267.6,64.4,263.6z M66.8,276.3c-13.3,2.6-22.1,15.5-19.5,28.9c2.6,13.3,15.5,22.1,28.9,19.5
			c13.3-2.6,22.1-15.5,19.5-28.9C93.1,282.5,80.2,273.7,66.8,276.3z"/>
		<path class="st12" d="M64.4,263.6c20.3-3.9,40,9.4,43.9,29.7c3.9,20.3-9.4,40-29.7,43.9c-20.3,3.9-40-9.4-43.9-29.7
			C30.8,287.3,44.1,267.6,64.4,263.6z M66.8,276.3c-13.3,2.6-22.1,15.5-19.5,28.9c2.6,13.3,15.5,22.1,28.9,19.5
			c13.3-2.6,22.1-15.5,19.5-28.9C93.1,282.5,80.2,273.7,66.8,276.3z"/>
	</g>
</g>
<g>
	<g>
		<path class="st3" d="M252.3,163.3c17.6-3.4,34.7,8.1,38.2,25.5c3.4,17.4-8.2,34.3-25.8,37.7c-17.6,3.4-34.7-8.1-38.2-25.5
			C223.1,183.6,234.7,166.7,252.3,163.3z M254.5,174.2c-11.6,2.2-19.2,13.3-17,24.7c2.2,11.4,13.5,18.9,25.1,16.7
			c11.6-2.2,19.2-13.3,17-24.7C277.3,179.5,266,172,254.5,174.2z"/>
		<path class="st12" d="M252.3,163.3c17.6-3.4,34.7,8.1,38.2,25.5c3.4,17.4-8.2,34.3-25.8,37.7c-17.6,3.4-34.7-8.1-38.2-25.5
			C223.1,183.6,234.7,166.7,252.3,163.3z M254.5,174.2c-11.6,2.2-19.2,13.3-17,24.7c2.2,11.4,13.5,18.9,25.1,16.7
			c11.6-2.2,19.2-13.3,17-24.7C277.3,179.5,266,172,254.5,174.2z"/>
	</g>
	<g>
		<path class="st13" d="M250.3,154.3c17.6-3.4,34.7,8.1,38.2,25.5c3.4,17.4-8.2,34.3-25.8,37.7c-17.6,3.4-34.7-8.1-38.2-25.5
			C221.1,174.6,232.7,157.7,250.3,154.3z M252.5,165.2c-11.6,2.2-19.2,13.3-17,24.7c2.2,11.4,13.5,18.9,25.1,16.7
			c11.6-2.2,19.2-13.3,17-24.7C275.3,170.5,264,163,252.5,165.2z"/>
		<path class="st12" d="M250.3,154.3c17.6-3.4,34.7,8.1,38.2,25.5c3.4,17.4-8.2,34.3-25.8,37.7c-17.6,3.4-34.7-8.1-38.2-25.5
			C221.1,174.6,232.7,157.7,250.3,154.3z M252.5,165.2c-11.6,2.2-19.2,13.3-17,24.7c2.2,11.4,13.5,18.9,25.1,16.7
			c11.6-2.2,19.2-13.3,17-24.7C275.3,170.5,264,163,252.5,165.2z"/>
	</g>
</g>
<g>
	<g>
		<path class="st3" d="M313.5,584.7c17.6-3.4,34.7,8.1,38.2,25.5c3.4,17.4-8.2,34.3-25.8,37.7c-17.6,3.4-34.7-8.1-38.2-25.5
			C284.3,604.9,295.9,588.1,313.5,584.7z M315.6,595.5c-11.6,2.2-19.2,13.3-17,24.7c2.2,11.4,13.5,18.9,25.1,16.7
			c11.6-2.2,19.2-13.3,17-24.7C338.4,600.8,327.2,593.3,315.6,595.5z"/>
		<path class="st12" d="M313.5,584.7c17.6-3.4,34.7,8.1,38.2,25.5c3.4,17.4-8.2,34.3-25.8,37.7c-17.6,3.4-34.7-8.1-38.2-25.5
			C284.3,604.9,295.9,588.1,313.5,584.7z M315.6,595.5c-11.6,2.2-19.2,13.3-17,24.7c2.2,11.4,13.5,18.9,25.1,16.7
			c11.6-2.2,19.2-13.3,17-24.7C338.4,600.8,327.2,593.3,315.6,595.5z"/>
	</g>
	<g>
		<path class="st13" d="M311.5,575.7c17.6-3.4,34.7,8.1,38.2,25.5c3.4,17.4-8.2,34.3-25.8,37.7c-17.6,3.4-34.7-8.1-38.2-25.5
			C282.3,595.9,293.9,579.1,311.5,575.7z M313.6,586.5c-11.6,2.2-19.2,13.3-17,24.7c2.2,11.4,13.5,18.9,25.1,16.7
			c11.6-2.2,19.2-13.3,17-24.7C336.4,591.8,325.2,584.3,313.6,586.5z"/>
		<path class="st12" d="M311.5,575.7c17.6-3.4,34.7,8.1,38.2,25.5c3.4,17.4-8.2,34.3-25.8,37.7c-17.6,3.4-34.7-8.1-38.2-25.5
			C282.3,595.9,293.9,579.1,311.5,575.7z M313.6,586.5c-11.6,2.2-19.2,13.3-17,24.7c2.2,11.4,13.5,18.9,25.1,16.7
			c11.6-2.2,19.2-13.3,17-24.7C336.4,591.8,325.2,584.3,313.6,586.5z"/>
	</g>
</g>
<g>
	<g>
		<polygon class="st8" points="354.7,70 338.4,69.8 337.1,53.7 320.8,53.5 319.8,40 312,42.4 313.5,61.1 329.8,61.4 331,77.5 
			347.4,77.7 348.6,93.8 367.7,94.1 369.6,86.3 355.9,86.1 		"/>
	</g>
	<g>
		<g>
			<polygon class="st9" points="352.7,61 336.4,60.8 335.1,44.7 318.8,44.5 317.8,31 310,33.4 311.5,52.1 327.8,52.4 329,68.5 
				345.4,68.7 346.6,84.8 365.7,85.1 367.6,77.3 353.9,77.1 			"/>
		</g>
	</g>
</g>
<g>
	<g>
		<polygon class="st8" points="414.8,649.8 413.1,655.6 407.4,657.7 405.7,663.4 401,665.2 401,667.6 407.6,665.1 409.3,659.4 
			415,657.3 416.7,651.6 422.4,649.4 424.4,642.8 421.9,643 420.5,647.7 		"/>
	</g>
	<g>
		<g>
			<polygon class="st9" points="412.8,640.8 411.1,646.6 405.4,648.7 403.7,654.4 399,656.2 399,658.6 405.6,656.1 407.3,650.4 
				413,648.3 414.7,642.6 420.4,640.4 422.4,633.8 419.9,634 418.5,638.7 			"/>
		</g>
	</g>
</g>
<g>
	<g>
		<polygon class="st8" points="131.8,556.4 130.1,562.1 124.4,564.3 122.7,570 118,571.8 118,574.2 124.6,571.7 126.3,566 
			132,563.9 133.7,558.2 139.4,556 141.4,549.4 138.9,549.5 137.5,554.3 		"/>
	</g>
	<g>
		<g>
			<polygon class="st9" points="129.8,547.4 128.1,553.1 122.4,555.3 120.7,561 116,562.8 116,565.2 122.6,562.7 124.3,557 
				130,554.9 131.7,549.2 137.4,547 139.4,540.4 136.9,540.5 135.5,545.3 			"/>
		</g>
	</g>
</g>
<rect x="-1.2" y="708.6" width="459" height="1442.4"/>
<g>
	<g>
		<polygon class="st3" points="112.5,747.5 94.9,798.3 59.7,757.7 		"/>
	</g>
	<g>
		<polygon class="st4" points="110.5,738.5 92.9,789.3 57.7,748.7 		"/>
	</g>
</g>
<g>
	<g>
		<polygon class="st3" points="58.3,883.9 32.8,897.3 33.9,868.5 		"/>
	</g>
	<g>
		
			<linearGradient id="SVGID_7_" gradientUnits="userSpaceOnUse" x1="-847.8623" y1="-800.9742" x2="-819.5614" y2="-800.9742" gradientTransform="matrix(0.7299 0.6836 -0.6836 0.7299 97.6704 2029.6699)">
			<stop  offset="0" style="stop-color:#E5E00F"/>
			<stop  offset="0.4881" style="stop-color:#E6D214"/>
			<stop  offset="0.9621" style="stop-color:#E5A800"/>
		</linearGradient>
		<polygon class="st14" points="56.3,874.9 30.8,888.3 31.9,859.5 		"/>
	</g>
</g>
<g>
	<g>
		<polygon class="st3" points="158.1,1102.4 140.2,1153.2 104.6,1112.6 		"/>
	</g>
	<g>
		<polygon class="st4" points="156.1,1093.4 138.2,1144.2 102.6,1103.6 		"/>
	</g>
</g>
<g>
	<g>
		<polygon class="st3" points="128.2,1382.9 102.7,1396.4 103.8,1367.6 		"/>
	</g>
	<g>
		
			<linearGradient id="SVGID_8_" gradientUnits="userSpaceOnUse" x1="-455.7449" y1="-484.5028" x2="-427.444" y2="-484.5028" gradientTransform="matrix(0.7299 0.6836 -0.6836 0.7299 97.6704 2029.6699)">
			<stop  offset="0" style="stop-color:#E5E00F"/>
			<stop  offset="0.4881" style="stop-color:#E6D214"/>
			<stop  offset="0.9621" style="stop-color:#E5A800"/>
		</linearGradient>
		<polygon class="st15" points="126.2,1373.9 100.7,1387.4 101.8,1358.6 		"/>
	</g>
</g>
<g>
	<g>
		<polygon class="st3" points="56.4,1208.2 30.9,1221.6 32,1192.8 		"/>
	</g>
	<g>
		
			<linearGradient id="SVGID_9_" gradientUnits="userSpaceOnUse" x1="-627.6413" y1="-562.9467" x2="-599.3404" y2="-562.9467" gradientTransform="matrix(0.7299 0.6836 -0.6836 0.7299 97.6704 2029.6699)">
			<stop  offset="0" style="stop-color:#E5E00F"/>
			<stop  offset="0.4881" style="stop-color:#E6D214"/>
			<stop  offset="0.9621" style="stop-color:#E5A800"/>
		</linearGradient>
		<polygon class="st16" points="54.4,1199.2 28.9,1212.6 30,1183.8 		"/>
	</g>
</g>
<g>
	<g>
		<polygon class="st8" points="269.6,1050.9 265.8,1063.6 253.2,1068.3 249.4,1081 238.9,1084.9 239,1090.3 253.6,1084.8 
			257.4,1072.2 269.9,1067.4 273.8,1054.8 286.3,1050 290.8,1035.3 285.3,1035.6 282.1,1046.2 		"/>
	</g>
	<g>
		<g>
			<polygon class="st9" points="267.6,1041.9 263.8,1054.6 251.2,1059.3 247.4,1072 236.9,1075.9 237,1081.3 251.6,1075.8 
				255.4,1063.2 267.9,1058.4 271.8,1045.8 284.3,1041 288.8,1026.3 283.3,1026.6 280.1,1037.2 			"/>
		</g>
	</g>
</g>
<g>
	<g>
		<polygon class="st8" points="123.7,864.5 119.8,877.1 107.3,881.9 103.5,894.5 93,898.5 93.1,903.9 107.7,898.4 111.5,885.7 
			124,881 127.9,868.3 140.4,863.6 144.9,848.8 139.4,849.2 136.2,859.7 		"/>
	</g>
	<g>
		<g>
			<polygon class="st9" points="121.7,855.5 117.8,868.1 105.3,872.9 101.5,885.5 91,889.5 91.1,894.9 105.7,889.4 109.5,876.7 
				122,872 125.9,859.3 138.4,854.6 142.9,839.8 137.4,840.2 134.2,850.7 			"/>
		</g>
	</g>
</g>
<g>
	<g>
		<polygon class="st3" points="278.2,1214.6 254.4,1282.3 206.9,1228.2 		"/>
	</g>
	<g>
		<polygon class="st4" points="276.2,1205.6 252.4,1273.3 204.9,1219.2 		"/>
	</g>
</g>
<g>
	<g>
		<polygon class="st3" points="408,873.9 382.5,887.3 383.6,858.5 		"/>
	</g>
	<g>
		
			<linearGradient id="SVGID_10_" gradientUnits="userSpaceOnUse" x1="-599.4632" y1="-1047.2844" x2="-571.1623" y2="-1047.2844" gradientTransform="matrix(0.7299 0.6836 -0.6836 0.7299 97.6704 2029.6699)">
			<stop  offset="0" style="stop-color:#E5E00F"/>
			<stop  offset="0.4881" style="stop-color:#E6D214"/>
			<stop  offset="0.9621" style="stop-color:#E5A800"/>
		</linearGradient>
		<polygon class="st17" points="406,864.9 380.5,878.3 381.6,849.5 		"/>
	</g>
</g>
<g>
	<g>
		<polygon class="st3" points="406,1198.2 380.5,1211.6 381.6,1182.8 		"/>
	</g>
	<g>
		
			<linearGradient id="SVGID_11_" gradientUnits="userSpaceOnUse" x1="-379.2421" y1="-809.2568" x2="-350.9412" y2="-809.2568" gradientTransform="matrix(0.7299 0.6836 -0.6836 0.7299 97.6704 2029.6699)">
			<stop  offset="0" style="stop-color:#E5E00F"/>
			<stop  offset="0.4881" style="stop-color:#E6D214"/>
			<stop  offset="0.9621" style="stop-color:#E5A800"/>
		</linearGradient>
		<polygon class="st18" points="404,1189.2 378.5,1202.6 379.6,1173.8 		"/>
	</g>
</g>
<g>
	<g>
		<polygon class="st8" points="419.1,1011.7 398.3,1007.3 392.7,986.8 371.9,982.5 367.3,965.4 358.1,966.4 364.6,990.4 
			385.4,994.7 390.9,1015.2 411.7,1019.5 417.2,1040 441.5,1045 442,1035.8 424.6,1032.2 		"/>
	</g>
	<g>
		<g>
			<polygon class="st9" points="417.1,1002.7 396.3,998.3 390.7,977.8 369.9,973.5 365.3,956.4 356.1,957.4 362.6,981.4 
				383.4,985.7 388.9,1006.2 409.7,1010.5 415.2,1031 439.5,1036 440,1026.8 422.6,1023.2 			"/>
		</g>
	</g>
</g>
<g>
	<g>
		<path class="st3" d="M203.9,762.5c12.5-2.4,24.6,5.7,27,18c2.4,12.3-5.8,24.3-18.3,26.6c-12.5,2.4-24.6-5.7-27-18
			C183.3,776.8,191.4,764.9,203.9,762.5z M205.4,770.2c-8.2,1.6-13.6,9.4-12,17.5c1.6,8.1,9.5,13.4,17.7,11.8
			c8.2-1.6,13.6-9.4,12-17.5C221.6,773.9,213.6,768.6,205.4,770.2z"/>
		<path class="st12" d="M203.9,762.5c12.5-2.4,24.6,5.7,27,18c2.4,12.3-5.8,24.3-18.3,26.6c-12.5,2.4-24.6-5.7-27-18
			C183.3,776.8,191.4,764.9,203.9,762.5z M205.4,770.2c-8.2,1.6-13.6,9.4-12,17.5c1.6,8.1,9.5,13.4,17.7,11.8
			c8.2-1.6,13.6-9.4,12-17.5C221.6,773.9,213.6,768.6,205.4,770.2z"/>
	</g>
	<g>
		<path class="st13" d="M201.9,753.5c12.5-2.4,24.6,5.7,27,18c2.4,12.3-5.8,24.3-18.3,26.6c-12.5,2.4-24.6-5.7-27-18
			C181.3,767.8,189.4,755.9,201.9,753.5z M203.4,761.2c-8.2,1.6-13.6,9.4-12,17.5c1.6,8.1,9.5,13.4,17.7,11.8
			c8.2-1.6,13.6-9.4,12-17.5C219.6,764.9,211.6,759.6,203.4,761.2z"/>
		<path class="st12" d="M201.9,753.5c12.5-2.4,24.6,5.7,27,18c2.4,12.3-5.8,24.3-18.3,26.6c-12.5,2.4-24.6-5.7-27-18
			C181.3,767.8,189.4,755.9,201.9,753.5z M203.4,761.2c-8.2,1.6-13.6,9.4-12,17.5c1.6,8.1,9.5,13.4,17.7,11.8
			c8.2-1.6,13.6-9.4,12-17.5C219.6,764.9,211.6,759.6,203.4,761.2z"/>
	</g>
</g>
<g>
	<g>
		<path class="st3" d="M64.2,987.2c20.3-3.9,40,9.4,43.9,29.7c3.9,20.3-9.4,40-29.7,43.9c-20.3,3.9-40-9.4-43.9-29.7
			C30.6,1010.8,43.9,991.1,64.2,987.2z M66.7,999.9c-13.3,2.6-22.1,15.5-19.5,28.9c2.6,13.3,15.5,22.1,28.9,19.5
			c13.3-2.6,22.1-15.5,19.5-28.9C93,1006,80,997.3,66.7,999.9z"/>
		<path class="st12" d="M64.2,987.2c20.3-3.9,40,9.4,43.9,29.7c3.9,20.3-9.4,40-29.7,43.9c-20.3,3.9-40-9.4-43.9-29.7
			C30.6,1010.8,43.9,991.1,64.2,987.2z M66.7,999.9c-13.3,2.6-22.1,15.5-19.5,28.9c2.6,13.3,15.5,22.1,28.9,19.5
			c13.3-2.6,22.1-15.5,19.5-28.9C93,1006,80,997.3,66.7,999.9z"/>
	</g>
	<g>
		<path class="st13" d="M62.2,978.2c20.3-3.9,40,9.4,43.9,29.7c3.9,20.3-9.4,40-29.7,43.9c-20.3,3.9-40-9.4-43.9-29.7
			C28.6,1001.8,41.9,982.1,62.2,978.2z M64.7,990.9c-13.3,2.6-22.1,15.5-19.5,28.9c2.6,13.3,15.5,22.1,28.9,19.5
			c13.3-2.6,22.1-15.5,19.5-28.9C91,997,78,988.3,64.7,990.9z"/>
		<path class="st12" d="M62.2,978.2c20.3-3.9,40,9.4,43.9,29.7c3.9,20.3-9.4,40-29.7,43.9c-20.3,3.9-40-9.4-43.9-29.7
			C28.6,1001.8,41.9,982.1,62.2,978.2z M64.7,990.9c-13.3,2.6-22.1,15.5-19.5,28.9c2.6,13.3,15.5,22.1,28.9,19.5
			c13.3-2.6,22.1-15.5,19.5-28.9C91,997,78,988.3,64.7,990.9z"/>
	</g>
</g>
<g>
	<g>
		<path class="st3" d="M250.2,877.9c17.6-3.4,34.7,8.1,38.2,25.5c3.4,17.4-8.2,34.3-25.8,37.7c-17.6,3.4-34.7-8.1-38.2-25.5
			C221,898.2,232.5,881.3,250.2,877.9z M252.3,888.7c-11.6,2.2-19.2,13.3-17,24.7c2.2,11.4,13.5,18.9,25.1,16.7
			c11.6-2.2,19.2-13.3,17-24.7C275.1,894,263.9,886.5,252.3,888.7z"/>
		<path class="st12" d="M250.2,877.9c17.6-3.4,34.7,8.1,38.2,25.5c3.4,17.4-8.2,34.3-25.8,37.7c-17.6,3.4-34.7-8.1-38.2-25.5
			C221,898.2,232.5,881.3,250.2,877.9z M252.3,888.7c-11.6,2.2-19.2,13.3-17,24.7c2.2,11.4,13.5,18.9,25.1,16.7
			c11.6-2.2,19.2-13.3,17-24.7C275.1,894,263.9,886.5,252.3,888.7z"/>
	</g>
	<g>
		<path class="st13" d="M248.2,868.9c17.6-3.4,34.7,8.1,38.2,25.5c3.4,17.4-8.2,34.3-25.8,37.7c-17.6,3.4-34.7-8.1-38.2-25.5
			C219,889.2,230.5,872.3,248.2,868.9z M250.3,879.7c-11.6,2.2-19.2,13.3-17,24.7c2.2,11.4,13.5,18.9,25.1,16.7
			c11.6-2.2,19.2-13.3,17-24.7C273.1,885,261.9,877.5,250.3,879.7z"/>
		<path class="st12" d="M248.2,868.9c17.6-3.4,34.7,8.1,38.2,25.5c3.4,17.4-8.2,34.3-25.8,37.7c-17.6,3.4-34.7-8.1-38.2-25.5
			C219,889.2,230.5,872.3,248.2,868.9z M250.3,879.7c-11.6,2.2-19.2,13.3-17,24.7c2.2,11.4,13.5,18.9,25.1,16.7
			c11.6-2.2,19.2-13.3,17-24.7C273.1,885,261.9,877.5,250.3,879.7z"/>
	</g>
</g>
<g>
	<g>
		<path class="st3" d="M311.3,1299.3c17.6-3.4,34.7,8.1,38.2,25.5c3.4,17.4-8.2,34.3-25.8,37.7c-17.6,3.4-34.7-8.1-38.2-25.5
			C282.1,1319.5,293.7,1302.6,311.3,1299.3z M313.4,1310.1c-11.6,2.2-19.2,13.3-17,24.7c2.2,11.4,13.5,18.9,25.1,16.7
			c11.6-2.2,19.2-13.3,17-24.7C336.3,1315.4,325,1307.9,313.4,1310.1z"/>
		<path class="st12" d="M311.3,1299.3c17.6-3.4,34.7,8.1,38.2,25.5c3.4,17.4-8.2,34.3-25.8,37.7c-17.6,3.4-34.7-8.1-38.2-25.5
			C282.1,1319.5,293.7,1302.6,311.3,1299.3z M313.4,1310.1c-11.6,2.2-19.2,13.3-17,24.7c2.2,11.4,13.5,18.9,25.1,16.7
			c11.6-2.2,19.2-13.3,17-24.7C336.3,1315.4,325,1307.9,313.4,1310.1z"/>
	</g>
	<g>
		<path class="st13" d="M309.3,1290.3c17.6-3.4,34.7,8.1,38.2,25.5c3.4,17.4-8.2,34.3-25.8,37.7c-17.6,3.4-34.7-8.1-38.2-25.5
			C280.1,1310.5,291.7,1293.6,309.3,1290.3z M311.4,1301.1c-11.6,2.2-19.2,13.3-17,24.7c2.2,11.4,13.5,18.9,25.1,16.7
			c11.6-2.2,19.2-13.3,17-24.7C334.3,1306.4,323,1298.9,311.4,1301.1z"/>
		<path class="st12" d="M309.3,1290.3c17.6-3.4,34.7,8.1,38.2,25.5c3.4,17.4-8.2,34.3-25.8,37.7c-17.6,3.4-34.7-8.1-38.2-25.5
			C280.1,1310.5,291.7,1293.6,309.3,1290.3z M311.4,1301.1c-11.6,2.2-19.2,13.3-17,24.7c2.2,11.4,13.5,18.9,25.1,16.7
			c11.6-2.2,19.2-13.3,17-24.7C334.3,1306.4,323,1298.9,311.4,1301.1z"/>
	</g>
</g>
<g>
	<g>
		<polygon class="st8" points="352.5,784.6 336.2,784.4 335,768.3 318.6,768 317.6,754.6 309.9,756.9 311.3,775.7 327.6,776 
			328.9,792.1 345.2,792.3 346.4,808.4 365.5,808.7 367.4,800.9 353.8,800.7 		"/>
	</g>
	<g>
		<g>
			<polygon class="st9" points="350.5,775.6 334.2,775.4 333,759.3 316.6,759 315.6,745.6 307.9,747.9 309.3,766.7 325.6,767 
				326.9,783.1 343.2,783.3 344.4,799.4 363.5,799.7 365.4,791.9 351.8,791.7 			"/>
		</g>
	</g>
</g>
<g>
	<g>
		<polygon class="st8" points="412.7,1364.4 410.9,1370.1 405.3,1372.3 403.5,1378 398.8,1379.8 398.9,1382.2 405.4,1379.7 
			407.2,1374 412.8,1371.9 414.6,1366.2 420.2,1364 422.2,1357.4 419.8,1357.5 418.3,1362.3 		"/>
	</g>
	<g>
		<g>
			<polygon class="st9" points="410.7,1355.4 408.9,1361.1 403.3,1363.3 401.5,1369 396.8,1370.8 396.9,1373.2 403.4,1370.7 
				405.2,1365 410.8,1362.9 412.6,1357.2 418.2,1355 420.2,1348.4 417.8,1348.5 416.3,1353.3 			"/>
		</g>
	</g>
</g>
<g>
	<g>
		<polygon class="st8" points="129.7,1271 127.9,1276.7 122.3,1278.9 120.5,1284.6 115.8,1286.4 115.9,1288.8 122.4,1286.3 
			124.2,1280.6 129.8,1278.5 131.6,1272.8 137.2,1270.6 139.2,1264 136.8,1264.1 135.3,1268.9 		"/>
	</g>
	<g>
		<g>
			<polygon class="st9" points="127.7,1262 125.9,1267.7 120.3,1269.9 118.5,1275.6 113.8,1277.4 113.9,1279.8 120.4,1277.3 
				122.2,1271.6 127.8,1269.5 129.6,1263.8 135.2,1261.6 137.2,1255 134.8,1255.1 133.3,1259.9 			"/>
		</g>
	</g>
</g>
<g>
	<g>
		<polygon class="st3" points="123.3,1502.9 105.7,1553.8 70.5,1513.1 		"/>
	</g>
	<g>
		<polygon class="st4" points="121.3,1493.9 103.7,1544.8 68.5,1504.1 		"/>
	</g>
</g>
<g>
	<g>
		<polygon class="st3" points="69.1,1639.3 43.6,1652.8 44.7,1623.9 		"/>
	</g>
	<g>
		
			<linearGradient id="SVGID_12_" gradientUnits="userSpaceOnUse" x1="-323.5786" y1="-256.9946" x2="-295.2776" y2="-256.9946" gradientTransform="matrix(0.7299 0.6836 -0.6836 0.7299 97.6704 2029.6699)">
			<stop  offset="0" style="stop-color:#E5E00F"/>
			<stop  offset="0.4881" style="stop-color:#E6D214"/>
			<stop  offset="0.9621" style="stop-color:#E5A800"/>
		</linearGradient>
		<polygon class="st19" points="67.1,1630.3 41.6,1643.8 42.7,1614.9 		"/>
	</g>
</g>
<g>
	<g>
		<polygon class="st8" points="280.4,1806.4 276.6,1819 264.1,1823.8 260.2,1836.4 249.8,1840.4 249.8,1845.8 264.4,1840.3 
			268.2,1827.6 280.8,1822.9 284.6,1810.2 297.1,1805.5 301.6,1790.7 296.2,1791.1 292.9,1801.6 		"/>
	</g>
	<g>
		<g>
			<polygon class="st9" points="278.4,1797.4 274.6,1810 262.1,1814.8 258.2,1827.4 247.8,1831.4 247.8,1836.8 262.4,1831.3 
				266.2,1818.6 278.8,1813.9 282.6,1801.2 295.1,1796.5 299.6,1781.7 294.2,1782.1 290.9,1792.6 			"/>
		</g>
	</g>
</g>
<g>
	<g>
		<polygon class="st8" points="134.5,1619.9 130.7,1632.6 118.1,1637.3 114.3,1649.9 103.9,1653.9 103.9,1659.3 118.5,1653.8 
			122.3,1641.1 134.8,1636.4 138.7,1623.7 151.2,1619 155.7,1604.2 150.2,1604.6 147,1615.2 		"/>
	</g>
	<g>
		<g>
			<polygon class="st9" points="132.5,1610.9 128.7,1623.6 116.1,1628.3 112.3,1640.9 101.9,1644.9 101.9,1650.3 116.5,1644.8 
				120.3,1632.1 132.8,1627.4 136.7,1614.7 149.2,1610 153.7,1595.2 148.2,1595.6 145,1606.2 			"/>
		</g>
	</g>
</g>
<g>
	<g>
		<polygon class="st3" points="418.8,1629.3 393.3,1642.8 394.4,1614 		"/>
	</g>
	<g>
		
			<linearGradient id="SVGID_13_" gradientUnits="userSpaceOnUse" x1="-75.1794" y1="-503.3047" x2="-46.8785" y2="-503.3047" gradientTransform="matrix(0.7299 0.6836 -0.6836 0.7299 97.6704 2029.6699)">
			<stop  offset="0" style="stop-color:#E5E00F"/>
			<stop  offset="0.4881" style="stop-color:#E6D214"/>
			<stop  offset="0.9621" style="stop-color:#E5A800"/>
		</linearGradient>
		<polygon class="st20" points="416.8,1620.3 391.3,1633.8 392.4,1605 		"/>
	</g>
</g>
<g>
	<g>
		<polygon class="st8" points="429.9,1767.1 409.1,1762.8 403.6,1742.3 382.8,1737.9 378.1,1720.8 368.9,1721.9 375.4,1745.8 
			396.2,1750.1 401.7,1770.6 422.5,1774.9 428,1795.4 452.3,1800.5 452.8,1791.2 435.4,1787.6 		"/>
	</g>
	<g>
		<g>
			<polygon class="st9" points="427.9,1758.1 407.1,1753.8 401.6,1733.3 380.8,1728.9 376.1,1711.8 366.9,1712.9 373.4,1736.8 
				394.2,1741.1 399.7,1761.6 420.5,1765.9 426,1786.4 450.3,1791.5 450.8,1782.2 433.4,1778.6 			"/>
		</g>
	</g>
</g>
<g>
	<g>
		<path class="st3" d="M214.7,1517.9c12.5-2.4,24.6,5.7,27,18c2.4,12.3-5.8,24.3-18.3,26.6c-12.5,2.4-24.6-5.7-27-18
			C194.1,1532.3,202.3,1520.3,214.7,1517.9z M216.2,1525.6c-8.2,1.6-13.6,9.4-12,17.5c1.6,8.1,9.5,13.4,17.7,11.8s13.6-9.4,12-17.5
			C232.4,1529.4,224.4,1524,216.2,1525.6z"/>
		<path class="st12" d="M214.7,1517.9c12.5-2.4,24.6,5.7,27,18c2.4,12.3-5.8,24.3-18.3,26.6c-12.5,2.4-24.6-5.7-27-18
			C194.1,1532.3,202.3,1520.3,214.7,1517.9z M216.2,1525.6c-8.2,1.6-13.6,9.4-12,17.5c1.6,8.1,9.5,13.4,17.7,11.8s13.6-9.4,12-17.5
			C232.4,1529.4,224.4,1524,216.2,1525.6z"/>
	</g>
	<g>
		<path class="st13" d="M212.7,1508.9c12.5-2.4,24.6,5.7,27,18c2.4,12.3-5.8,24.3-18.3,26.6c-12.5,2.4-24.6-5.7-27-18
			C192.1,1523.3,200.3,1511.3,212.7,1508.9z M214.2,1516.6c-8.2,1.6-13.6,9.4-12,17.5c1.6,8.1,9.5,13.4,17.7,11.8s13.6-9.4,12-17.5
			C230.4,1520.4,222.4,1515,214.2,1516.6z"/>
		<path class="st12" d="M212.7,1508.9c12.5-2.4,24.6,5.7,27,18c2.4,12.3-5.8,24.3-18.3,26.6c-12.5,2.4-24.6-5.7-27-18
			C192.1,1523.3,200.3,1511.3,212.7,1508.9z M214.2,1516.6c-8.2,1.6-13.6,9.4-12,17.5c1.6,8.1,9.5,13.4,17.7,11.8s13.6-9.4,12-17.5
			C230.4,1520.4,222.4,1515,214.2,1516.6z"/>
	</g>
</g>
<g>
	<g>
		<path class="st3" d="M75,1742.6c20.3-3.9,40,9.4,43.9,29.7c3.9,20.3-9.4,40-29.7,43.9c-20.3,3.9-40-9.4-43.9-29.7
			C41.4,1766.3,54.7,1746.6,75,1742.6z M77.5,1755.3c-13.3,2.6-22.1,15.5-19.5,28.9c2.6,13.3,15.5,22.1,28.9,19.5
			c13.3-2.6,22.1-15.5,19.5-28.9C103.8,1761.5,90.8,1752.7,77.5,1755.3z"/>
		<path class="st12" d="M75,1742.6c20.3-3.9,40,9.4,43.9,29.7c3.9,20.3-9.4,40-29.7,43.9c-20.3,3.9-40-9.4-43.9-29.7
			C41.4,1766.3,54.7,1746.6,75,1742.6z M77.5,1755.3c-13.3,2.6-22.1,15.5-19.5,28.9c2.6,13.3,15.5,22.1,28.9,19.5
			c13.3-2.6,22.1-15.5,19.5-28.9C103.8,1761.5,90.8,1752.7,77.5,1755.3z"/>
	</g>
	<g>
		<path class="st13" d="M73,1733.6c20.3-3.9,40,9.4,43.9,29.7c3.9,20.3-9.4,40-29.7,43.9c-20.3,3.9-40-9.4-43.9-29.7
			C39.4,1757.3,52.7,1737.6,73,1733.6z M75.5,1746.3c-13.3,2.6-22.1,15.5-19.5,28.9c2.6,13.3,15.5,22.1,28.9,19.5
			c13.3-2.6,22.1-15.5,19.5-28.9C101.8,1752.5,88.8,1743.7,75.5,1746.3z"/>
		<path class="st12" d="M73,1733.6c20.3-3.9,40,9.4,43.9,29.7c3.9,20.3-9.4,40-29.7,43.9c-20.3,3.9-40-9.4-43.9-29.7
			C39.4,1757.3,52.7,1737.6,73,1733.6z M75.5,1746.3c-13.3,2.6-22.1,15.5-19.5,28.9c2.6,13.3,15.5,22.1,28.9,19.5
			c13.3-2.6,22.1-15.5,19.5-28.9C101.8,1752.5,88.8,1743.7,75.5,1746.3z"/>
	</g>
</g>
<g>
	<g>
		<path class="st3" d="M261,1633.3c17.6-3.4,34.7,8.1,38.2,25.5c3.4,17.4-8.2,34.3-25.8,37.7c-17.6,3.4-34.7-8.1-38.2-25.5
			C231.8,1653.6,243.4,1636.7,261,1633.3z M263.1,1644.2c-11.6,2.2-19.2,13.3-17,24.7c2.2,11.4,13.5,18.9,25.1,16.7
			c11.6-2.2,19.2-13.3,17-24.7C285.9,1649.5,274.7,1642,263.1,1644.2z"/>
		<path class="st12" d="M261,1633.3c17.6-3.4,34.7,8.1,38.2,25.5c3.4,17.4-8.2,34.3-25.8,37.7c-17.6,3.4-34.7-8.1-38.2-25.5
			C231.8,1653.6,243.4,1636.7,261,1633.3z M263.1,1644.2c-11.6,2.2-19.2,13.3-17,24.7c2.2,11.4,13.5,18.9,25.1,16.7
			c11.6-2.2,19.2-13.3,17-24.7C285.9,1649.5,274.7,1642,263.1,1644.2z"/>
	</g>
	<g>
		<path class="st13" d="M259,1624.3c17.6-3.4,34.7,8.1,38.2,25.5c3.4,17.4-8.2,34.3-25.8,37.7c-17.6,3.4-34.7-8.1-38.2-25.5
			C229.8,1644.6,241.4,1627.7,259,1624.3z M261.1,1635.2c-11.6,2.2-19.2,13.3-17,24.7c2.2,11.4,13.5,18.9,25.1,16.7
			c11.6-2.2,19.2-13.3,17-24.7C283.9,1640.5,272.7,1633,261.1,1635.2z"/>
		<path class="st12" d="M259,1624.3c17.6-3.4,34.7,8.1,38.2,25.5c3.4,17.4-8.2,34.3-25.8,37.7c-17.6,3.4-34.7-8.1-38.2-25.5
			C229.8,1644.6,241.4,1627.7,259,1624.3z M261.1,1635.2c-11.6,2.2-19.2,13.3-17,24.7c2.2,11.4,13.5,18.9,25.1,16.7
			c11.6-2.2,19.2-13.3,17-24.7C283.9,1640.5,272.7,1633,261.1,1635.2z"/>
	</g>
</g>
<g>
	<g>
		<polygon class="st8" points="363.4,1540 347,1539.8 345.8,1523.7 329.4,1523.5 328.4,1510 320.7,1512.4 322.1,1531.1 
			338.5,1531.4 339.7,1547.5 356,1547.7 357.2,1563.8 376.3,1564.1 378.2,1556.3 364.6,1556.1 		"/>
	</g>
	<g>
		<g>
			<polygon class="st9" points="361.4,1531 345,1530.8 343.8,1514.7 327.4,1514.5 326.4,1501 318.7,1503.4 320.1,1522.1 
				336.5,1522.4 337.7,1538.5 354,1538.7 355.2,1554.8 374.3,1555.1 376.2,1547.3 362.6,1547.1 			"/>
		</g>
	</g>
</g>
<g>
	<g>
		<polygon class="st3" points="134.4,2081.1 108.9,2094.6 110,2065.8 		"/>
	</g>
	<g>
		
			<linearGradient id="SVGID_14_" gradientUnits="userSpaceOnUse" x1="26.0432" y1="20.9002" x2="54.3441" y2="20.9002" gradientTransform="matrix(0.7299 0.6836 -0.6836 0.7299 97.6704 2029.6699)">
			<stop  offset="0" style="stop-color:#E5E00F"/>
			<stop  offset="0.4881" style="stop-color:#E6D214"/>
			<stop  offset="0.9621" style="stop-color:#E5A800"/>
		</linearGradient>
		<polygon class="st21" points="132.4,2072.1 106.9,2085.6 108,2056.8 		"/>
	</g>
</g>
<g>
	<g>
		<polygon class="st3" points="62.5,1906.4 37,1919.8 38.1,1891 		"/>
	</g>
	<g>
		
			<linearGradient id="SVGID_15_" gradientUnits="userSpaceOnUse" x1="-145.8531" y1="-57.5436" x2="-117.5522" y2="-57.5436" gradientTransform="matrix(0.7299 0.6836 -0.6836 0.7299 97.6704 2029.6699)">
			<stop  offset="0" style="stop-color:#E5E00F"/>
			<stop  offset="0.4881" style="stop-color:#E6D214"/>
			<stop  offset="0.9621" style="stop-color:#E5A800"/>
		</linearGradient>
		<polygon class="st22" points="60.5,1897.4 35,1910.8 36.1,1882 		"/>
	</g>
</g>
<g>
	<g>
		<polygon class="st3" points="284.3,1912.8 260.6,1980.5 213.1,1926.4 		"/>
	</g>
	<g>
		<polygon class="st4" points="282.3,1903.8 258.6,1971.5 211.1,1917.4 		"/>
	</g>
</g>
<g>
	<g>
		<path class="st3" d="M317.5,1997.5c17.6-3.4,34.7,8.1,38.2,25.5c3.4,17.4-8.2,34.3-25.8,37.7c-17.6,3.4-34.7-8.1-38.2-25.5
			C288.3,2017.7,299.9,2000.9,317.5,1997.5z M319.6,2008.3c-11.6,2.2-19.2,13.3-17,24.7c2.2,11.4,13.5,18.9,25.1,16.7
			c11.6-2.2,19.2-13.3,17-24.7C342.4,2013.6,331.2,2006.1,319.6,2008.3z"/>
		<path class="st12" d="M317.5,1997.5c17.6-3.4,34.7,8.1,38.2,25.5c3.4,17.4-8.2,34.3-25.8,37.7c-17.6,3.4-34.7-8.1-38.2-25.5
			C288.3,2017.7,299.9,2000.9,317.5,1997.5z M319.6,2008.3c-11.6,2.2-19.2,13.3-17,24.7c2.2,11.4,13.5,18.9,25.1,16.7
			c11.6-2.2,19.2-13.3,17-24.7C342.4,2013.6,331.2,2006.1,319.6,2008.3z"/>
	</g>
	<g>
		<path class="st13" d="M315.5,1988.5c17.6-3.4,34.7,8.1,38.2,25.5c3.4,17.4-8.2,34.3-25.8,37.7c-17.6,3.4-34.7-8.1-38.2-25.5
			C286.3,2008.7,297.9,1991.9,315.5,1988.5z M317.6,1999.3c-11.6,2.2-19.2,13.3-17,24.7c2.2,11.4,13.5,18.9,25.1,16.7
			c11.6-2.2,19.2-13.3,17-24.7C340.4,2004.6,329.2,1997.1,317.6,1999.3z"/>
		<path class="st12" d="M315.5,1988.5c17.6-3.4,34.7,8.1,38.2,25.5c3.4,17.4-8.2,34.3-25.8,37.7c-17.6,3.4-34.7-8.1-38.2-25.5
			C286.3,2008.7,297.9,1991.9,315.5,1988.5z M317.6,1999.3c-11.6,2.2-19.2,13.3-17,24.7c2.2,11.4,13.5,18.9,25.1,16.7
			c11.6-2.2,19.2-13.3,17-24.7C340.4,2004.6,329.2,1997.1,317.6,1999.3z"/>
	</g>
</g>
<g>
	<g>
		<polygon class="st8" points="418.8,2062.6 417.1,2068.4 411.4,2070.5 409.7,2076.2 405,2078 405,2080.4 411.6,2077.9 
			413.3,2072.2 419,2070.1 420.7,2064.4 426.4,2062.2 428.4,2055.6 425.9,2055.8 424.5,2060.5 		"/>
	</g>
	<g>
		<g>
			<polygon class="st9" points="416.8,2053.6 415.1,2059.4 409.4,2061.5 407.7,2067.2 403,2069 403,2071.4 409.6,2068.9 
				411.3,2063.2 417,2061.1 418.7,2055.4 424.4,2053.2 426.4,2046.6 423.9,2046.8 422.5,2051.5 			"/>
		</g>
	</g>
</g>
<g>
	<g>
		<polygon class="st8" points="135.8,1969.2 134.1,1974.9 128.4,1977.1 126.7,1982.8 122,1984.6 122,1987 128.6,1984.5 
			130.3,1978.8 136,1976.7 137.7,1971 143.4,1968.8 145.4,1962.2 142.9,1962.3 141.5,1967.1 		"/>
	</g>
	<g>
		<g>
			<polygon class="st9" points="133.8,1960.2 132.1,1965.9 126.4,1968.1 124.7,1973.8 120,1975.6 120,1978 126.6,1975.5 
				128.3,1969.8 134,1967.7 135.7,1962 141.4,1959.8 143.4,1953.2 140.9,1953.3 139.5,1958.1 			"/>
		</g>
	</g>
</g>
</svg>
