<svg xmlns="http://www.w3.org/2000/svg" viewBox="0 0 335.16 336.69"><defs><style>.cls-1,.cls-2,.cls-4{fill:none;stroke:#1a1818;stroke-miterlimit:10;}.cls-1{stroke-width:5px;}.cls-2{stroke-width:2px;}.cls-3,.cls-5{fill:#1a1818;}.cls-4{stroke-width:3px;}.cls-5{font-size:24px;font-family:AlternateGotNo1D, Alternate Gothic No1 D;}</style></defs><g id="Capa_2" data-name="Capa 2"><g id="Capa_1-2" data-name="Capa 1"><circle class="cls-1" cx="166.43" cy="165.24" r="153.27"/><circle class="cls-2" cx="166.37" cy="166.27" r="138.41"/><circle class="cls-3" cx="164.48" cy="107.56" r="1.54"/><path class="cls-3" d="M33.74,180.61l18.12-49.78H68.94l-2.39,6.59H57l-4.82,13.24h8.83l-2.41,6.61H49.81l-8.49,23.34Z"/><path class="cls-3" d="M63.19,181.14A5.52,5.52,0,0,1,59.4,180a4.32,4.32,0,0,1-1.29-3.38A17,17,0,0,1,59.33,171l11.94-32.81H78.8L67.28,169.83a10,10,0,0,0-.79,3.79c.07.91.73,1.36,2,1.36a4.05,4.05,0,0,0,3.26-1.54,12,12,0,0,0,2-3.55l11.57-31.71H92.8L77.36,180.61h-7.5l1.61-4.41a15.48,15.48,0,0,1-3.59,3.55A8,8,0,0,1,63.19,181.14Z"/><path class="cls-3" d="M84.65,180.61l15.45-42.43h7.49l-1.77,4.87a12.38,12.38,0,0,1,3.75-3.78,8.94,8.94,0,0,1,5-1.6q3.68,0,4.63,2.45t-.74,7.08l-12.16,33.41h-7.5l12-33a4,4,0,0,0,.21-2.89,1.83,1.83,0,0,0-1.89-1,4.15,4.15,0,0,0-2.2.63,6.38,6.38,0,0,0-1.84,1.76,10.34,10.34,0,0,0-1.35,2.61l-11.6,31.88Z"/><path class="cls-3" d="M125,169.34l1.8-5h13.52l-1.8,5Z"/><path class="cls-3" d="M128.66,210.45,155,138.12h8.63l-.47,43.4,6.4-19.73,8.62-23.67h9.9l-26.33,72.33h-7.8l.61-44.92-6.3,19-9.44,25.93Z"/><path class="cls-3" d="M177.11,187l1.8-4.95h13.52l-1.8,4.95Z"/><path class="cls-3" d="M197.91,213.43q-4.07,0-5.2-2.31t.78-7.56l.79-2.18h5.59l-1,2.72a8.28,8.28,0,0,0-.68,3.34,1.17,1.17,0,0,0,1.33,1.14,2.89,2.89,0,0,0,2-.78,7,7,0,0,0,1.55-2.72,7.6,7.6,0,0,0,.46-2.17,5.83,5.83,0,0,0-.25-2.07,6.56,6.56,0,0,0-1-2l-2-2.73a8.32,8.32,0,0,1-1.64-4.07,11,11,0,0,1,.73-4.84,12.93,12.93,0,0,1,4.29-6.26,11,11,0,0,1,6.67-2,6.66,6.66,0,0,1,3.89.95,3.65,3.65,0,0,1,1.39,3.09,16.58,16.58,0,0,1-1.25,5.72l-.67,1.83h-5.31l.81-2.22a8.82,8.82,0,0,0,.72-3.36,1.14,1.14,0,0,0-1.3-1.14,3,3,0,0,0-2,.66,5.54,5.54,0,0,0-1.45,2.32,6.09,6.09,0,0,0-.42,1.76,5,5,0,0,0,.16,1.68,4.9,4.9,0,0,0,.8,1.6l2.13,2.9a9.93,9.93,0,0,1,2,4.73,11.61,11.61,0,0,1-.74,5.34,14.25,14.25,0,0,1-4.27,6.42A10.63,10.63,0,0,1,197.91,213.43Z"/><path class="cls-3" d="M210.51,213,225,173.2h5.95l-7.81,21.46,11.3-15.3h6L228,195.91,228.6,213h-6l-.28-16-5.82,16Z"/><path class="cls-3" d="M237.34,213.34c-2.3,0-3.6-.84-3.88-2.51a14,14,0,0,1,1-6.66l.78-2.16a14.83,14.83,0,0,1,2.37-4.37,11.92,11.92,0,0,1,3.2-2.74,23.47,23.47,0,0,1,4.1-1.83c1.52-.53,3.21-1.09,5-1.69l1.07-2.93a24.44,24.44,0,0,0,.86-2.73,2,2,0,0,0-.06-1.49,1.45,1.45,0,0,0-1.29-.47,2.76,2.76,0,0,0-1.64.48,4.21,4.21,0,0,0-1.22,1.48,19,19,0,0,0-1.11,2.55l-.55,1.5H240.2l.36-1a27.36,27.36,0,0,1,1.9-4.13,12.63,12.63,0,0,1,2.46-3.08,9.57,9.57,0,0,1,3.27-1.93,12.92,12.92,0,0,1,4.33-.66,8.38,8.38,0,0,1,3.5.62,3.52,3.52,0,0,1,1.84,1.84,6.12,6.12,0,0,1,.3,3.06,20.09,20.09,0,0,1-1.11,4.28L248.22,213h-6l1.21-3.34a8.74,8.74,0,0,1-1.57,1.8,8.07,8.07,0,0,1-2.12,1.36A5.82,5.82,0,0,1,237.34,213.34Zm3.73-4.58a3.18,3.18,0,0,0,2.08-.81,5.85,5.85,0,0,0,1.43-1.63l4.21-11.57c-1,.4-1.94.78-2.68,1.13a10.28,10.28,0,0,0-1.9,1.15,6.51,6.51,0,0,0-1.34,1.48,10.45,10.45,0,0,0-1,2.09l-1.37,3.77a8.73,8.73,0,0,0-.74,3.35C239.82,208.42,240.26,208.76,241.07,208.76Z"/><path class="cls-3" d="M259.71,213.23a6.54,6.54,0,0,1-3.09-.55,1.87,1.87,0,0,1-.94-1.74,9.94,9.94,0,0,1,.69-3.07l8.56-23.5h-2.74l1.57-4.31h2.73l2.38-6.53h5.94l-2.37,6.53h3.27l-1.57,4.31h-3.27l-8.18,22.46a2.31,2.31,0,0,0-.19,1.19q.11.4.78.54a11.91,11.91,0,0,0,2.12.14l-1.65,4.53Z"/><path class="cls-3" d="M275.73,213.4a7.55,7.55,0,0,1-3.87-.8,3.55,3.55,0,0,1-1.68-2.33,8.78,8.78,0,0,1,.06-3.67,31.74,31.74,0,0,1,1.39-4.79l4.56-12.53a23.34,23.34,0,0,1,2-4.26,14.54,14.54,0,0,1,2.69-3.26,10.9,10.9,0,0,1,3.41-2.07,11.59,11.59,0,0,1,4.21-.73,7.73,7.73,0,0,1,3.67.72,3.42,3.42,0,0,1,1.71,2.08,7.39,7.39,0,0,1,.11,3.29,23.52,23.52,0,0,1-1.19,4.34l-2.62,7.2H279.52l-2.41,6.61a17.62,17.62,0,0,0-1.05,3.93c-.1,1,.41,1.48,1.55,1.48a2.65,2.65,0,0,0,1.88-.7,6,6,0,0,0,1.28-1.92q.54-1.22,1.11-2.79l1.08-3h5.88l-.66,1.8a40.25,40.25,0,0,1-2.08,4.82,14.83,14.83,0,0,1-2.5,3.56,9.63,9.63,0,0,1-3.33,2.22A12.23,12.23,0,0,1,275.73,213.4Zm5-20.29h4.8l1.56-4.3A25.78,25.78,0,0,0,288,186a2.89,2.89,0,0,0,0-1.74c-.18-.39-.59-.58-1.23-.58a3,3,0,0,0-2,.69,5.87,5.87,0,0,0-1.38,1.9,28,28,0,0,0-1.14,2.72Z"/><line class="cls-4" x1="26.54" y1="189.1" x2="118.43" y2="188.94"/><line class="cls-4" x1="193.29" y1="223.05" x2="294.72" y2="222.76"/><line class="cls-4" x1="198.63" y1="165.63" x2="306.69" y2="165.45"/><line class="cls-4" x1="37.92" y1="125.2" x2="134.68" y2="125.15"/><text class="cls-5" transform="translate(250.44 239.05) rotate(132.88)"><tspan xml:space="preserve">HIGH QUALITY SKATE BRAND                      HIGH QUALITY SKATE BRAND</tspan></text><circle class="cls-3" cx="179.53" cy="335.15" r="1.54"/><polygon class="cls-3" points="165.74 93.12 169.43 100.6 177.68 101.8 171.71 107.62 173.12 115.84 165.74 111.96 158.35 115.84 159.76 107.62 153.79 101.8 162.05 100.6 165.74 93.12"/><polygon class="cls-3" points="162.58 237.4 166.27 244.88 174.53 246.08 168.56 251.91 169.97 260.13 162.58 256.24 155.2 260.13 156.61 251.91 150.64 246.08 158.89 244.88 162.58 237.4"/></g></g></svg>